Monoto-Bold.ufo
<glyph name="quotedbl" format="2">
  <advance width="500"/>
  <unicode hex="0022"/>
  <outline>
    <contour>
      <point x="300" y="456" type="line"/>
      <point x="419" y="456" type="line"/>
      <point x="438" y="714" type="line"/>
      <point x="280" y="714" type="line"/>
    </contour>
    <contour>
      <point x="80" y="456" type="line"/>
      <point x="199" y="456" type="line"/>
      <point x="219" y="714" type="line"/>
      <point x="61" y="714" type="line"/>
    </contour>
  </outline>
</glyph>
<glyph name="ampersand" format="2">
  <advance width="500"/>
  <unicode hex="0026"/>
  <outline>
    <contour>
      <point x="199" y="-10" type="curve" smooth="yes"/>
      <point x="399" y="-10"/>
      <point x="462" y="178"/>
      <point x="488" y="371" type="curve"/>
      <point x="376" y="371" type="line"/>
      <point x="361" y="263"/>
      <point x="312" y="110"/>
      <point x="217" y="110" type="curve" smooth="yes"/>
      <point x="178" y="110"/>
      <point x="144" y="135"/>
      <point x="144" y="190" type="curve" smooth="yes"/>
      <point x="144" y="245"/>
      <point x="179" y="279"/>
      <point x="234" y="328" type="curve" smooth="yes"/>
      <point x="313" y="399"/>
      <point x="382" y="467"/>
      <point x="382" y="574" type="curve" smooth="yes"/>
      <point x="382" y="663"/>
      <point x="335" y="723"/>
      <point x="228" y="723" type="curve" smooth="yes"/>
      <point x="127" y="723"/>
      <point x="68" y="670"/>
      <point x="68" y="565" type="curve" smooth="yes"/>
      <point x="68" y="478"/>
      <point x="108" y="412"/>
      <point x="143" y="352" type="curve" smooth="yes"/>
      <point x="348" y="0" type="line"/>
      <point x="476" y="0" type="line"/>
      <point x="237" y="433" type="line" smooth="yes"/>
      <point x="219" y="466"/>
      <point x="185" y="519"/>
      <point x="185" y="569" type="curve" smooth="yes"/>
      <point x="185" y="604"/>
      <point x="202" y="621"/>
      <point x="228" y="621" type="curve" smooth="yes"/>
      <point x="253" y="621"/>
      <point x="269" y="606"/>
      <point x="269" y="571" type="curve" smooth="yes"/>
      <point x="269" y="503"/>
      <point x="209" y="452"/>
      <point x="177" y="425" type="curve" smooth="yes"/>
      <point x="74" y="339"/>
      <point x="20" y="287"/>
      <point x="20" y="176" type="curve" smooth="yes"/>
      <point x="20" y="64"/>
      <point x="74" y="-10"/>
    </contour>
  </outline>
</glyph>
<glyph name="comma" format="2">
  <advance width="500"/>
  <unicode hex="002C"/>
  <outline>
    <contour>
      <point x="156" y="-137" type="curve"/>
      <point x="276" y="-137" type="line"/>
      <point x="305" y="-64"/>
      <point x="327" y="23"/>
      <point x="343" y="128" type="curve"/>
      <point x="337" y="139" type="line"/>
      <point x="194" y="139" type="line"/>
      <point x="190" y="65"/>
      <point x="172" y="-60"/>
    </contour>
  </outline>
</glyph>
<glyph name="two" format="2">
  <advance width="500"/>
  <unicode hex="0032"/>
  <outline>
    <contour>
      <point x="37" y="0" type="line"/>
      <point x="453" y="0" type="line"/>
      <point x="453" y="146" type="line"/>
      <point x="237" y="146" type="line"/>
      <point x="237" y="151" type="line"/>
      <point x="319" y="250" type="line" smooth="yes"/>
      <point x="415" y="366"/>
      <point x="443" y="438"/>
      <point x="443" y="515" type="curve" smooth="yes"/>
      <point x="443" y="651"/>
      <point x="357" y="724"/>
      <point x="237" y="724" type="curve" smooth="yes"/>
      <point x="153" y="724"/>
      <point x="86" y="692"/>
      <point x="21" y="610" type="curve"/>
      <point x="102" y="501" type="line"/>
      <point x="147" y="556"/>
      <point x="183" y="578"/>
      <point x="220" y="578" type="curve" smooth="yes"/>
      <point x="260" y="578"/>
      <point x="276" y="552"/>
      <point x="276" y="510" type="curve" smooth="yes"/>
      <point x="276" y="462"/>
      <point x="256" y="413"/>
      <point x="172" y="300" type="curve" smooth="yes"/>
      <point x="37" y="119" type="line"/>
    </contour>
  </outline>
</glyph>
<glyph name="colon" format="2">
  <advance width="500"/>
  <unicode hex="003A"/>
  <outline>
    <contour>
      <point x="252" y="381" type="curve" smooth="yes"/>
      <point x="303" y="381"/>
      <point x="334" y="413"/>
      <point x="334" y="469" type="curve" smooth="yes"/>
      <point x="334" y="525"/>
      <point x="306" y="557"/>
      <point x="252" y="557" type="curve" smooth="yes"/>
      <point x="196" y="557"/>
      <point x="166" y="525"/>
      <point x="166" y="469" type="curve" smooth="yes"/>
      <point x="166" y="413"/>
      <point x="199" y="381"/>
    </contour>
    <contour>
      <point x="252" y="-11" type="curve" smooth="yes"/>
      <point x="303" y="-11"/>
      <point x="334" y="20"/>
      <point x="334" y="76" type="curve" smooth="yes"/>
      <point x="334" y="133"/>
      <point x="305" y="164"/>
      <point x="252" y="164" type="curve" smooth="yes"/>
      <point x="196" y="164"/>
      <point x="166" y="132"/>
      <point x="166" y="76" type="curve" smooth="yes"/>
      <point x="166" y="20"/>
      <point x="199" y="-11"/>
    </contour>
  </outline>
</glyph>
<glyph name="semicolon" format="2">
  <advance width="500"/>
  <unicode hex="003B"/>
  <outline>
    <contour>
      <point x="156" y="-137" type="curve" smooth="yes"/>
      <point x="277" y="-137" type="line"/>
      <point x="305" y="-64"/>
      <point x="328" y="23"/>
      <point x="344" y="128" type="curve"/>
      <point x="338" y="139" type="line"/>
      <point x="195" y="139" type="line"/>
      <point x="189" y="63"/>
      <point x="173" y="-137"/>
    </contour>
    <contour>
      <point x="261" y="381" type="curve" smooth="yes"/>
      <point x="312" y="381"/>
      <point x="343" y="413"/>
      <point x="343" y="469" type="curve" smooth="yes"/>
      <point x="343" y="525"/>
      <point x="315" y="557"/>
      <point x="261" y="557" type="curve" smooth="yes"/>
      <point x="205" y="557"/>
      <point x="176" y="525"/>
      <point x="176" y="469" type="curve" smooth="yes"/>
      <point x="176" y="413"/>
      <point x="208" y="381"/>
    </contour>
  </outline>
</glyph>
<glyph name="greater" format="2">
  <advance width="500"/>
  <unicode hex="003E"/>
  <outline>
    <contour>
      <point x="38" y="116" type="line"/>
      <point x="462" y="322" type="line"/>
      <point x="462" y="398" type="line"/>
      <point x="38" y="603" type="line"/>
      <point x="38" y="471" type="line"/>
      <point x="291" y="360" type="line"/>
      <point x="38" y="247" type="line"/>
    </contour>
  </outline>
</glyph>
<glyph name="A" format="2">
  <advance width="500"/>
  <unicode hex="0041"/>
  <anchor x="250" y="0" name="bottom"/>
  <anchor x="450" y="10" name="ogonek"/>
  <anchor x="250" y="714" name="top"/>
  <anchor x="480" y="714" name="topright"/>
  <outline>
    <contour>
      <point x="5" y="0" type="line"/>
      <point x="157" y="0" type="line"/>
      <point x="226" y="438" type="line" smooth="yes"/>
      <point x="233" y="483"/>
      <point x="244" y="549"/>
      <point x="250" y="592" type="curve"/>
      <point x="256" y="549"/>
      <point x="267" y="483"/>
      <point x="274" y="438" type="curve" smooth="yes"/>
      <point x="346" y="0" type="line"/>
      <point x="495" y="0" type="line"/>
      <point x="360" y="716" type="line"/>
      <point x="135" y="716" type="line"/>
    </contour>
    <contour>
      <point x="123" y="155" type="line"/>
      <point x="388" y="155" type="line"/>
      <point x="388" y="290" type="line"/>
      <point x="123" y="290" type="line"/>
    </contour>
  </outline>
</glyph>
<glyph name="C" format="2">
  <advance width="500"/>
  <unicode hex="0043"/>
  <anchor x="306" y="0" name="bottom"/>
  <anchor x="298" y="714" name="top"/>
  <anchor x="480" y="714" name="topright"/>
  <outline>
    <contour>
      <point x="299" y="-10" type="curve" smooth="yes"/>
      <point x="355" y="-10"/>
      <point x="415" y="3"/>
      <point x="461" y="30" type="curve"/>
      <point x="461" y="175" type="line"/>
      <point x="418" y="150"/>
      <point x="374" y="130"/>
      <point x="324" y="130" type="curve" smooth="yes"/>
      <point x="235" y="130"/>
      <point x="186" y="205"/>
      <point x="186" y="351" type="curve" smooth="yes"/>
      <point x="186" y="496"/>
      <point x="234" y="584"/>
      <point x="330" y="584" type="curve" smooth="yes"/>
      <point x="364" y="584"/>
      <point x="403" y="575"/>
      <point x="441" y="546" type="curve"/>
      <point x="485" y="674" type="line"/>
      <point x="434" y="708"/>
      <point x="385" y="725"/>
      <point x="306" y="725" type="curve" smooth="yes"/>
      <point x="131" y="725"/>
      <point x="30" y="575"/>
      <point x="30" y="342" type="curve" smooth="yes"/>
      <point x="30" y="119"/>
      <point x="123" y="-10"/>
    </contour>
  </outline>
</glyph>
<glyph name="F" format="2">
  <advance width="500"/>
  <unicode hex="0046"/>
  <anchor x="256" y="0" name="bottom"/>
  <anchor x="256" y="714" name="top"/>
  <anchor x="480" y="714" name="topright"/>
  <outline>
    <contour>
      <point x="45" y="0" type="line"/>
      <point x="200" y="0" type="line"/>
      <point x="200" y="265" type="line"/>
      <point x="443" y="265" type="line"/>
      <point x="443" y="405" type="line"/>
      <point x="200" y="405" type="line"/>
      <point x="200" y="574" type="line"/>
      <point x="460" y="574" type="line"/>
      <point x="460" y="714" type="line"/>
      <point x="45" y="714" type="line"/>
    </contour>
  </outline>
</glyph>
<glyph name="K" format="2">
  <advance width="500"/>
  <unicode hex="004B"/>
  <anchor x="251" y="0" name="bottom"/>
  <anchor x="250" y="714" name="top"/>
  <anchor x="480" y="714" name="topright"/>
  <outline>
    <contour>
      <point x="25" y="0" type="line"/>
      <point x="177" y="0" type="line"/>
      <point x="177" y="221" type="line"/>
      <point x="228" y="266" type="line"/>
      <point x="316" y="0" type="line"/>
      <point x="491" y="0" type="line"/>
      <point x="348" y="390" type="line"/>
      <point x="495" y="714" type="line"/>
      <point x="327" y="714" type="line"/>
      <point x="232" y="495" type="line" smooth="yes"/>
      <point x="215" y="456"/>
      <point x="194" y="417"/>
      <point x="177" y="378" type="curve"/>
      <point x="177" y="714" type="line"/>
      <point x="25" y="714" type="line"/>
    </contour>
  </outline>
</glyph>
<glyph name="M" format="2">
  <advance width="500"/>
  <unicode hex="004D"/>
  <anchor x="250" y="0" name="bottom"/>
  <anchor x="254" y="714" name="top"/>
  <anchor x="500" y="714" name="topright"/>
  <outline>
    <contour>
      <point x="10" y="0" type="line"/>
      <point x="144" y="0" type="line"/>
      <point x="141" y="158" type="line" smooth="yes"/>
      <point x="140" y="219"/>
      <point x="119" y="578"/>
      <point x="118" y="602" type="curve"/>
      <point x="127" y="602" type="line"/>
      <point x="176" y="175" type="line"/>
      <point x="330" y="175" type="line"/>
      <point x="381" y="602" type="line"/>
      <point x="390" y="602" type="line"/>
      <point x="388" y="580"/>
      <point x="361" y="218"/>
      <point x="360" y="158" type="curve" smooth="yes"/>
      <point x="358" y="0" type="line"/>
      <point x="489" y="0" type="line"/>
      <point x="489" y="714" type="line"/>
      <point x="283" y="714" type="line"/>
      <point x="256" y="288" type="line"/>
      <point x="253" y="288" type="line"/>
      <point x="221" y="714" type="line"/>
      <point x="10" y="714" type="line"/>
    </contour>
  </outline>
</glyph>
<glyph name="N" format="2">
  <advance width="500"/>
  <unicode hex="004E"/>
  <anchor x="250" y="0" name="bottom"/>
  <anchor x="255" y="714" name="top"/>
  <anchor x="500" y="714" name="topright"/>
  <outline>
    <contour>
      <point x="25" y="0" type="line"/>
      <point x="165" y="0" type="line"/>
      <point x="165" y="309" type="line" smooth="yes"/>
      <point x="165" y="390"/>
      <point x="153" y="477"/>
      <point x="147" y="582" type="curve"/>
      <point x="155" y="582" type="line"/>
      <point x="263" y="0" type="line"/>
      <point x="475" y="0" type="line"/>
      <point x="475" y="714" type="line"/>
      <point x="334" y="714" type="line"/>
      <point x="334" y="412" type="line" smooth="yes"/>
      <point x="334" y="342"/>
      <point x="346" y="218"/>
      <point x="350" y="140" type="curve"/>
      <point x="343" y="140" type="line"/>
      <point x="241" y="714" type="line"/>
      <point x="25" y="714" type="line"/>
    </contour>
  </outline>
</glyph>
<glyph name="P" format="2">
  <advance width="500"/>
  <unicode hex="0050"/>
  <anchor x="250" y="0" name="bottom"/>
  <anchor x="256" y="714" name="top"/>
  <anchor x="500" y="714" name="topright"/>
  <outline>
    <contour>
      <point x="45" y="0" type="line"/>
      <point x="200" y="0" type="line"/>
      <point x="200" y="245" type="line"/>
      <point x="245" y="245" type="line" smooth="yes"/>
      <point x="410" y="245"/>
      <point x="475" y="345"/>
      <point x="475" y="486" type="curve" smooth="yes"/>
      <point x="475" y="633"/>
      <point x="404" y="714"/>
      <point x="248" y="714" type="curve" smooth="yes"/>
      <point x="45" y="714" type="line"/>
    </contour>
    <contour>
      <point x="200" y="377" type="line"/>
      <point x="200" y="584" type="line"/>
      <point x="242" y="584" type="line" smooth="yes"/>
      <point x="297" y="584"/>
      <point x="328" y="552"/>
      <point x="328" y="478" type="curve" smooth="yes"/>
      <point x="328" y="411"/>
      <point x="302" y="377"/>
      <point x="230" y="377" type="curve" smooth="yes"/>
    </contour>
  </outline>
</glyph>
<glyph name="S" format="2">
  <advance width="500"/>
  <unicode hex="0053"/>
  <anchor x="250" y="0" name="bottom"/>
  <anchor x="259" y="714" name="top"/>
  <anchor x="480" y="714" name="topright"/>
  <outline>
    <contour>
      <point x="224" y="-10" type="curve" smooth="yes"/>
      <point x="369" y="-10"/>
      <point x="460" y="54"/>
      <point x="460" y="201" type="curve" smooth="yes"/>
      <point x="460" y="312"/>
      <point x="408" y="353"/>
      <point x="287" y="431" type="curve" smooth="yes"/>
      <point x="225" y="471"/>
      <point x="196" y="488"/>
      <point x="196" y="524" type="curve" smooth="yes"/>
      <point x="196" y="558"/>
      <point x="218" y="586"/>
      <point x="273" y="586" type="curve" smooth="yes"/>
      <point x="309" y="586"/>
      <point x="349" y="574"/>
      <point x="403" y="541" type="curve"/>
      <point x="448" y="673" type="line"/>
      <point x="387" y="707"/>
      <point x="330" y="724"/>
      <point x="264" y="724" type="curve" smooth="yes"/>
      <point x="122" y="724"/>
      <point x="40" y="647"/>
      <point x="40" y="524" type="curve" smooth="yes"/>
      <point x="40" y="417"/>
      <point x="102" y="365"/>
      <point x="195" y="305" type="curve" smooth="yes"/>
      <point x="270" y="257"/>
      <point x="305" y="241"/>
      <point x="305" y="193" type="curve" smooth="yes"/>
      <point x="305" y="163"/>
      <point x="291" y="129"/>
      <point x="218" y="129" type="curve" smooth="yes"/>
      <point x="155" y="129"/>
      <point x="101" y="154"/>
      <point x="48" y="194" type="curve"/>
      <point x="48" y="35" type="line"/>
      <point x="108" y="1"/>
      <point x="164" y="-10"/>
    </contour>
  </outline>
</glyph>
<glyph name="bracketleft" format="2">
  <advance width="500"/>
  <unicode hex="005B"/>
  <outline>
    <contour>
      <point x="171" y="-166" type="line"/>
      <point x="409" y="-166" type="line"/>
      <point x="409" y="-54" type="line"/>
      <point x="307" y="-54" type="line"/>
      <point x="307" y="618" type="line"/>
      <point x="409" y="618" type="line"/>
      <point x="409" y="731" type="line"/>
      <point x="171" y="731" type="line"/>
    </contour>
  </outline>
</glyph>
<glyph name="b" format="2">
  <advance width="500"/>
  <unicode hex="0062"/>
  <anchor x="250" y="0" name="bottom"/>
  <anchor x="250" y="760" name="top"/>
  <anchor x="480" y="760" name="topright"/>
  <outline>
    <contour>
      <point x="302" y="-10" type="curve" smooth="yes"/>
      <point x="404" y="-10"/>
      <point x="480" y="100"/>
      <point x="480" y="279" type="curve" smooth="yes"/>
      <point x="480" y="435"/>
      <point x="422" y="563"/>
      <point x="307" y="563" type="curve" smooth="yes"/>
      <point x="258" y="563"/>
      <point x="209" y="540"/>
      <point x="184" y="484" type="curve"/>
      <point x="178" y="484" type="line"/>
      <point x="182" y="520"/>
      <point x="185" y="538"/>
      <point x="185" y="574" type="curve" smooth="yes"/>
      <point x="185" y="760" type="line"/>
      <point x="35" y="760" type="line"/>
      <point x="35" y="0" type="line"/>
      <point x="160" y="0" type="line"/>
      <point x="176" y="56" type="line"/>
      <point x="185" y="56" type="line"/>
      <point x="218" y="8"/>
      <point x="261" y="-10"/>
    </contour>
    <contour>
      <point x="251" y="128" type="curve" smooth="yes"/>
      <point x="202" y="128"/>
      <point x="182" y="178"/>
      <point x="182" y="277" type="curve" smooth="yes"/>
      <point x="182" y="373"/>
      <point x="201" y="424"/>
      <point x="252" y="424" type="curve" smooth="yes"/>
      <point x="300" y="424"/>
      <point x="320" y="378"/>
      <point x="320" y="278" type="curve" smooth="yes"/>
      <point x="320" y="178"/>
      <point x="300" y="128"/>
    </contour>
  </outline>
</glyph>
<glyph name="e" format="2">
  <advance width="500"/>
  <unicode hex="0065"/>
  <anchor x="260" y="0" name="bottom"/>
  <anchor x="262" y="10" name="ogonek"/>
  <anchor x="261" y="553" name="top"/>
  <anchor x="497" y="553" name="topright"/>
  <outline>
    <contour>
      <point x="277" y="-10" type="curve" smooth="yes"/>
      <point x="356" y="-10"/>
      <point x="409" y="6"/>
      <point x="447" y="28" type="curve"/>
      <point x="447" y="165" type="line"/>
      <point x="411" y="141"/>
      <point x="363" y="125"/>
      <point x="297" y="125" type="curve" smooth="yes"/>
      <point x="239" y="125"/>
      <point x="184" y="152"/>
      <point x="182" y="221" type="curve"/>
      <point x="475" y="221" type="line"/>
      <point x="475" y="303" type="line" smooth="yes"/>
      <point x="475" y="483"/>
      <point x="390" y="563"/>
      <point x="262" y="563" type="curve" smooth="yes"/>
      <point x="106" y="563"/>
      <point x="25" y="447"/>
      <point x="25" y="274" type="curve" smooth="yes"/>
      <point x="25" y="90"/>
      <point x="113" y="-10"/>
    </contour>
    <contour>
      <point x="182" y="328" type="line"/>
      <point x="183" y="395"/>
      <point x="209" y="429"/>
      <point x="258" y="429" type="curve" smooth="yes"/>
      <point x="302" y="429"/>
      <point x="325" y="401"/>
      <point x="327" y="328" type="curve"/>
    </contour>
  </outline>
</glyph>
<glyph name="f" format="2">
  <advance width="500"/>
  <unicode hex="0066"/>
  <anchor x="250" y="0" name="bottom"/>
  <anchor x="308" y="766" name="top"/>
  <anchor x="480" y="766" name="topright"/>
  <outline>
    <contour>
      <point x="148" y="0" type="line"/>
      <point x="303" y="0" type="line"/>
      <point x="303" y="419" type="line"/>
      <point x="445" y="419" type="line"/>
      <point x="445" y="553" type="line"/>
      <point x="303" y="553" type="line"/>
      <point x="303" y="568" type="line" smooth="yes"/>
      <point x="303" y="610"/>
      <point x="327" y="628"/>
      <point x="370" y="628" type="curve" smooth="yes"/>
      <point x="390" y="628"/>
      <point x="410" y="624"/>
      <point x="437" y="612" type="curve"/>
      <point x="480" y="738" type="line"/>
      <point x="432" y="759"/>
      <point x="382" y="766"/>
      <point x="338" y="766" type="curve" smooth="yes"/>
      <point x="207" y="766"/>
      <point x="148" y="704"/>
      <point x="148" y="582" type="curve" smooth="yes"/>
      <point x="148" y="552" type="line"/>
      <point x="30" y="504" type="line"/>
      <point x="30" y="419" type="line"/>
      <point x="148" y="419" type="line"/>
    </contour>
  </outline>
</glyph>
<glyph name="h" format="2">
  <advance width="500"/>
  <unicode hex="0068"/>
  <anchor x="250" y="0" name="bottom"/>
  <anchor x="250" y="277" name="center"/>
  <anchor x="112" y="760" name="top"/>
  <anchor x="480" y="760" name="topright"/>
  <outline>
    <contour>
      <point x="35" y="0" type="line"/>
      <point x="190" y="0" type="line"/>
      <point x="190" y="278" type="line" smooth="yes"/>
      <point x="190" y="366"/>
      <point x="204" y="418"/>
      <point x="258" y="418" type="curve" smooth="yes"/>
      <point x="313" y="418"/>
      <point x="315" y="376"/>
      <point x="315" y="308" type="curve" smooth="yes"/>
      <point x="315" y="0" type="line"/>
      <point x="470" y="0" type="line"/>
      <point x="470" y="360" type="line" smooth="yes"/>
      <point x="470" y="489"/>
      <point x="412" y="563"/>
      <point x="314" y="563" type="curve" smooth="yes"/>
      <point x="251" y="563"/>
      <point x="208" y="532"/>
      <point x="186" y="484" type="curve"/>
      <point x="177" y="484" type="line"/>
      <point x="186" y="528"/>
      <point x="190" y="575"/>
      <point x="190" y="621" type="curve" smooth="yes"/>
      <point x="190" y="760" type="line"/>
      <point x="35" y="760" type="line"/>
    </contour>
  </outline>
</glyph>
<glyph name="j" format="2">
  <advance width="500"/>
  <unicode hex="006A"/>
  <anchor x="175" y="-245" name="bottom"/>
  <anchor x="291" y="774" name="top"/>
  <anchor x="480" y="774" name="topright"/>
  <outline>
    <contour>
      <point x="175" y="-245" type="curve" smooth="yes"/>
      <point x="323" y="-245"/>
      <point x="375" y="-179"/>
      <point x="375" y="-42" type="curve" smooth="yes"/>
      <point x="375" y="553" type="line"/>
      <point x="76" y="553" type="line"/>
      <point x="76" y="430" type="line"/>
      <point x="222" y="418" type="line"/>
      <point x="222" y="-8" type="line" smooth="yes"/>
      <point x="222" y="-83"/>
      <point x="209" y="-107"/>
      <point x="151" y="-107" type="curve" smooth="yes"/>
      <point x="128" y="-107"/>
      <point x="66" y="-101"/>
      <point x="25" y="-88" type="curve"/>
      <point x="25" y="-222" type="line"/>
      <point x="70" y="-238"/>
      <point x="135" y="-245"/>
    </contour>
    <contour>
      <point x="291" y="608" type="curve" smooth="yes"/>
      <point x="352" y="608"/>
      <point x="382" y="639"/>
      <point x="382" y="691" type="curve" smooth="yes"/>
      <point x="382" y="745"/>
      <point x="352" y="774"/>
      <point x="291" y="774" type="curve" smooth="yes"/>
      <point x="231" y="774"/>
      <point x="201" y="745"/>
      <point x="201" y="691" type="curve" smooth="yes"/>
      <point x="201" y="636"/>
      <point x="232" y="608"/>
    </contour>
  </outline>
</glyph>
<glyph name="l" format="2">
  <advance width="500"/>
  <unicode hex="006C"/>
  <anchor x="256" y="0" name="bottom"/>
  <anchor x="256" y="393" name="center"/>
  <anchor x="250" y="760" name="top"/>
  <anchor x="423" y="760" name="topright"/>
  <outline>
    <contour>
      <point x="35" y="0" type="line"/>
      <point x="465" y="0" type="line"/>
      <point x="465" y="113" type="line"/>
      <point x="329" y="132" type="line"/>
      <point x="329" y="760" type="line"/>
      <point x="59" y="760" type="line"/>
      <point x="59" y="643" type="line"/>
      <point x="177" y="633" type="line"/>
      <point x="177" y="132" type="line"/>
      <point x="35" y="113" type="line"/>
    </contour>
  </outline>
</glyph>
<glyph name="r" format="2">
  <advance width="500"/>
  <unicode hex="0072"/>
  <anchor x="213" y="0" name="bottom"/>
  <anchor x="271" y="553" name="top"/>
  <anchor x="480" y="553" name="topright"/>
  <outline>
    <contour>
      <point x="25" y="0" type="line"/>
      <point x="410" y="0" type="line"/>
      <point x="410" y="114" type="line"/>
      <point x="278" y="132" type="line"/>
      <point x="278" y="278" type="line" smooth="yes"/>
      <point x="278" y="353"/>
      <point x="312" y="398"/>
      <point x="376" y="398" type="curve" smooth="yes"/>
      <point x="399" y="398"/>
      <point x="430" y="392"/>
      <point x="451" y="381" type="curve"/>
      <point x="490" y="542" type="line"/>
      <point x="455" y="559"/>
      <point x="421" y="563"/>
      <point x="399" y="563" type="curve" smooth="yes"/>
      <point x="325" y="563"/>
      <point x="281" y="519"/>
      <point x="264" y="461" type="curve"/>
      <point x="256" y="461" type="line"/>
      <point x="242" y="553" type="line"/>
      <point x="36" y="553" type="line"/>
      <point x="36" y="431" type="line"/>
      <point x="133" y="419" type="line"/>
      <point x="133" y="132" type="line"/>
      <point x="25" y="114" type="line"/>
    </contour>
  </outline>
</glyph>
<glyph name="u" format="2">
  <advance width="500"/>
  <unicode hex="0075"/>
  <anchor x="250" y="0" name="bottom"/>
  <anchor x="450" y="10" name="ogonek"/>
  <anchor x="250" y="553" name="top"/>
  <anchor x="480" y="553" name="topright"/>
  <outline>
    <contour>
      <point x="185" y="-10" type="curve" smooth="yes"/>
      <point x="246" y="-10"/>
      <point x="286" y="17"/>
      <point x="311" y="69" type="curve"/>
      <point x="320" y="69" type="line"/>
      <point x="338" y="0" type="line"/>
      <point x="465" y="0" type="line"/>
      <point x="465" y="553" type="line"/>
      <point x="310" y="553" type="line"/>
      <point x="310" y="280" type="line" smooth="yes"/>
      <point x="310" y="169"/>
      <point x="297" y="129"/>
      <point x="246" y="129" type="curve" smooth="yes"/>
      <point x="200" y="129"/>
      <point x="185" y="167"/>
      <point x="185" y="240" type="curve" smooth="yes"/>
      <point x="185" y="553" type="line"/>
      <point x="30" y="553" type="line"/>
      <point x="30" y="193" type="line" smooth="yes"/>
      <point x="30" y="54"/>
      <point x="89" y="-10"/>
    </contour>
  </outline>
</glyph>
<glyph name="sterling" format="2">
  <advance width="500"/>
  <unicode hex="00A3"/>
  <outline>
    <contour>
      <point x="57" y="0" type="line"/>
      <point x="459" y="0" type="line"/>
      <point x="459" y="132" type="line"/>
      <point x="203" y="132" type="line"/>
      <point x="247" y="158"/>
      <point x="268" y="196"/>
      <point x="268" y="248" type="curve" smooth="yes"/>
      <point x="268" y="311" type="line"/>
      <point x="395" y="311" type="line"/>
      <point x="395" y="421" type="line"/>
      <point x="268" y="421" type="line"/>
      <point x="268" y="500" type="line" smooth="yes"/>
      <point x="268" y="568"/>
      <point x="303" y="591"/>
      <point x="335" y="591" type="curve" smooth="yes"/>
      <point x="362" y="591"/>
      <point x="393" y="582"/>
      <point x="429" y="563" type="curve"/>
      <point x="468" y="683" type="line"/>
      <point x="421" y="711"/>
      <point x="373" y="724"/>
      <point x="321" y="724" type="curve" smooth="yes"/>
      <point x="193" y="724"/>
      <point x="120" y="652"/>
      <point x="120" y="515" type="curve" smooth="yes"/>
      <point x="120" y="421" type="line"/>
      <point x="55" y="421" type="line"/>
      <point x="55" y="311" type="line"/>
      <point x="120" y="311" type="line"/>
      <point x="120" y="247" type="line" smooth="yes"/>
      <point x="120" y="181"/>
      <point x="101" y="155"/>
      <point x="57" y="126" type="curve"/>
    </contour>
  </outline>
</glyph>
<glyph name="yen" format="2">
  <advance width="500"/>
  <unicode hex="00A5"/>
  <outline>
    <contour>
      <point x="176" y="0" type="line"/>
      <point x="324" y="0" type="line"/>
      <point x="324" y="109" type="line"/>
      <point x="445" y="109" type="line"/>
      <point x="445" y="202" type="line"/>
      <point x="324" y="202" type="line"/>
      <point x="324" y="266" type="line"/>
      <point x="445" y="266" type="line"/>
      <point x="445" y="360" type="line"/>
      <point x="347" y="360" type="line"/>
      <point x="483" y="714" type="line"/>
      <point x="325" y="714" type="line"/>
      <point x="250" y="451" type="line"/>
      <point x="173" y="714" type="line"/>
      <point x="16" y="714" type="line"/>
      <point x="150" y="360" type="line"/>
      <point x="55" y="360" type="line"/>
      <point x="55" y="266" type="line"/>
      <point x="176" y="266" type="line"/>
      <point x="176" y="202" type="line"/>
      <point x="55" y="202" type="line"/>
      <point x="55" y="109" type="line"/>
      <point x="176" y="109" type="line"/>
    </contour>
  </outline>
</glyph>
<glyph name="registered" format="2">
  <advance width="500"/>
  <unicode hex="00AE"/>
  <outline>
    <contour>
      <point x="248" y="124" type="curve" smooth="yes"/>
      <point x="376" y="124"/>
      <point x="483" y="213"/>
      <point x="483" y="357" type="curve" smooth="yes"/>
      <point x="483" y="499"/>
      <point x="379" y="592"/>
      <point x="251" y="592" type="curve" smooth="yes"/>
      <point x="127" y="592"/>
      <point x="18" y="504"/>
      <point x="18" y="359" type="curve" smooth="yes"/>
      <point x="18" y="225"/>
      <point x="113" y="124"/>
    </contour>
    <contour>
      <point x="250" y="184" type="curve" smooth="yes"/>
      <point x="159" y="184"/>
      <point x="84" y="247"/>
      <point x="84" y="357" type="curve" smooth="yes"/>
      <point x="84" y="462"/>
      <point x="153" y="532"/>
      <point x="249" y="532" type="curve" smooth="yes"/>
      <point x="341" y="532"/>
      <point x="417" y="467"/>
      <point x="417" y="359" type="curve" smooth="yes"/>
      <point x="417" y="254"/>
      <point x="347" y="184"/>
    </contour>
    <contour>
      <point x="158" y="235" type="line"/>
      <point x="223" y="235" type="line"/>
      <point x="223" y="323" type="line"/>
      <point x="244" y="323" type="line"/>
      <point x="288" y="235" type="line"/>
      <point x="358" y="235" type="line"/>
      <point x="300" y="335" type="line"/>
      <point x="330" y="350"/>
      <point x="342" y="375"/>
      <point x="342" y="408" type="curve" smooth="yes"/>
      <point x="342" y="461"/>
      <point x="310" y="487"/>
      <point x="241" y="487" type="curve" smooth="yes"/>
      <point x="158" y="487" type="line"/>
    </contour>
    <contour>
      <point x="223" y="373" type="line"/>
      <point x="223" y="434" type="line"/>
      <point x="236" y="434" type="line" smooth="yes"/>
      <point x="265" y="434"/>
      <point x="277" y="426"/>
      <point x="277" y="406" type="curve" smooth="yes"/>
      <point x="277" y="382"/>
      <point x="261" y="373"/>
      <point x="236" y="373" type="curve" smooth="yes"/>
    </contour>
  </outline>
</glyph>
<glyph name="degree" format="2">
  <advance width="500"/>
  <unicode hex="00B0"/>
  <outline>
    <contour>
      <point x="249" y="426" type="curve" smooth="yes"/>
      <point x="331" y="426"/>
      <point x="399" y="482"/>
      <point x="399" y="574" type="curve" smooth="yes"/>
      <point x="399" y="665"/>
      <point x="332" y="724"/>
      <point x="249" y="724" type="curve" smooth="yes"/>
      <point x="167" y="724"/>
      <point x="100" y="666"/>
      <point x="100" y="575" type="curve" smooth="yes"/>
      <point x="100" y="483"/>
      <point x="167" y="426"/>
    </contour>
    <contour>
      <point x="249" y="509" type="curve" smooth="yes"/>
      <point x="213" y="509"/>
      <point x="185" y="534"/>
      <point x="185" y="575" type="curve" smooth="yes"/>
      <point x="185" y="614"/>
      <point x="212" y="640"/>
      <point x="249" y="640" type="curve" smooth="yes"/>
      <point x="285" y="640"/>
      <point x="314" y="615"/>
      <point x="314" y="575" type="curve" smooth="yes"/>
      <point x="314" y="534"/>
      <point x="285" y="509"/>
    </contour>
  </outline>
</glyph>
<glyph name="plusminus" format="2">
  <advance width="500"/>
  <unicode hex="00B1"/>
  <outline>
    <contour>
      <point x="190" y="164" type="line"/>
      <point x="311" y="164" type="line"/>
      <point x="311" y="345" type="line"/>
      <point x="460" y="345" type="line"/>
      <point x="460" y="464" type="line"/>
      <point x="311" y="464" type="line"/>
      <point x="311" y="647" type="line"/>
      <point x="190" y="647" type="line"/>
      <point x="190" y="464" type="line"/>
      <point x="40" y="464" type="line"/>
      <point x="40" y="345" type="line"/>
      <point x="190" y="345" type="line"/>
    </contour>
    <contour>
      <point x="40" y="0" type="line"/>
      <point x="460" y="0" type="line"/>
      <point x="460" y="118" type="line"/>
      <point x="40" y="118" type="line"/>
    </contour>
  </outline>
</glyph>
<glyph name="micro" format="2">
  <advance width="500"/>
  <unicode hex="00B5"/>
  <anchor x="250" y="553" name="top"/>
  <anchor x="450" y="10" name="ogonek"/>
  <anchor x="480" y="553" name="topright"/>
  <anchor x="250" y="0" name="bottom"/>
  <outline>
    <contour>
      <point x="30" y="-240" type="line"/>
      <point x="180" y="-240" type="line"/>
      <point x="180" y="227" type="line"/>
      <point x="30" y="227" type="line"/>
    </contour>
    <component base="u"/>
  </outline>
</glyph>
<glyph name="AE" format="2">
  <advance width="500"/>
  <unicode hex="00C6"/>
  <anchor x="250" y="0" name="bottom"/>
  <anchor x="275" y="714" name="top"/>
  <outline>
    <contour>
      <point x="5" y="0" type="line"/>
      <point x="143" y="0" type="line"/>
      <point x="235" y="582" type="line"/>
      <point x="255" y="582" type="line"/>
      <point x="255" y="0" type="line"/>
      <point x="485" y="0" type="line"/>
      <point x="485" y="140" type="line"/>
      <point x="382" y="140" type="line"/>
      <point x="382" y="299" type="line"/>
      <point x="465" y="299" type="line"/>
      <point x="465" y="439" type="line"/>
      <point x="382" y="439" type="line"/>
      <point x="382" y="574" type="line"/>
      <point x="485" y="574" type="line"/>
      <point x="485" y="714" type="line"/>
      <point x="133" y="714" type="line"/>
    </contour>
    <contour>
      <point x="137" y="150" type="line"/>
      <point x="285" y="150" type="line"/>
      <point x="285" y="289" type="line"/>
      <point x="157" y="289" type="line"/>
    </contour>
  </outline>
</glyph>
<glyph name="multiply" format="2">
  <advance width="500"/>
  <unicode hex="00D7"/>
  <outline>
    <contour>
      <point x="121" y="145" type="line"/>
      <point x="247" y="271" type="line"/>
      <point x="373" y="146" type="line"/>
      <point x="455" y="227" type="line"/>
      <point x="330" y="353" type="line"/>
      <point x="457" y="480" type="line"/>
      <point x="374" y="560" type="line"/>
      <point x="247" y="437" type="line"/>
      <point x="122" y="560" type="line"/>
      <point x="42" y="477" type="line"/>
      <point x="165" y="353" type="line"/>
      <point x="42" y="229" type="line"/>
    </contour>
  </outline>
</glyph>
<glyph name="ae" format="2">
  <advance width="500"/>
  <unicode hex="00E6"/>
  <anchor x="250" y="0" name="bottom"/>
  <anchor x="250" y="553" name="top"/>
  <outline>
    <contour>
      <point x="137" y="-10" type="curve" smooth="yes"/>
      <point x="189" y="-10"/>
      <point x="219" y="15"/>
      <point x="252" y="72" type="curve"/>
      <point x="286" y="15"/>
      <point x="328" y="-10"/>
      <point x="381" y="-10" type="curve" smooth="yes"/>
      <point x="419" y="-10"/>
      <point x="450" y="3"/>
      <point x="476" y="29" type="curve"/>
      <point x="476" y="159" type="line"/>
      <point x="449" y="134"/>
      <point x="430" y="122"/>
      <point x="404" y="122" type="curve" smooth="yes"/>
      <point x="357" y="122"/>
      <point x="323" y="160"/>
      <point x="323" y="231" type="curve"/>
      <point x="495" y="231" type="line"/>
      <point x="495" y="282" type="line" smooth="yes"/>
      <point x="495" y="448"/>
      <point x="464" y="563"/>
      <point x="357" y="563" type="curve" smooth="yes"/>
      <point x="321" y="563"/>
      <point x="289" y="545"/>
      <point x="259" y="509" type="curve"/>
      <point x="233" y="544"/>
      <point x="194" y="563"/>
      <point x="152" y="563" type="curve" smooth="yes"/>
      <point x="109" y="563"/>
      <point x="61" y="548"/>
      <point x="19" y="519" type="curve"/>
      <point x="66" y="416" type="line"/>
      <point x="89" y="430"/>
      <point x="112" y="436"/>
      <point x="134" y="436" type="curve" smooth="yes"/>
      <point x="164" y="436"/>
      <point x="192" y="424"/>
      <point x="192" y="373" type="curve" smooth="yes"/>
      <point x="192" y="340" type="line"/>
      <point x="145" y="337" type="line" smooth="yes"/>
      <point x="52" y="331"/>
      <point x="5" y="276"/>
      <point x="5" y="167" type="curve" smooth="yes"/>
      <point x="5" y="60"/>
      <point x="51" y="-10"/>
    </contour>
    <contour>
      <point x="159" y="123" type="curve" smooth="yes"/>
      <point x="139" y="123"/>
      <point x="129" y="144"/>
      <point x="129" y="177" type="curve" smooth="yes"/>
      <point x="129" y="218"/>
      <point x="145" y="238"/>
      <point x="171" y="238" type="curve" smooth="yes"/>
      <point x="191" y="238" type="line"/>
      <point x="191" y="205" type="line" smooth="yes"/>
      <point x="191" y="149"/>
      <point x="182" y="123"/>
    </contour>
    <contour>
      <point x="324" y="335" type="line"/>
      <point x="324" y="410"/>
      <point x="334" y="430"/>
      <point x="352" y="430" type="curve" smooth="yes"/>
      <point x="369" y="430"/>
      <point x="379" y="410"/>
      <point x="379" y="335" type="curve"/>
    </contour>
  </outline>
</glyph>
<glyph name="eogonek" format="2">
  <advance width="500"/>
  <unicode hex="0119"/>
  <anchor x="260" y="-240" name="bottom"/>
  <anchor x="250" y="553" name="top"/>
  <anchor x="262" y="10" name="ogonek"/>
  <anchor x="497" y="553" name="topright"/>
  <outline>
    <contour>
      <point x="365" y="-240" type="curve" smooth="yes"/>
      <point x="395" y="-240"/>
      <point x="419" y="-233"/>
      <point x="434" y="-226" type="curve"/>
      <point x="434" y="-136" type="line"/>
      <point x="424" y="-141"/>
      <point x="413" y="-145"/>
      <point x="399" y="-145" type="curve" smooth="yes"/>
      <point x="370" y="-145"/>
      <point x="355" y="-128"/>
      <point x="355" y="-98" type="curve" smooth="yes"/>
      <point x="355" y="-63"/>
      <point x="376" y="-33"/>
      <point x="447" y="30" type="curve"/>
      <point x="385" y="46" type="line"/>
      <point x="316" y="5"/>
      <point x="246" y="-38"/>
      <point x="246" y="-124" type="curve" smooth="yes"/>
      <point x="246" y="-192"/>
      <point x="286" y="-240"/>
    </contour>
    <component base="e"/>
  </outline>
</glyph>
<glyph name="IJ" format="2">
  <advance width="500"/>
  <unicode hex="0132"/>
  <anchor x="250" y="0" name="bottom"/>
  <anchor x="0" y="0" name="caret_1"/>
  <anchor x="250" y="714" name="top"/>
  <anchor x="20" y="714" name="topleft"/>
  <outline>
    <contour>
      <point x="194" y="-9" type="curve" smooth="yes"/>
      <point x="363" y="-9"/>
      <point x="445" y="99"/>
      <point x="445" y="264" type="curve" smooth="yes"/>
      <point x="445" y="714" type="line"/>
      <point x="293" y="714" type="line"/>
      <point x="293" y="305" type="line" smooth="yes"/>
      <point x="293" y="170"/>
      <point x="245" y="132"/>
      <point x="169" y="132" type="curve" smooth="yes"/>
      <point x="145" y="132"/>
      <point x="101" y="136"/>
      <point x="55" y="148" type="curve"/>
      <point x="55" y="10" type="line"/>
      <point x="108" y="-3"/>
      <point x="154" y="-9"/>
    </contour>
    <contour>
      <point x="55" y="224" type="line"/>
      <point x="207" y="224" type="line"/>
      <point x="207" y="714" type="line"/>
      <point x="55" y="714" type="line"/>
    </contour>
  </outline>
</glyph>
<glyph name="ij" format="2">
  <advance width="500"/>
  <unicode hex="0133"/>
  <anchor x="266" y="-245" name="bottom"/>
  <anchor x="0" y="0" name="caret_1"/>
  <anchor x="256" y="774" name="top"/>
  <outline>
    <contour>
      <point x="250" y="-245" type="curve" smooth="yes"/>
      <point x="391" y="-245"/>
      <point x="443" y="-175"/>
      <point x="443" y="-42" type="curve" smooth="yes"/>
      <point x="443" y="553" type="line"/>
      <point x="290" y="553" type="line"/>
      <point x="290" y="-8" type="line" smooth="yes"/>
      <point x="290" y="-80"/>
      <point x="275" y="-107"/>
      <point x="216" y="-107" type="curve" smooth="yes"/>
      <point x="188" y="-107"/>
      <point x="151" y="-101"/>
      <point x="113" y="-88" type="curve"/>
      <point x="113" y="-222" type="line"/>
      <point x="158" y="-238"/>
      <point x="206" y="-245"/>
    </contour>
    <contour>
      <point x="63" y="0" type="line"/>
      <point x="215" y="0" type="line"/>
      <point x="215" y="553" type="line"/>
      <point x="63" y="553" type="line"/>
    </contour>
    <contour>
      <point x="140" y="608" type="curve" smooth="yes"/>
      <point x="201" y="608"/>
      <point x="227" y="639"/>
      <point x="227" y="691" type="curve" smooth="yes"/>
      <point x="227" y="745"/>
      <point x="199" y="774"/>
      <point x="140" y="774" type="curve" smooth="yes"/>
      <point x="80" y="774"/>
      <point x="50" y="745"/>
      <point x="50" y="691" type="curve" smooth="yes"/>
      <point x="50" y="636"/>
      <point x="82" y="608"/>
    </contour>
    <contour>
      <point x="359" y="608" type="curve" smooth="yes"/>
      <point x="420" y="608"/>
      <point x="450" y="639"/>
      <point x="450" y="692" type="curve" smooth="yes"/>
      <point x="450" y="745"/>
      <point x="420" y="774"/>
      <point x="359" y="774" type="curve" smooth="yes"/>
      <point x="299" y="774"/>
      <point x="269" y="745"/>
      <point x="269" y="691" type="curve" smooth="yes"/>
      <point x="269" y="636"/>
      <point x="300" y="608"/>
    </contour>
  </outline>
</glyph>
<glyph name="kgreenlandic" format="2">
  <advance width="500"/>
  <unicode hex="0138"/>
  <anchor x="250" y="0" name="bottom"/>
  <anchor x="250" y="553" name="top"/>
  <outline>
    <contour>
      <point x="35" y="0" type="line"/>
      <point x="185" y="0" type="line"/>
      <point x="185" y="171" type="line"/>
      <point x="219" y="192" type="line"/>
      <point x="317" y="0" type="line"/>
      <point x="495" y="0" type="line"/>
      <point x="326" y="285" type="line"/>
      <point x="494" y="553" type="line"/>
      <point x="322" y="553" type="line"/>
      <point x="227" y="396" type="line" smooth="yes"/>
      <point x="210" y="368"/>
      <point x="193" y="340"/>
      <point x="177" y="312" type="curve"/>
      <point x="175" y="312" type="line"/>
      <point x="179" y="356"/>
      <point x="185" y="409"/>
      <point x="185" y="454" type="curve" smooth="yes"/>
      <point x="185" y="553" type="line"/>
      <point x="35" y="553" type="line"/>
    </contour>
  </outline>
</glyph>
<glyph name="Tbar" format="2">
  <advance width="500"/>
  <unicode hex="0166"/>
  <anchor x="250" y="0" name="bottom"/>
  <anchor x="250" y="714" name="top"/>
  <anchor x="480" y="714" name="topright"/>
  <anchor x="250" y="357" name="center"/>
  <outline>
    <contour>
      <point x="89" y="292" type="line"/>
      <point x="411" y="292" type="line"/>
      <point x="411" y="406" type="line"/>
      <point x="89" y="406" type="line"/>
    </contour>
    <component base="T"/>
  </outline>
</glyph>
<glyph name="Uogonek" format="2">
  <advance width="500"/>
  <unicode hex="0172"/>
  <anchor x="287" y="-240" name="bottom"/>
  <anchor x="250" y="714" name="top"/>
  <anchor x="450" y="10" name="ogonek"/>
  <anchor x="480" y="714" name="topright"/>
  <outline>
    <contour>
      <point x="278" y="-240" type="curve" smooth="yes"/>
      <point x="310" y="-240"/>
      <point x="333" y="-233"/>
      <point x="348" y="-226" type="curve"/>
      <point x="348" y="-136" type="line"/>
      <point x="338" y="-141"/>
      <point x="327" y="-145"/>
      <point x="313" y="-145" type="curve" smooth="yes"/>
      <point x="282" y="-145"/>
      <point x="269" y="-127"/>
      <point x="269" y="-102" type="curve" smooth="yes"/>
      <point x="269" y="-61"/>
      <point x="302" y="-24"/>
      <point x="366" y="17" type="curve"/>
      <point x="287" y="32" type="line"/>
      <point x="199" y="-6"/>
      <point x="160" y="-67"/>
      <point x="160" y="-133" type="curve" smooth="yes"/>
      <point x="160" y="-200"/>
      <point x="201" y="-240"/>
    </contour>
    <component base="U"/>
  </outline>
</glyph>
<glyph name="uni0188" format="2">
  <advance width="500"/>
  <unicode hex="0188"/>
  <anchor x="250" y="0" name="bottom"/>
  <anchor x="250" y="764" name="top"/>
  <anchor x="480" y="553" name="topright"/>
  <outline>
    <contour>
      <point x="338" y="521" type="line"/>
      <point x="469" y="521" type="line"/>
      <point x="469" y="590" type="line" smooth="yes"/>
      <point x="469" y="627"/>
      <point x="483" y="642"/>
      <point x="505" y="642" type="curve" smooth="yes"/>
      <point x="524" y="642"/>
      <point x="539" y="636"/>
      <point x="549" y="632" type="curve"/>
      <point x="549" y="748" type="line"/>
      <point x="540" y="754"/>
      <point x="513" y="764"/>
      <point x="476" y="764" type="curve" smooth="yes"/>
      <point x="397" y="764"/>
      <point x="338" y="712"/>
      <point x="338" y="596" type="curve" smooth="yes"/>
    </contour>
    <component base="c"/>
  </outline>
</glyph>
<glyph name="uni0195" format="2">
  <advance width="500"/>
  <unicode hex="0195"/>
  <anchor x="255" y="0" name="bottom"/>
  <anchor x="101" y="760" name="top"/>
  <outline>
    <contour>
      <point x="329" y="-14" type="curve" smooth="yes"/>
      <point x="421" y="-14"/>
      <point x="462" y="39"/>
      <point x="462" y="125" type="curve" smooth="yes"/>
      <point x="462" y="553" type="line"/>
      <point x="344" y="553" type="line"/>
      <point x="344" y="133" type="line" smooth="yes"/>
      <point x="344" y="118"/>
      <point x="338" y="110"/>
      <point x="329" y="110" type="curve" smooth="yes"/>
      <point x="319" y="110"/>
      <point x="315" y="119"/>
      <point x="315" y="133" type="curve" smooth="yes"/>
      <point x="315" y="446" type="line" smooth="yes"/>
      <point x="315" y="535"/>
      <point x="282" y="563"/>
      <point x="235" y="563" type="curve" smooth="yes"/>
      <point x="196" y="563"/>
      <point x="171" y="544"/>
      <point x="160" y="512" type="curve"/>
      <point x="155" y="512" type="line"/>
      <point x="160" y="549"/>
      <point x="162" y="575"/>
      <point x="162" y="621" type="curve" smooth="yes"/>
      <point x="162" y="760" type="line"/>
      <point x="43" y="760" type="line"/>
      <point x="43" y="0" type="line"/>
      <point x="161" y="0" type="line"/>
      <point x="161" y="401" type="line" smooth="yes"/>
      <point x="161" y="428"/>
      <point x="169" y="437"/>
      <point x="181" y="437" type="curve" smooth="yes"/>
      <point x="192" y="437"/>
      <point x="197" y="429"/>
      <point x="197" y="411" type="curve" smooth="yes"/>
      <point x="197" y="124" type="line" smooth="yes"/>
      <point x="197" y="39"/>
      <point x="237" y="-14"/>
    </contour>
  </outline>
</glyph>
<glyph name="uni019A" format="2">
  <advance width="500"/>
  <unicode hex="019A"/>
  <anchor x="250" y="0" name="bottom"/>
  <anchor x="250" y="760" name="top"/>
  <anchor x="423" y="760" name="topright"/>
  <anchor x="256" y="393" name="center"/>
  <outline>
    <contour>
      <point x="70" y="320" type="line"/>
      <point x="433" y="320" type="line"/>
      <point x="433" y="435" type="line"/>
      <point x="70" y="435" type="line"/>
    </contour>
    <component base="l"/>
  </outline>
</glyph>
<glyph name="uni019B" format="2">
  <advance width="500"/>
  <unicode hex="019B"/>
  <anchor x="260" y="0" name="bottom"/>
  <anchor x="266" y="766" name="top"/>
  <outline>
    <contour>
      <point x="97" y="494" type="line"/>
      <point x="380" y="603" type="line"/>
      <point x="342" y="700" type="line"/>
      <point x="59" y="592" type="line"/>
    </contour>
    <component base="lambda"/>
  </outline>
</glyph>
<glyph name="uni019C" format="2">
  <advance width="500"/>
  <unicode hex="019C"/>
  <anchor x="250" y="0" name="bottom"/>
  <anchor x="250" y="357" name="center"/>
  <anchor x="250" y="714" name="top"/>
  <anchor x="20" y="714" name="topleft"/>
  <outline>
    <contour>
      <point x="96" y="-10" type="curve" smooth="yes"/>
      <point x="147" y="-10"/>
      <point x="168" y="23"/>
      <point x="189" y="70" type="curve"/>
      <point x="193" y="70" type="line"/>
      <point x="205" y="17"/>
      <point x="225" y="-10"/>
      <point x="274" y="-10" type="curve" smooth="yes"/>
      <point x="310" y="-10"/>
      <point x="337" y="5"/>
      <point x="354" y="59" type="curve"/>
      <point x="358" y="59" type="line"/>
      <point x="377" y="0" type="line"/>
      <point x="489" y="0" type="line"/>
      <point x="489" y="714" type="line"/>
      <point x="364" y="714" type="line"/>
      <point x="364" y="177" type="line" smooth="yes"/>
      <point x="364" y="134"/>
      <point x="360" y="109"/>
      <point x="336" y="109" type="curve" smooth="yes"/>
      <point x="310" y="109"/>
      <point x="309" y="137"/>
      <point x="309" y="178" type="curve" smooth="yes"/>
      <point x="309" y="714" type="line"/>
      <point x="190" y="714" type="line"/>
      <point x="190" y="176" type="line" smooth="yes"/>
      <point x="190" y="147"/>
      <point x="188" y="109"/>
      <point x="160" y="109" type="curve" smooth="yes"/>
      <point x="135" y="109"/>
      <point x="134" y="138"/>
      <point x="134" y="175" type="curve" smooth="yes"/>
      <point x="134" y="714" type="line"/>
      <point x="10" y="714" type="line"/>
      <point x="10" y="198" type="line" smooth="yes"/>
      <point x="10" y="69"/>
      <point x="16" y="-10"/>
    </contour>
  </outline>
</glyph>
<glyph name="uni01A2" format="2">
  <advance width="500"/>
  <unicode hex="01A2"/>
  <anchor x="90" y="0" name="bottom"/>
  <anchor x="107" y="10" name="ogonek"/>
  <anchor x="282" y="714" name="top"/>
  <anchor x="-141" y="714" name="topleft"/>
  <anchor x="718" y="714" name="topright"/>
  <outline>
    <contour>
      <point x="90" y="-10" type="curve" smooth="yes"/>
      <point x="277" y="-10"/>
      <point x="372" y="125"/>
      <point x="372" y="358" type="curve" smooth="yes"/>
      <point x="372" y="555"/>
      <point x="292" y="725"/>
      <point x="90" y="725" type="curve" smooth="yes"/>
      <point x="-96" y="725"/>
      <point x="-194" y="598"/>
      <point x="-194" y="359" type="curve" smooth="yes"/>
      <point x="-194" y="126"/>
      <point x="-98" y="-10"/>
    </contour>
    <contour>
      <point x="90" y="125" type="curve" smooth="yes"/>
      <point x="8" y="125"/>
      <point x="-35" y="203"/>
      <point x="-35" y="358" type="curve" smooth="yes"/>
      <point x="-35" y="514"/>
      <point x="8" y="593"/>
      <point x="90" y="593" type="curve" smooth="yes"/>
      <point x="171" y="593"/>
      <point x="213" y="517"/>
      <point x="213" y="358" type="curve" smooth="yes"/>
      <point x="213" y="199"/>
      <point x="172" y="125"/>
    </contour>
    <contour>
      <point x="542" y="0" type="line"/>
      <point x="694" y="0" type="line"/>
      <point x="694" y="489" type="line" smooth="yes"/>
      <point x="694" y="669"/>
      <point x="606" y="724"/>
      <point x="478" y="724" type="curve" smooth="yes"/>
      <point x="398" y="724"/>
      <point x="322" y="694"/>
      <point x="257" y="623" type="curve"/>
      <point x="307" y="542" type="line"/>
      <point x="339" y="574"/>
      <point x="382" y="591"/>
      <point x="423" y="591" type="curve" smooth="yes"/>
      <point x="506" y="591"/>
      <point x="542" y="556"/>
      <point x="542" y="459" type="curve" smooth="yes"/>
    </contour>
  </outline>
</glyph>
<glyph name="uni01AE" format="2">
  <advance width="500"/>
  <unicode hex="01AE"/>
  <anchor x="312" y="-240" name="bottom"/>
  <anchor x="250" y="714" name="top"/>
  <outline>
    <contour>
      <point x="356" y="-240" type="curve" smooth="yes"/>
      <point x="385" y="-240"/>
      <point x="410" y="-237"/>
      <point x="436" y="-230" type="curve"/>
      <point x="436" y="-86" type="line"/>
      <point x="420" y="-92"/>
      <point x="405" y="-96"/>
      <point x="385" y="-96" type="curve" smooth="yes"/>
      <point x="332" y="-96"/>
      <point x="327" y="-68"/>
      <point x="327" y="-16" type="curve" smooth="yes"/>
      <point x="327" y="574" type="line"/>
      <point x="485" y="574" type="line"/>
      <point x="485" y="714" type="line"/>
      <point x="15" y="714" type="line"/>
      <point x="15" y="574" type="line"/>
      <point x="174" y="574" type="line"/>
      <point x="174" y="-22" type="line" smooth="yes"/>
      <point x="174" y="-177"/>
      <point x="223" y="-240"/>
    </contour>
  </outline>
</glyph>
<glyph name="uni01BD" format="2">
  <advance width="500"/>
  <unicode hex="01BD"/>
  <anchor x="250" y="0" name="bottom"/>
  <anchor x="250" y="553" name="top"/>
  <outline>
    <contour>
      <point x="212" y="-10" type="curve" smooth="yes"/>
      <point x="381" y="-10"/>
      <point x="453" y="73"/>
      <point x="453" y="189" type="curve" smooth="yes"/>
      <point x="453" y="300"/>
      <point x="385" y="352"/>
      <point x="281" y="352" type="curve" smooth="yes"/>
      <point x="269" y="352" type="line"/>
      <point x="269" y="418" type="line"/>
      <point x="444" y="418" type="line"/>
      <point x="444" y="553" type="line"/>
      <point x="34" y="553" type="line"/>
      <point x="34" y="418" type="line"/>
      <point x="119" y="418" type="line"/>
      <point x="119" y="228" type="line"/>
      <point x="191" y="228" type="line" smooth="yes"/>
      <point x="263" y="228"/>
      <point x="290" y="214"/>
      <point x="290" y="181" type="curve" smooth="yes"/>
      <point x="290" y="147"/>
      <point x="266" y="128"/>
      <point x="186" y="128" type="curve" smooth="yes"/>
      <point x="129" y="128"/>
      <point x="76" y="144"/>
      <point x="34" y="162" type="curve"/>
      <point x="34" y="20" type="line"/>
      <point x="76" y="3"/>
      <point x="136" y="-10"/>
    </contour>
  </outline>
</glyph>
<glyph name="uni01C0" format="2">
  <advance width="500"/>
  <unicode hex="01C0"/>
  <anchor x="250" y="0" name="bottom"/>
  <anchor x="250" y="760" name="top"/>
  <outline>
    <contour>
      <point x="186" y="0" type="line"/>
      <point x="314" y="0" type="line"/>
      <point x="314" y="760" type="line"/>
      <point x="186" y="760" type="line"/>
    </contour>
  </outline>
</glyph>
<glyph name="uni0222" format="2">
  <advance width="500"/>
  <unicode hex="0222"/>
  <anchor x="250" y="0" name="bottom"/>
  <anchor x="250" y="714" name="top"/>
  <outline>
    <contour>
      <point x="249" y="-10" type="curve" smooth="yes"/>
      <point x="393" y="-10"/>
      <point x="468" y="69"/>
      <point x="468" y="233" type="curve" smooth="yes"/>
      <point x="468" y="339"/>
      <point x="434" y="401"/>
      <point x="380" y="427" type="curve"/>
      <point x="424" y="456"/>
      <point x="441" y="499"/>
      <point x="441" y="567" type="curve" smooth="yes"/>
      <point x="441" y="714" type="line"/>
      <point x="298" y="714" type="line"/>
      <point x="298" y="571" type="line" smooth="yes"/>
      <point x="298" y="504"/>
      <point x="281" y="481"/>
      <point x="249" y="481" type="curve" smooth="yes"/>
      <point x="218" y="481"/>
      <point x="199" y="505"/>
      <point x="199" y="570" type="curve" smooth="yes"/>
      <point x="199" y="714" type="line"/>
      <point x="56" y="714" type="line"/>
      <point x="56" y="563" type="line" smooth="yes"/>
      <point x="56" y="495"/>
      <point x="74" y="453"/>
      <point x="116" y="425" type="curve"/>
      <point x="67" y="399"/>
      <point x="30" y="337"/>
      <point x="30" y="234" type="curve" smooth="yes"/>
      <point x="30" y="70"/>
      <point x="108" y="-10"/>
    </contour>
    <contour>
      <point x="249" y="121" type="curve" smooth="yes"/>
      <point x="204" y="121"/>
      <point x="178" y="156"/>
      <point x="178" y="241" type="curve" smooth="yes"/>
      <point x="178" y="318"/>
      <point x="204" y="353"/>
      <point x="249" y="353" type="curve" smooth="yes"/>
      <point x="294" y="353"/>
      <point x="319" y="320"/>
      <point x="319" y="241" type="curve" smooth="yes"/>
      <point x="319" y="154"/>
      <point x="295" y="121"/>
    </contour>
  </outline>
</glyph>
<glyph name="jdotless" format="2">
  <advance width="500"/>
  <unicode hex="0237"/>
  <anchor x="250" y="-245" name="bottom"/>
  <anchor x="296" y="553" name="top"/>
  <outline>
    <contour>
      <point x="175" y="-245" type="curve" smooth="yes"/>
      <point x="323" y="-245"/>
      <point x="375" y="-179"/>
      <point x="375" y="-42" type="curve" smooth="yes"/>
      <point x="375" y="553" type="line"/>
      <point x="76" y="553" type="line"/>
      <point x="76" y="430" type="line"/>
      <point x="222" y="418" type="line"/>
      <point x="222" y="-8" type="line" smooth="yes"/>
      <point x="222" y="-83"/>
      <point x="209" y="-107"/>
      <point x="151" y="-107" type="curve" smooth="yes"/>
      <point x="128" y="-107"/>
      <point x="66" y="-101"/>
      <point x="25" y="-88" type="curve"/>
      <point x="25" y="-222" type="line"/>
      <point x="70" y="-238"/>
      <point x="135" y="-245"/>
    </contour>
  </outline>
</glyph>
<glyph name="uni023B" format="2">
  <advance width="500"/>
  <unicode hex="023B"/>
  <anchor x="250" y="-75" name="bottom"/>
  <anchor x="270" y="760" name="top"/>
  <anchor x="480" y="714" name="topright"/>
  <outline>
    <contour>
      <point x="211" y="-75" type="line"/>
      <point x="268" y="-75" type="line"/>
      <point x="390" y="760" type="line"/>
      <point x="333" y="760" type="line"/>
    </contour>
    <component base="C"/>
  </outline>
</glyph>
<glyph name="uni023C" format="2">
  <advance width="500"/>
  <unicode hex="023C"/>
  <anchor x="250" y="-208" name="bottom"/>
  <anchor x="280" y="760" name="top"/>
  <anchor x="480" y="553" name="topright"/>
  <outline>
    <contour>
      <point x="144" y="-208" type="line"/>
      <point x="231" y="-208" type="line"/>
      <point x="483" y="760" type="line"/>
      <point x="396" y="760" type="line"/>
    </contour>
    <component base="c"/>
  </outline>
</glyph>
<glyph name="uni0241" format="2">
  <advance width="500"/>
  <unicode hex="0241"/>
  <anchor x="217" y="0" name="bottom"/>
  <anchor x="217" y="714" name="top"/>
  <outline>
    <contour>
      <point x="136" y="0" type="line"/>
      <point x="298" y="0" type="line"/>
      <point x="298" y="239" type="line"/>
      <point x="413" y="294"/>
      <point x="470" y="371"/>
      <point x="470" y="489" type="curve" smooth="yes"/>
      <point x="470" y="638"/>
      <point x="382" y="724"/>
      <point x="217" y="724" type="curve" smooth="yes"/>
      <point x="134" y="724"/>
      <point x="53" y="693"/>
      <point x="9" y="661" type="curve"/>
      <point x="61" y="532" type="line"/>
      <point x="94" y="556"/>
      <point x="145" y="578"/>
      <point x="198" y="578" type="curve" smooth="yes"/>
      <point x="268" y="578"/>
      <point x="301" y="539"/>
      <point x="301" y="472" type="curve" smooth="yes"/>
      <point x="301" y="393"/>
      <point x="249" y="350"/>
      <point x="136" y="305" type="curve"/>
    </contour>
  </outline>
</glyph>
<glyph name="uni024F" format="2">
  <advance width="500"/>
  <unicode hex="024F"/>
  <anchor x="250" y="-245" name="bottom"/>
  <anchor x="250" y="553" name="top"/>
  <anchor x="480" y="553" name="topright"/>
  <outline>
    <contour>
      <point x="5" y="308" type="line"/>
      <point x="496" y="308" type="line"/>
      <point x="496" y="398" type="line"/>
      <point x="5" y="398" type="line"/>
    </contour>
    <component base="y"/>
  </outline>
</glyph>
<glyph name="uni0256" format="2">
  <advance width="500"/>
  <unicode hex="0256"/>
  <anchor x="250" y="-240" name="bottom"/>
  <anchor x="250" y="760" name="top"/>
  <outline>
    <contour>
      <point x="455" y="-240" type="curve" smooth="yes"/>
      <point x="499" y="-240"/>
      <point x="539" y="-230"/>
      <point x="571" y="-209" type="curve"/>
      <point x="571" y="-79" type="line"/>
      <point x="546" y="-93"/>
      <point x="528" y="-100"/>
      <point x="504" y="-100" type="curve" smooth="yes"/>
      <point x="478" y="-100"/>
      <point x="465" y="-84"/>
      <point x="465" y="-52" type="curve" smooth="yes"/>
      <point x="465" y="760" type="line"/>
      <point x="315" y="760" type="line"/>
      <point x="315" y="588" type="line" smooth="yes"/>
      <point x="315" y="557"/>
      <point x="316" y="522"/>
      <point x="320" y="482" type="curve"/>
      <point x="315" y="482" type="line"/>
      <point x="289" y="536"/>
      <point x="253" y="563"/>
      <point x="190" y="563" type="curve" smooth="yes"/>
      <point x="91" y="563"/>
      <point x="20" y="455"/>
      <point x="20" y="278" type="curve" smooth="yes"/>
      <point x="20" y="91"/>
      <point x="85" y="-10"/>
      <point x="190" y="-10" type="curve" smooth="yes"/>
      <point x="252" y="-10"/>
      <point x="280" y="8"/>
      <point x="315" y="54" type="curve"/>
      <point x="320" y="54" type="line"/>
      <point x="316" y="29"/>
      <point x="315" y="5"/>
      <point x="315" y="-20" type="curve" smooth="yes"/>
      <point x="315" y="-54" type="line" smooth="yes"/>
      <point x="315" y="-188"/>
      <point x="363" y="-240"/>
    </contour>
    <contour>
      <point x="243" y="128" type="curve" smooth="yes"/>
      <point x="197" y="128"/>
      <point x="173" y="173"/>
      <point x="173" y="276" type="curve" smooth="yes"/>
      <point x="173" y="375"/>
      <point x="197" y="424"/>
      <point x="249" y="424" type="curve" smooth="yes"/>
      <point x="296" y="424"/>
      <point x="316" y="386"/>
      <point x="316" y="297" type="curve" smooth="yes"/>
      <point x="316" y="266" type="line" smooth="yes"/>
      <point x="316" y="168"/>
      <point x="294" y="128"/>
    </contour>
  </outline>
</glyph>
<glyph name="uni025E" format="2">
  <advance width="500"/>
  <unicode hex="025E"/>
  <anchor x="250" y="0" name="bottom"/>
  <anchor x="250" y="553" name="top"/>
  <outline>
    <contour>
      <point x="268" y="-10" type="curve" smooth="yes"/>
      <point x="404" y="-10"/>
      <point x="477" y="59"/>
      <point x="477" y="161" type="curve" smooth="yes"/>
      <point x="477" y="234"/>
      <point x="440" y="273"/>
      <point x="377" y="287" type="curve"/>
      <point x="377" y="292" type="line"/>
      <point x="426" y="308"/>
      <point x="458" y="353"/>
      <point x="458" y="416" type="curve" smooth="yes"/>
      <point x="458" y="504"/>
      <point x="394" y="563"/>
      <point x="271" y="563" type="curve" smooth="yes"/>
      <point x="111" y="563"/>
      <point x="25" y="464"/>
      <point x="25" y="274" type="curve" smooth="yes"/>
      <point x="25" y="104"/>
      <point x="94" y="-10"/>
    </contour>
    <contour>
      <point x="267" y="115" type="curve" smooth="yes"/>
      <point x="204" y="115"/>
      <point x="172" y="170"/>
      <point x="172" y="278" type="curve" smooth="yes"/>
      <point x="172" y="387"/>
      <point x="205" y="441"/>
      <point x="262" y="441" type="curve" smooth="yes"/>
      <point x="290" y="441"/>
      <point x="318" y="426"/>
      <point x="318" y="391" type="curve" smooth="yes"/>
      <point x="318" y="359"/>
      <point x="295" y="343"/>
      <point x="271" y="343" type="curve" smooth="yes"/>
      <point x="247" y="343" type="line"/>
      <point x="247" y="225" type="line"/>
      <point x="278" y="225" type="line" smooth="yes"/>
      <point x="308" y="225"/>
      <point x="330" y="207"/>
      <point x="330" y="172" type="curve" smooth="yes"/>
      <point x="330" y="132"/>
      <point x="300" y="115"/>
    </contour>
  </outline>
</glyph>
<glyph name="uni0263" format="2">
  <advance width="500"/>
  <unicode hex="0263"/>
  <anchor x="250" y="-240" name="bottom"/>
  <anchor x="250" y="553" name="top"/>
  <outline>
    <contour>
      <point x="239" y="-240" type="curve"/>
      <point x="332" y="-240"/>
      <point x="384" y="-172"/>
      <point x="384" y="-88" type="curve"/>
      <point x="384" y="-39"/>
      <point x="366" y="32"/>
      <point x="329" y="107" type="curve"/>
      <point x="494" y="553" type="line"/>
      <point x="315" y="553" type="line"/>
      <point x="266" y="355" type="line" smooth="yes"/>
      <point x="257" y="319"/>
      <point x="246" y="265"/>
      <point x="247" y="232" type="curve"/>
      <point x="243" y="232" type="line"/>
      <point x="243" y="264"/>
      <point x="234" y="327"/>
      <point x="228" y="354" type="curve" smooth="yes"/>
      <point x="181" y="553" type="line"/>
      <point x="3" y="553" type="line"/>
      <point x="152" y="123" type="line"/>
      <point x="114" y="35"/>
      <point x="96" y="-24"/>
      <point x="96" y="-86" type="curve"/>
      <point x="96" y="-177"/>
      <point x="146" y="-240"/>
    </contour>
    <contour>
      <point x="240" y="-137" type="curve"/>
      <point x="227" y="-137"/>
      <point x="222" y="-121"/>
      <point x="222" y="-86" type="curve"/>
      <point x="222" y="-67"/>
      <point x="223" y="-24"/>
      <point x="240" y="15" type="curve"/>
      <point x="257" y="-27"/>
      <point x="258" y="-68"/>
      <point x="258" y="-88" type="curve"/>
      <point x="258" y="-121"/>
      <point x="253" y="-137"/>
    </contour>
  </outline>
</glyph>
<glyph name="uni026B" format="2">
  <advance width="500"/>
  <unicode hex="026B"/>
  <anchor x="250" y="0" name="bottom"/>
  <anchor x="250" y="760" name="top"/>
  <anchor x="423" y="760" name="topright"/>
  <anchor x="256" y="393" name="center"/>
  <outline>
    <contour>
      <point x="43" y="287" type="curve"/>
      <point x="137" y="287" type="line"/>
      <point x="137" y="322"/>
      <point x="147" y="340"/>
      <point x="167" y="340" type="curve" smooth="yes"/>
      <point x="202" y="340"/>
      <point x="306" y="288"/>
      <point x="367" y="288" type="curve" smooth="yes"/>
      <point x="414" y="288"/>
      <point x="464" y="318"/>
      <point x="464" y="455" type="curve"/>
      <point x="370" y="455" type="line"/>
      <point x="370" y="422"/>
      <point x="363" y="402"/>
      <point x="340" y="402" type="curve" smooth="yes"/>
      <point x="303" y="402"/>
      <point x="201" y="454"/>
      <point x="140" y="454" type="curve" smooth="yes"/>
      <point x="63" y="454"/>
      <point x="43" y="369"/>
    </contour>
    <component base="l"/>
  </outline>
</glyph>
<glyph name="uni026C" format="2">
  <advance width="500"/>
  <unicode hex="026C"/>
  <anchor x="250" y="0" name="bottom"/>
  <anchor x="256" y="760" name="top"/>
  <anchor x="423" y="760" name="topright"/>
  <anchor x="256" y="393" name="center"/>
  <outline>
    <contour>
      <point x="148" y="272" type="curve"/>
      <point x="410" y="272" type="line"/>
      <point x="410" y="372" type="line"/>
      <point x="329" y="372" type="line"/>
      <point x="177" y="508" type="line" smooth="yes"/>
      <point x="166" y="517"/>
      <point x="152" y="520"/>
      <point x="138" y="520" type="curve" smooth="yes"/>
      <point x="73" y="520"/>
      <point x="33" y="474"/>
      <point x="33" y="400" type="curve" smooth="yes"/>
      <point x="33" y="336"/>
      <point x="64" y="272"/>
    </contour>
    <contour>
      <point x="156" y="372" type="line" smooth="yes"/>
      <point x="141" y="372"/>
      <point x="127" y="378"/>
      <point x="127" y="402" type="curve" smooth="yes"/>
      <point x="127" y="421"/>
      <point x="137" y="432"/>
      <point x="152" y="432" type="curve" smooth="yes"/>
      <point x="162" y="432"/>
      <point x="177" y="425"/>
      <point x="177" y="390" type="curve" smooth="yes"/>
      <point x="177" y="372" type="line"/>
    </contour>
    <component base="l"/>
  </outline>
</glyph>
<glyph name="uni0270" format="2">
  <advance width="500"/>
  <unicode hex="0270"/>
  <anchor x="424" y="-240" name="bottom"/>
  <anchor x="252" y="553" name="top"/>
  <outline>
    <contour>
      <point x="360" y="-240" type="line"/>
      <point x="485" y="-240" type="line"/>
      <point x="485" y="553" type="line"/>
      <point x="360" y="553" type="line"/>
      <point x="360" y="178" type="line" smooth="yes"/>
      <point x="360" y="151"/>
      <point x="358" y="109"/>
      <point x="332" y="109" type="curve" smooth="yes"/>
      <point x="309" y="109"/>
      <point x="309" y="140"/>
      <point x="309" y="178" type="curve" smooth="yes"/>
      <point x="309" y="553" type="line"/>
      <point x="190" y="553" type="line"/>
      <point x="190" y="176" type="line" smooth="yes"/>
      <point x="190" y="148"/>
      <point x="187" y="109"/>
      <point x="162" y="109" type="curve" smooth="yes"/>
      <point x="139" y="109"/>
      <point x="139" y="144"/>
      <point x="139" y="177" type="curve" smooth="yes"/>
      <point x="139" y="553" type="line"/>
      <point x="15" y="553" type="line"/>
      <point x="15" y="198" type="line" smooth="yes"/>
      <point x="15" y="67"/>
      <point x="21" y="-10"/>
      <point x="97" y="-10" type="curve" smooth="yes"/>
      <point x="145" y="-10"/>
      <point x="168" y="22"/>
      <point x="189" y="70" type="curve"/>
      <point x="193" y="70" type="line"/>
      <point x="205" y="19"/>
      <point x="219" y="-10"/>
      <point x="271" y="-10" type="curve" smooth="yes"/>
      <point x="312" y="-10"/>
      <point x="340" y="8"/>
      <point x="356" y="59" type="curve"/>
      <point x="360" y="59" type="line"/>
    </contour>
  </outline>
</glyph>
<glyph name="uni027B" format="2">
  <advance width="500"/>
  <unicode hex="027B"/>
  <anchor x="258" y="-240" name="bottom"/>
  <anchor x="310" y="553" name="top"/>
  <outline>
    <contour>
      <point x="398" y="-240" type="curve" smooth="yes"/>
      <point x="444" y="-240"/>
      <point x="468" y="-230"/>
      <point x="490" y="-220" type="curve"/>
      <point x="490" y="-87" type="line"/>
      <point x="476" y="-94"/>
      <point x="460" y="-100"/>
      <point x="436" y="-100" type="curve" smooth="yes"/>
      <point x="397" y="-100"/>
      <point x="380" y="-76"/>
      <point x="380" y="-28" type="curve" smooth="yes"/>
      <point x="380" y="553" type="line"/>
      <point x="235" y="553" type="line"/>
      <point x="235" y="289" type="line" smooth="yes"/>
      <point x="235" y="199"/>
      <point x="206" y="155"/>
      <point x="130" y="155" type="curve" smooth="yes"/>
      <point x="102" y="155"/>
      <point x="75" y="165"/>
      <point x="62" y="172" type="curve"/>
      <point x="22" y="12" type="line"/>
      <point x="38" y="2"/>
      <point x="72" y="-9"/>
      <point x="104" y="-9" type="curve" smooth="yes"/>
      <point x="185" y="-9"/>
      <point x="222" y="40"/>
      <point x="237" y="88" type="curve"/>
      <point x="243" y="88" type="line"/>
      <point x="238" y="59"/>
      <point x="235" y="29"/>
      <point x="235" y="0" type="curve" smooth="yes"/>
      <point x="235" y="-54" type="line" smooth="yes"/>
      <point x="235" y="-188"/>
      <point x="294" y="-240"/>
    </contour>
  </outline>
</glyph>
<glyph name="uni0282" format="2">
  <advance width="500"/>
  <unicode hex="0282"/>
  <anchor x="250" y="-291" name="bottom"/>
  <anchor x="250" y="553" name="top"/>
  <anchor x="480" y="553" name="topright"/>
  <outline>
    <contour>
      <point x="173" y="-240" type="curve" smooth="yes"/>
      <point x="200" y="-240"/>
      <point x="228" y="-234"/>
      <point x="244" y="-227" type="curve"/>
      <point x="244" y="-130" type="line"/>
      <point x="236" y="-133"/>
      <point x="224" y="-136"/>
      <point x="211" y="-136" type="curve" smooth="yes"/>
      <point x="191" y="-136"/>
      <point x="178" y="-121"/>
      <point x="178" y="-92" type="curve" smooth="yes"/>
      <point x="178" y="41" type="line"/>
      <point x="60" y="94" type="line"/>
      <point x="60" y="-111" type="line" smooth="yes"/>
      <point x="60" y="-202"/>
      <point x="99" y="-240"/>
    </contour>
    <component base="s"/>
  </outline>
</glyph>
<glyph name="uni0284" format="2">
  <advance width="500"/>
  <unicode hex="0284"/>
  <anchor x="201" y="-240" name="bottom"/>
  <anchor x="307" y="765" name="top"/>
  <outline>
    <contour>
      <point x="25" y="237" type="line"/>
      <point x="477" y="237" type="line"/>
      <point x="477" y="353" type="line"/>
      <point x="25" y="353" type="line"/>
    </contour>
    <component base="uni0283"/>
  </outline>
</glyph>
<glyph name="eshsquatreversed" format="2">
  <advance width="500"/>
  <unicode hex="0285"/>
  <anchor x="300" y="-240" name="bottom"/>
  <anchor x="179" y="553" name="top"/>
  <outline>
    <contour>
      <point x="356" y="-240" type="curve" smooth="yes"/>
      <point x="395" y="-240"/>
      <point x="435" y="-230"/>
      <point x="454" y="-222" type="curve"/>
      <point x="454" y="-71" type="line"/>
      <point x="438" y="-77"/>
      <point x="422" y="-80"/>
      <point x="401" y="-80" type="curve" smooth="yes"/>
      <point x="357" y="-80"/>
      <point x="329" y="-56"/>
      <point x="329" y="1" type="curve" smooth="yes"/>
      <point x="329" y="338" type="line"/>
      <point x="329" y="474"/>
      <point x="264" y="562"/>
      <point x="147" y="562" type="curve" smooth="yes"/>
      <point x="97" y="562"/>
      <point x="63" y="554"/>
      <point x="45" y="547" type="curve"/>
      <point x="45" y="400" type="line"/>
      <point x="58" y="404"/>
      <point x="81" y="409"/>
      <point x="107" y="409" type="curve" smooth="yes"/>
      <point x="149" y="409"/>
      <point x="174" y="379"/>
      <point x="174" y="330" type="curve" smooth="yes"/>
      <point x="174" y="-10" type="line" smooth="yes"/>
      <point x="174" y="-136"/>
      <point x="231" y="-240"/>
    </contour>
  </outline>
</glyph>
<glyph name="uni0289" format="2">
  <advance width="500"/>
  <unicode hex="0289"/>
  <anchor x="250" y="0" name="bottom"/>
  <anchor x="250" y="553" name="top"/>
  <anchor x="450" y="10" name="ogonek"/>
  <anchor x="480" y="553" name="topright"/>
  <outline>
    <contour>
      <point x="0" y="237" type="line"/>
      <point x="500" y="237" type="line"/>
      <point x="500" y="353" type="line"/>
      <point x="0" y="353" type="line"/>
    </contour>
    <component base="u"/>
  </outline>
</glyph>
<glyph name="cstretched" format="2">
  <advance width="500"/>
  <unicode hex="0297"/>
  <anchor x="289" y="-240" name="bottom"/>
  <anchor x="280" y="553" name="top"/>
  <outline>
    <contour>
      <point x="298" y="-240" type="curve" smooth="yes"/>
      <point x="365" y="-240"/>
      <point x="403" y="-225"/>
      <point x="434" y="-207" type="curve"/>
      <point x="434" y="-70" type="line"/>
      <point x="410" y="-86"/>
      <point x="374" y="-100"/>
      <point x="327" y="-100" type="curve" smooth="yes"/>
      <point x="237" y="-100"/>
      <point x="185" y="-35"/>
      <point x="185" y="157" type="curve" smooth="yes"/>
      <point x="185" y="345"/>
      <point x="232" y="425"/>
      <point x="332" y="425" type="curve" smooth="yes"/>
      <point x="369" y="425"/>
      <point x="394" y="414"/>
      <point x="414" y="401" type="curve"/>
      <point x="453" y="534" type="line"/>
      <point x="424" y="548"/>
      <point x="386" y="563"/>
      <point x="320" y="563" type="curve" smooth="yes"/>
      <point x="142" y="563"/>
      <point x="32" y="436"/>
      <point x="32" y="158" type="curve" smooth="yes"/>
      <point x="32" y="-127"/>
      <point x="139" y="-240"/>
    </contour>
  </outline>
</glyph>
<glyph name="uni029B" format="2">
  <advance width="500"/>
  <unicode hex="029B"/>
  <anchor x="288" y="0" name="bottom"/>
  <anchor x="279" y="760" name="top"/>
  <outline>
    <contour>
      <point x="284" y="-10" type="curve" smooth="yes"/>
      <point x="348" y="-10"/>
      <point x="410" y="10"/>
      <point x="448" y="35" type="curve"/>
      <point x="448" y="312" type="line"/>
      <point x="256" y="312" type="line"/>
      <point x="256" y="207" type="line"/>
      <point x="320" y="207" type="line"/>
      <point x="320" y="116" type="line"/>
      <point x="311" y="115"/>
      <point x="303" y="115"/>
      <point x="295" y="115" type="curve" smooth="yes"/>
      <point x="228" y="115"/>
      <point x="192" y="167"/>
      <point x="192" y="272" type="curve" smooth="yes"/>
      <point x="192" y="385"/>
      <point x="237" y="445"/>
      <point x="303" y="445" type="curve" smooth="yes"/>
      <point x="341" y="445"/>
      <point x="368" y="437"/>
      <point x="405" y="415" type="curve"/>
      <point x="445" y="521" type="line"/>
      <point x="445" y="586" type="line" smooth="yes"/>
      <point x="445" y="629"/>
      <point x="459" y="647"/>
      <point x="490" y="647" type="curve" smooth="yes"/>
      <point x="504" y="647"/>
      <point x="519" y="644"/>
      <point x="534" y="638" type="curve"/>
      <point x="534" y="762" type="line"/>
      <point x="517" y="768"/>
      <point x="479" y="773"/>
      <point x="456" y="773" type="curve" smooth="yes"/>
      <point x="356" y="773"/>
      <point x="307" y="705"/>
      <point x="307" y="590" type="curve" smooth="yes"/>
      <point x="307" y="559" type="line"/>
      <point x="299" y="559"/>
      <point x="290" y="560"/>
      <point x="281" y="560" type="curve" smooth="yes"/>
      <point x="127" y="560"/>
      <point x="54" y="436"/>
      <point x="54" y="272" type="curve" smooth="yes"/>
      <point x="54" y="79"/>
      <point x="138" y="-10"/>
    </contour>
  </outline>
</glyph>
<glyph name="uni029D" format="2">
  <advance width="500"/>
  <unicode hex="029D"/>
  <anchor x="289" y="-240" name="bottom"/>
  <anchor x="290" y="760" name="top"/>
  <outline>
    <contour>
      <point x="207" y="-240" type="curve" smooth="yes"/>
      <point x="327" y="-240"/>
      <point x="375" y="-169"/>
      <point x="379" y="-92" type="curve"/>
      <point x="426" y="-92" type="line"/>
      <point x="426" y="0" type="line"/>
      <point x="375" y="0" type="line"/>
      <point x="375" y="553" type="line"/>
      <point x="76" y="553" type="line"/>
      <point x="76" y="430" type="line"/>
      <point x="222" y="418" type="line"/>
      <point x="222" y="0" type="line"/>
      <point x="191" y="0" type="line" smooth="yes"/>
      <point x="104" y="0"/>
      <point x="54" y="-46"/>
      <point x="54" y="-118" type="curve" smooth="yes"/>
      <point x="54" y="-191"/>
      <point x="97" y="-240"/>
    </contour>
    <contour>
      <point x="180" y="-152" type="curve" smooth="yes"/>
      <point x="158" y="-152"/>
      <point x="148" y="-141"/>
      <point x="148" y="-122" type="curve" smooth="yes"/>
      <point x="148" y="-103"/>
      <point x="163" y="-92"/>
      <point x="185" y="-92" type="curve" smooth="yes"/>
      <point x="218" y="-92" type="line"/>
      <point x="218" y="-110" type="line" smooth="yes"/>
      <point x="218" y="-145"/>
      <point x="200" y="-152"/>
    </contour>
    <contour>
      <point x="291" y="608" type="curve" smooth="yes"/>
      <point x="352" y="608"/>
      <point x="382" y="639"/>
      <point x="382" y="691" type="curve" smooth="yes"/>
      <point x="382" y="745"/>
      <point x="352" y="774"/>
      <point x="291" y="774" type="curve" smooth="yes"/>
      <point x="231" y="774"/>
      <point x="201" y="745"/>
      <point x="201" y="691" type="curve" smooth="yes"/>
      <point x="201" y="636"/>
      <point x="232" y="608"/>
    </contour>
  </outline>
</glyph>
<glyph name="dzligcurl" format="2">
  <advance width="500"/>
  <unicode hex="02A5"/>
  <anchor x="239" y="0" name="bottom"/>
  <anchor x="239" y="760" name="top"/>
  <outline>
    <contour>
      <point x="462" y="-88" type="line"/>
      <point x="469" y="-60"/>
      <point x="479" y="-29"/>
      <point x="489" y="0" type="curve"/>
      <point x="544" y="0" type="line" smooth="yes"/>
      <point x="626" y="0"/>
      <point x="714" y="43"/>
      <point x="714" y="148" type="curve" smooth="yes"/>
      <point x="714" y="228"/>
      <point x="664" y="263"/>
      <point x="603" y="263" type="curve" smooth="yes"/>
      <point x="535" y="263"/>
      <point x="492" y="232"/>
      <point x="450" y="135" type="curve"/>
      <point x="413" y="135" type="line"/>
      <point x="600" y="446" type="line"/>
      <point x="600" y="553" type="line"/>
      <point x="231" y="553" type="line"/>
      <point x="231" y="760" type="line"/>
      <point x="81" y="760" type="line"/>
      <point x="81" y="593" type="line" smooth="yes"/>
      <point x="81" y="554"/>
      <point x="87" y="511"/>
      <point x="90" y="484" type="curve"/>
      <point x="81" y="484" type="line"/>
      <point x="55" y="542"/>
      <point x="12" y="563"/>
      <point x="-36" y="563" type="curve" smooth="yes"/>
      <point x="-149" y="563"/>
      <point x="-214" y="451"/>
      <point x="-214" y="275" type="curve" smooth="yes"/>
      <point x="-214" y="108"/>
      <point x="-156" y="-10"/>
      <point x="-38" y="-10" type="curve" smooth="yes"/>
      <point x="18" y="-10"/>
      <point x="60" y="17"/>
      <point x="85" y="73" type="curve"/>
      <point x="93" y="73" type="line"/>
      <point x="104" y="0" type="line"/>
      <point x="397" y="0" type="line"/>
      <point x="390" y="-21"/>
      <point x="383" y="-42"/>
      <point x="376" y="-65" type="curve"/>
    </contour>
    <contour>
      <point x="11" y="128" type="curve" smooth="yes"/>
      <point x="-38" y="128"/>
      <point x="-60" y="176"/>
      <point x="-60" y="276" type="curve" smooth="yes"/>
      <point x="-60" y="371"/>
      <point x="-40" y="424"/>
      <point x="16" y="424" type="curve" smooth="yes"/>
      <point x="63" y="424"/>
      <point x="83" y="387"/>
      <point x="83" y="275" type="curve" smooth="yes"/>
      <point x="83" y="259" type="line" smooth="yes"/>
      <point x="83" y="162"/>
      <point x="53" y="128"/>
    </contour>
    <contour>
      <point x="537" y="135" type="line"/>
      <point x="557" y="180"/>
      <point x="571" y="190"/>
      <point x="587" y="190" type="curve" smooth="yes"/>
      <point x="602" y="190"/>
      <point x="612" y="179"/>
      <point x="612" y="163" type="curve" smooth="yes"/>
      <point x="612" y="146"/>
      <point x="598" y="135"/>
      <point x="566" y="135" type="curve" smooth="yes"/>
    </contour>
    <contour>
      <point x="231" y="109" type="line"/>
      <point x="231" y="418" type="line"/>
      <point x="419" y="418" type="line"/>
    </contour>
  </outline>
</glyph>
<glyph name="tslig" format="2">
  <advance width="500"/>
  <unicode hex="02A6"/>
  <anchor x="250" y="0" name="bottom"/>
  <anchor x="250" y="663" name="top"/>
  <outline>
    <contour>
      <point x="204" y="0" type="curve" smooth="yes"/>
      <point x="286" y="0" type="line" smooth="yes"/>
      <point x="410" y="0"/>
      <point x="480" y="75"/>
      <point x="480" y="184" type="curve" smooth="yes"/>
      <point x="480" y="259"/>
      <point x="447" y="295"/>
      <point x="394" y="337" type="curve" smooth="yes"/>
      <point x="364" y="360"/>
      <point x="349" y="373"/>
      <point x="349" y="399" type="curve" smooth="yes"/>
      <point x="349" y="428"/>
      <point x="369" y="438"/>
      <point x="391" y="438" type="curve" smooth="yes"/>
      <point x="412" y="438"/>
      <point x="436" y="429"/>
      <point x="449" y="422" type="curve"/>
      <point x="476" y="538" type="line"/>
      <point x="451" y="548"/>
      <point x="416" y="558"/>
      <point x="374" y="558" type="curve" smooth="yes"/>
      <point x="344" y="558"/>
      <point x="321" y="553"/>
      <point x="299" y="547" type="curve"/>
      <point x="182" y="547" type="line"/>
      <point x="182" y="663" type="line"/>
      <point x="96" y="663" type="line"/>
      <point x="55" y="548" type="line"/>
      <point x="5" y="498" type="line"/>
      <point x="5" y="435" type="line"/>
      <point x="42" y="435" type="line"/>
      <point x="42" y="181" type="line" smooth="yes"/>
      <point x="42" y="44"/>
      <point x="97" y="0"/>
    </contour>
    <contour>
      <point x="240" y="117" type="line" smooth="yes"/>
      <point x="209" y="117"/>
      <point x="182" y="138"/>
      <point x="182" y="182" type="curve" smooth="yes"/>
      <point x="182" y="435" type="line"/>
      <point x="221" y="435" type="line"/>
      <point x="215" y="422"/>
      <point x="211" y="397"/>
      <point x="211" y="373" type="curve" smooth="yes"/>
      <point x="211" y="312"/>
      <point x="237" y="285"/>
      <point x="273" y="255" type="curve" smooth="yes"/>
      <point x="316" y="219"/>
      <point x="335" y="203"/>
      <point x="335" y="171" type="curve" smooth="yes"/>
      <point x="335" y="136"/>
      <point x="311" y="117"/>
      <point x="272" y="117" type="curve" smooth="yes"/>
    </contour>
  </outline>
</glyph>
<glyph name="uni02A7" format="2">
  <advance width="500"/>
  <unicode hex="02A7"/>
  <anchor x="250" y="-240" name="bottom"/>
  <anchor x="250" y="765" name="top"/>
  <outline>
    <contour>
      <point x="304" y="-240" type="curve" smooth="yes"/>
      <point x="406" y="-240"/>
      <point x="453" y="-188"/>
      <point x="453" y="-54" type="curve" smooth="yes"/>
      <point x="453" y="585" type="line" smooth="yes"/>
      <point x="453" y="614"/>
      <point x="464" y="628"/>
      <point x="486" y="628" type="curve" smooth="yes"/>
      <point x="497" y="628"/>
      <point x="504" y="626"/>
      <point x="514" y="622" type="curve"/>
      <point x="514" y="757" type="line"/>
      <point x="497" y="762"/>
      <point x="479" y="765"/>
      <point x="455" y="765" type="curve" smooth="yes"/>
      <point x="360" y="765"/>
      <point x="294" y="711"/>
      <point x="294" y="590" type="curve" smooth="yes"/>
      <point x="294" y="553" type="line"/>
      <point x="199" y="553" type="line"/>
      <point x="199" y="664" type="line"/>
      <point x="91" y="664" type="line"/>
      <point x="54" y="548" type="line"/>
      <point x="4" y="506" type="line"/>
      <point x="4" y="427" type="line"/>
      <point x="40" y="427" type="line"/>
      <point x="40" y="182" type="line" smooth="yes"/>
      <point x="40" y="52"/>
      <point x="89" y="-10"/>
      <point x="199" y="-10" type="curve" smooth="yes"/>
      <point x="239" y="-10"/>
      <point x="273" y="1"/>
      <point x="294" y="15" type="curve"/>
      <point x="294" y="-73" type="line" smooth="yes"/>
      <point x="294" y="-105"/>
      <point x="281" y="-119"/>
      <point x="259" y="-119" type="curve" smooth="yes"/>
      <point x="246" y="-119"/>
      <point x="235" y="-116"/>
      <point x="226" y="-112" type="curve"/>
      <point x="226" y="-225" type="line"/>
      <point x="242" y="-232"/>
      <point x="266" y="-240"/>
    </contour>
    <contour>
      <point x="242" y="121" type="curve" smooth="yes"/>
      <point x="217" y="121"/>
      <point x="199" y="139"/>
      <point x="199" y="175" type="curve" smooth="yes"/>
      <point x="199" y="427" type="line"/>
      <point x="294" y="427" type="line"/>
      <point x="294" y="136" type="line"/>
      <point x="278" y="127"/>
      <point x="264" y="121"/>
    </contour>
  </outline>
</glyph>
<glyph name="uni02AA" format="2">
  <advance width="500"/>
  <unicode hex="02AA"/>
  <anchor x="250" y="0" name="bottom"/>
  <anchor x="250" y="761" name="top"/>
  <outline>
    <contour>
      <point x="300" y="-10" type="curve" smooth="yes"/>
      <point x="411" y="-10"/>
      <point x="482" y="60"/>
      <point x="482" y="166" type="curve" smooth="yes"/>
      <point x="482" y="239"/>
      <point x="448" y="281"/>
      <point x="402" y="323" type="curve" smooth="yes"/>
      <point x="380" y="343"/>
      <point x="354" y="365"/>
      <point x="354" y="394" type="curve" smooth="yes"/>
      <point x="354" y="413"/>
      <point x="366" y="431"/>
      <point x="396" y="431" type="curve" smooth="yes"/>
      <point x="412" y="431"/>
      <point x="425" y="426"/>
      <point x="441" y="417" type="curve"/>
      <point x="475" y="535" type="line"/>
      <point x="448" y="548"/>
      <point x="413" y="558"/>
      <point x="374" y="558" type="curve" smooth="yes"/>
      <point x="272" y="558"/>
      <point x="209" y="491"/>
      <point x="209" y="383" type="curve" smooth="yes"/>
      <point x="209" y="301"/>
      <point x="246" y="264"/>
      <point x="280" y="232" type="curve" smooth="yes"/>
      <point x="319" y="196"/>
      <point x="333" y="183"/>
      <point x="333" y="161" type="curve" smooth="yes"/>
      <point x="333" y="130"/>
      <point x="308" y="119"/>
      <point x="275" y="119" type="curve" smooth="yes"/>
      <point x="237" y="119"/>
      <point x="207" y="133"/>
      <point x="179" y="151" type="curve"/>
      <point x="179" y="761" type="line"/>
      <point x="41" y="761" type="line"/>
      <point x="41" y="0" type="line"/>
      <point x="179" y="0" type="line"/>
      <point x="179" y="26" type="line"/>
      <point x="206" y="10"/>
      <point x="240" y="-10"/>
    </contour>
  </outline>
</glyph>
<glyph name="uni02AC" format="2">
  <advance width="500"/>
  <unicode hex="02AC"/>
  <anchor x="250" y="0" name="bottom"/>
  <anchor x="250" y="714" name="top"/>
  <outline>
    <contour>
      <point x="73" y="379" type="line"/>
      <point x="219" y="379" type="line"/>
      <point x="250" y="573" type="line"/>
      <point x="275" y="379" type="line"/>
      <point x="420" y="379" type="line"/>
      <point x="490" y="714" type="line"/>
      <point x="368" y="714" type="line"/>
      <point x="341" y="507" type="line"/>
      <point x="317" y="714" type="line"/>
      <point x="180" y="714" type="line"/>
      <point x="155" y="507" type="line"/>
      <point x="132" y="715" type="line"/>
      <point x="10" y="715" type="line"/>
    </contour>
    <contour>
      <point x="73" y="0" type="line"/>
      <point x="219" y="0" type="line"/>
      <point x="250" y="194" type="line"/>
      <point x="275" y="0" type="line"/>
      <point x="420" y="0" type="line"/>
      <point x="490" y="335" type="line"/>
      <point x="368" y="335" type="line"/>
      <point x="341" y="128" type="line"/>
      <point x="317" y="335" type="line"/>
      <point x="180" y="335" type="line"/>
      <point x="155" y="128" type="line"/>
      <point x="132" y="336" type="line"/>
      <point x="10" y="336" type="line"/>
    </contour>
  </outline>
</glyph>
<glyph name="uni02C4" format="2">
  <advance width="500"/>
  <unicode hex="02C4"/>
  <outline>
    <contour>
      <point x="113" y="540" type="line"/>
      <point x="185" y="540" type="line"/>
      <point x="252" y="691" type="line"/>
      <point x="316" y="540" type="line"/>
      <point x="388" y="540" type="line"/>
      <point x="276" y="787" type="line"/>
      <point x="234" y="787" type="line"/>
    </contour>
  </outline>
</glyph>
<glyph name="circumflex" format="2">
  <advance width="500"/>
  <unicode hex="02C6"/>
  <outline>
    <contour>
      <point x="86" y="606" type="line"/>
      <point x="177" y="606" type="line"/>
      <point x="196" y="622"/>
      <point x="221" y="650"/>
      <point x="250" y="684" type="curve"/>
      <point x="278" y="650"/>
      <point x="302" y="625"/>
      <point x="324" y="606" type="curve"/>
      <point x="414" y="606" type="line"/>
      <point x="414" y="619" type="line"/>
      <point x="376" y="670"/>
      <point x="342" y="722"/>
      <point x="320" y="766" type="curve"/>
      <point x="181" y="766" type="line"/>
      <point x="163" y="729"/>
      <point x="115" y="657"/>
      <point x="86" y="619" type="curve"/>
    </contour>
  </outline>
</glyph>
<glyph name="caron" format="2">
  <advance width="500"/>
  <unicode hex="02C7"/>
  <anchor x="249" y="528" name="_top"/>
  <anchor x="249" y="763" name="top"/>
  <outline>
    <contour>
      <point x="181" y="606" type="curve"/>
      <point x="320" y="606" type="line"/>
      <point x="341" y="647"/>
      <point x="386" y="715"/>
      <point x="414" y="753" type="curve"/>
      <point x="414" y="766" type="line"/>
      <point x="324" y="766" type="line"/>
      <point x="301" y="746"/>
      <point x="279" y="723"/>
      <point x="250" y="688" type="curve"/>
      <point x="223" y="721"/>
      <point x="199" y="747"/>
      <point x="177" y="766" type="curve"/>
      <point x="86" y="766" type="line"/>
      <point x="86" y="753" type="line"/>
      <point x="114" y="716"/>
      <point x="163" y="644"/>
    </contour>
  </outline>
</glyph>
<glyph name="tilde" format="2">
  <advance width="500"/>
  <unicode hex="02DC"/>
  <outline>
    <contour>
      <point x="83" y="611" type="curve"/>
      <point x="159" y="611" type="line"/>
      <point x="162" y="647"/>
      <point x="173" y="661"/>
      <point x="190" y="661" type="curve" smooth="yes"/>
      <point x="227" y="661"/>
      <point x="268" y="612"/>
      <point x="326" y="612" type="curve" smooth="yes"/>
      <point x="378" y="612"/>
      <point x="415" y="661"/>
      <point x="417" y="767" type="curve"/>
      <point x="342" y="767" type="line"/>
      <point x="336" y="731"/>
      <point x="329" y="717"/>
      <point x="309" y="717" type="curve" smooth="yes"/>
      <point x="265" y="717"/>
      <point x="228" y="766"/>
      <point x="171" y="766" type="curve" smooth="yes"/>
      <point x="97" y="766"/>
      <point x="84" y="673"/>
    </contour>
  </outline>
</glyph>
<glyph name="uni02F0" format="2">
  <advance width="500"/>
  <unicode hex="02F0"/>
  <outline>
    <contour>
      <point x="114" y="-238" type="line"/>
      <point x="180" y="-238" type="line"/>
      <point x="250" y="-106" type="line"/>
      <point x="319" y="-238" type="line"/>
      <point x="386" y="-238" type="line"/>
      <point x="270" y="-21" type="line"/>
      <point x="229" y="-21" type="line"/>
    </contour>
  </outline>
</glyph>
<glyph name="uni02FD" format="2">
  <advance width="500"/>
  <unicode hex="02FD"/>
  <outline>
    <contour>
      <point x="107" y="-207" type="line"/>
      <point x="393" y="-207" type="line"/>
      <point x="393" y="-43" type="line"/>
      <point x="335" y="-43" type="line"/>
      <point x="335" y="-149" type="line"/>
      <point x="165" y="-149" type="line"/>
      <point x="165" y="-43" type="line"/>
      <point x="107" y="-43" type="line"/>
    </contour>
  </outline>
</glyph>
<glyph name="hookretroflexbelowcomb" format="2">
  <unicode hex="0322"/>
  <outline>
    <contour>
      <point x="19" y="-241" type="curve"/>
      <point x="49" y="-241"/>
      <point x="81" y="-237"/>
      <point x="106" y="-228" type="curve"/>
      <point x="106" y="-111" type="line"/>
      <point x="92" y="-115"/>
      <point x="80" y="-120"/>
      <point x="70" y="-120" type="curve"/>
      <point x="41" y="-120"/>
      <point x="27" y="-104"/>
      <point x="27" y="-58" type="curve"/>
      <point x="27" y="56" type="line"/>
      <point x="-107" y="56" type="line"/>
      <point x="-107" y="-75" type="line" smooth="yes"/>
      <point x="-107" y="-196"/>
      <point x="-50" y="-241"/>
    </contour>
  </outline>
</glyph>
<glyph name="slashlongoverlaycomb" format="2">
  <unicode hex="0338"/>
  <anchor x="0" y="352" name="_center"/>
  <outline>
    <contour>
      <point x="-177" y="-58" type="line"/>
      <point x="-84" y="-58" type="line"/>
      <point x="177" y="761" type="line"/>
      <point x="84" y="761" type="line"/>
    </contour>
  </outline>
</glyph>
<glyph name="ringhalfrightbelowcomb" format="2">
  <unicode hex="0339"/>
  <anchor x="0" y="0" name="_bottom"/>
  <anchor x="0" y="-240" name="bottom"/>
  <outline>
    <contour>
      <point x="-66" y="-240" type="line"/>
      <point x="17" y="-240"/>
      <point x="66" y="-197"/>
      <point x="66" y="-126" type="curve"/>
      <point x="66" y="-57"/>
      <point x="16" y="-14"/>
      <point x="-66" y="-14" type="curve"/>
      <point x="-66" y="-94" type="line"/>
      <point x="-49" y="-94"/>
      <point x="-32" y="-107"/>
      <point x="-32" y="-127" type="curve"/>
      <point x="-32" y="-146"/>
      <point x="-46" y="-159"/>
      <point x="-66" y="-159" type="curve"/>
    </contour>
  </outline>
</glyph>
<glyph name="gbridgeabovecomb" format="2">
  <unicode hex="0346"/>
  <anchor x="0" y="553" name="_top"/>
  <anchor x="0" y="761" name="top"/>
  <outline>
    <contour>
      <point x="-143" y="593" type="line"/>
      <point x="-85" y="593" type="line"/>
      <point x="-85" y="703" type="line"/>
      <point x="85" y="703" type="line"/>
      <point x="85" y="593" type="line"/>
      <point x="143" y="593" type="line"/>
      <point x="143" y="761" type="line"/>
      <point x="-143" y="761" type="line"/>
    </contour>
  </outline>
</glyph>
<glyph name="nottildeabovecomb" format="2">
  <unicode hex="034A"/>
  <anchor x="0" y="553" name="_top"/>
  <anchor x="0" y="771" name="top"/>
  <outline>
    <contour>
      <point x="-21" y="566" type="line"/>
      <point x="8" y="626" type="line"/>
      <point x="24" y="616"/>
      <point x="42" y="608"/>
      <point x="60" y="608" type="curve"/>
      <point x="123" y="608"/>
      <point x="145" y="666"/>
      <point x="149" y="734" type="curve"/>
      <point x="91" y="734" type="line"/>
      <point x="88" y="699"/>
      <point x="80" y="678"/>
      <point x="60" y="678" type="curve"/>
      <point x="52" y="678"/>
      <point x="45" y="680"/>
      <point x="39" y="686" type="curve"/>
      <point x="70" y="748" type="line"/>
      <point x="23" y="771" type="line"/>
      <point x="-5" y="716" type="line"/>
      <point x="-19" y="726"/>
      <point x="-37" y="734"/>
      <point x="-60" y="734" type="curve"/>
      <point x="-118" y="734"/>
      <point x="-145" y="674"/>
      <point x="-149" y="607" type="curve"/>
      <point x="-92" y="607" type="line"/>
      <point x="-85" y="647"/>
      <point x="-78" y="663"/>
      <point x="-57" y="663" type="curve"/>
      <point x="-50" y="663"/>
      <point x="-44" y="660"/>
      <point x="-35" y="654" type="curve"/>
      <point x="-68" y="589" type="line"/>
    </contour>
  </outline>
</glyph>
<glyph name="arrowheadleftbelowcomb" format="2">
  <unicode hex="0354"/>
  <anchor x="0" y="0" name="_bottom"/>
  <anchor x="0" y="-240" name="bottom"/>
  <outline>
    <contour>
      <point x="57" y="-240" type="curve"/>
      <point x="66" y="-240" type="line"/>
      <point x="66" y="-192" type="line"/>
      <point x="45" y="-174"/>
      <point x="23" y="-158"/>
      <point x="-7" y="-140" type="curve"/>
      <point x="23" y="-122"/>
      <point x="48" y="-106"/>
      <point x="66" y="-89" type="curve"/>
      <point x="66" y="-40" type="line"/>
      <point x="57" y="-40" type="line"/>
      <point x="28" y="-62"/>
      <point x="-28" y="-94"/>
      <point x="-66" y="-106" type="curve"/>
      <point x="-66" y="-172" type="line"/>
      <point x="-28" y="-186"/>
      <point x="26" y="-220"/>
    </contour>
  </outline>
</glyph>
<glyph name="tildedoublecomb" format="2">
  <unicode hex="0360"/>
  <anchor x="0" y="553" name="_top"/>
  <anchor x="0" y="771" name="top"/>
  <outline>
    <contour>
      <point x="-325" y="607" type="curve"/>
      <point x="-240" y="607" type="line"/>
      <point x="-231" y="648"/>
      <point x="-207" y="657"/>
      <point x="-183" y="657" type="curve" smooth="yes"/>
      <point x="-66" y="657"/>
      <point x="39" y="608"/>
      <point x="158" y="608" type="curve" smooth="yes"/>
      <point x="254" y="608"/>
      <point x="320" y="662"/>
      <point x="325" y="771" type="curve"/>
      <point x="240" y="771" type="line"/>
      <point x="235" y="737"/>
      <point x="217" y="722"/>
      <point x="191" y="722" type="curve" smooth="yes"/>
      <point x="66" y="722"/>
      <point x="-29" y="771"/>
      <point x="-166" y="771" type="curve" smooth="yes"/>
      <point x="-253" y="771"/>
      <point x="-320" y="717"/>
    </contour>
  </outline>
</glyph>
<glyph name="breveinverteddoublecomb" format="2">
  <unicode hex="0361"/>
  <anchor x="0" y="643" name="_top"/>
  <anchor x="0" y="879" name="top"/>
  <outline>
    <contour>
      <point x="-325" y="677" type="curve"/>
      <point x="-222" y="677" type="line"/>
      <point x="-173" y="736"/>
      <point x="-104" y="768"/>
      <point x="-2" y="768" type="curve"/>
      <point x="101" y="768"/>
      <point x="178" y="729"/>
      <point x="222" y="677" type="curve"/>
      <point x="325" y="677" type="line"/>
      <point x="284" y="808"/>
      <point x="178" y="879"/>
      <point x="-1" y="879" type="curve"/>
      <point x="-155" y="879"/>
      <point x="-271" y="819"/>
    </contour>
  </outline>
</glyph>
<glyph name="Heta" format="2">
  <advance width="500"/>
  <unicode hex="0370"/>
  <anchor x="250" y="0" name="bottom"/>
  <anchor x="250" y="714" name="top"/>
  <outline>
    <contour>
      <point x="104" y="0" type="line"/>
      <point x="274" y="0" type="line"/>
      <point x="274" y="298" type="line"/>
      <point x="395" y="298" type="line"/>
      <point x="395" y="444" type="line"/>
      <point x="274" y="444" type="line"/>
      <point x="274" y="714" type="line"/>
      <point x="104" y="714" type="line"/>
    </contour>
  </outline>
</glyph>
<glyph name="tonos" format="2">
  <advance width="500"/>
  <unicode hex="0384"/>
  <anchor x="250" y="553" name="_top"/>
  <anchor x="252" y="760" name="top"/>
  <outline>
    <contour>
      <point x="209" y="606" type="line"/>
      <point x="298" y="606" type="line"/>
      <point x="326" y="655"/>
      <point x="344" y="708"/>
      <point x="361" y="756" type="curve"/>
      <point x="361" y="768" type="line"/>
      <point x="230" y="768" type="line"/>
      <point x="228" y="742"/>
      <point x="217" y="648"/>
      <point x="209" y="621" type="curve"/>
    </contour>
  </outline>
</glyph>
<glyph name="dieresistonos" format="2">
  <advance width="500"/>
  <unicode hex="0385"/>
  <anchor x="250" y="553" name="_top"/>
  <anchor x="250" y="828" name="top"/>
  <outline>
    <contour>
      <point x="209" y="684" type="line"/>
      <point x="278" y="684" type="line"/>
      <point x="308" y="736"/>
      <point x="329" y="785"/>
      <point x="342" y="820" type="curve"/>
      <point x="342" y="828" type="line"/>
      <point x="225" y="828" type="line"/>
      <point x="225" y="798"/>
      <point x="219" y="747"/>
      <point x="209" y="692" type="curve"/>
    </contour>
    <contour>
      <point x="125" y="610" type="curve" smooth="yes"/>
      <point x="163" y="610"/>
      <point x="188" y="638"/>
      <point x="188" y="681" type="curve" smooth="yes"/>
      <point x="188" y="726"/>
      <point x="163" y="753"/>
      <point x="125" y="753" type="curve" smooth="yes"/>
      <point x="87" y="753"/>
      <point x="63" y="727"/>
      <point x="63" y="681" type="curve" smooth="yes"/>
      <point x="63" y="636"/>
      <point x="87" y="610"/>
    </contour>
    <contour>
      <point x="374" y="612" type="curve" smooth="yes"/>
      <point x="413" y="612"/>
      <point x="437" y="640"/>
      <point x="437" y="681" type="curve" smooth="yes"/>
      <point x="437" y="728"/>
      <point x="413" y="756"/>
      <point x="374" y="756" type="curve" smooth="yes"/>
      <point x="337" y="756"/>
      <point x="312" y="729"/>
      <point x="312" y="683" type="curve" smooth="yes"/>
      <point x="312" y="639"/>
      <point x="337" y="612"/>
    </contour>
  </outline>
</glyph>
<glyph name="Upsilontonos" format="2">
  <advance width="500"/>
  <unicode hex="038E"/>
  <anchor x="280" y="0" name="bottom"/>
  <anchor x="280" y="714" name="top"/>
  <outline>
    <contour>
      <point x="204" y="0" type="line"/>
      <point x="352" y="0" type="line"/>
      <point x="352" y="277" type="line"/>
      <point x="495" y="714" type="line"/>
      <point x="333" y="714" type="line"/>
      <point x="280" y="433" type="line"/>
      <point x="229" y="714" type="line"/>
      <point x="65" y="714" type="line"/>
      <point x="204" y="276" type="line"/>
    </contour>
    <component base="tonos" xOffset="-287"/>
  </outline>
</glyph>
<glyph name="Gamma" format="2">
  <advance width="500"/>
  <unicode hex="0393"/>
  <anchor x="270" y="0" name="bottom"/>
  <anchor x="270" y="714" name="top"/>
  <outline>
    <contour>
      <point x="55" y="0" type="line"/>
      <point x="208" y="0" type="line"/>
      <point x="208" y="581" type="line"/>
      <point x="460" y="581" type="line"/>
      <point x="460" y="714" type="line"/>
      <point x="55" y="714" type="line"/>
    </contour>
  </outline>
</glyph>
<glyph name="Lambda" format="2">
  <advance width="500"/>
  <unicode hex="039B"/>
  <anchor x="250" y="0" name="bottom"/>
  <anchor x="250" y="714" name="top"/>
  <outline>
    <contour>
      <point x="5" y="0" type="line"/>
      <point x="167" y="0" type="line"/>
      <point x="230" y="385" type="line" smooth="yes"/>
      <point x="242" y="458"/>
      <point x="246" y="493"/>
      <point x="250" y="537" type="curve"/>
      <point x="253" y="493"/>
      <point x="258" y="458"/>
      <point x="270" y="385" type="curve" smooth="yes"/>
      <point x="333" y="0" type="line"/>
      <point x="495" y="0" type="line"/>
      <point x="339" y="714" type="line"/>
      <point x="161" y="714" type="line"/>
    </contour>
  </outline>
</glyph>
<glyph name="Phi" format="2">
  <advance width="500"/>
  <unicode hex="03A6"/>
  <anchor x="250" y="0" name="bottom"/>
  <anchor x="250" y="714" name="top"/>
  <outline>
    <contour>
      <point x="187" y="-10" type="line"/>
      <point x="314" y="-10" type="line"/>
      <point x="314" y="100" type="line"/>
      <point x="452" y="102"/>
      <point x="500" y="235"/>
      <point x="500" y="370" type="curve" smooth="yes"/>
      <point x="500" y="510"/>
      <point x="449" y="634"/>
      <point x="314" y="636" type="curve"/>
      <point x="314" y="724" type="line"/>
      <point x="187" y="724" type="line"/>
      <point x="187" y="636" type="line"/>
      <point x="50" y="634"/>
      <point x="0" y="511"/>
      <point x="0" y="369" type="curve" smooth="yes"/>
      <point x="0" y="238"/>
      <point x="42" y="102"/>
      <point x="187" y="100" type="curve"/>
    </contour>
    <contour>
      <point x="187" y="235" type="line"/>
      <point x="148" y="237"/>
      <point x="136" y="294"/>
      <point x="136" y="368" type="curve" smooth="yes"/>
      <point x="136" y="441"/>
      <point x="148" y="498"/>
      <point x="187" y="500" type="curve"/>
    </contour>
    <contour>
      <point x="314" y="235" type="curve"/>
      <point x="314" y="500" type="line"/>
      <point x="352" y="498"/>
      <point x="364" y="442"/>
      <point x="364" y="368" type="curve" smooth="yes"/>
      <point x="364" y="294"/>
      <point x="352" y="237"/>
    </contour>
  </outline>
</glyph>
<glyph name="Psi" format="2">
  <advance width="500"/>
  <unicode hex="03A8"/>
  <anchor x="250" y="0" name="bottom"/>
  <anchor x="250" y="714" name="top"/>
  <outline>
    <contour>
      <point x="191" y="0" type="line"/>
      <point x="309" y="0" type="line"/>
      <point x="309" y="198" type="line"/>
      <point x="440" y="198"/>
      <point x="495" y="285"/>
      <point x="495" y="445" type="curve" smooth="yes"/>
      <point x="495" y="714" type="line"/>
      <point x="362" y="714" type="line"/>
      <point x="362" y="456" type="line" smooth="yes"/>
      <point x="362" y="368"/>
      <point x="348" y="330"/>
      <point x="309" y="330" type="curve"/>
      <point x="309" y="714" type="line"/>
      <point x="191" y="714" type="line"/>
      <point x="191" y="330" type="line"/>
      <point x="149" y="330"/>
      <point x="138" y="367"/>
      <point x="138" y="458" type="curve" smooth="yes"/>
      <point x="138" y="714" type="line"/>
      <point x="5" y="714" type="line"/>
      <point x="5" y="448" type="line" smooth="yes"/>
      <point x="5" y="279"/>
      <point x="49" y="198"/>
      <point x="191" y="198" type="curve"/>
    </contour>
  </outline>
</glyph>
<glyph name="beta" format="2">
  <advance width="500"/>
  <unicode hex="03B2"/>
  <anchor x="306" y="0" name="bottom"/>
  <anchor x="248" y="765" name="top"/>
  <anchor x="480" y="765" name="topright"/>
  <outline>
    <contour>
      <point x="35" y="-240" type="line"/>
      <point x="181" y="-240" type="line"/>
      <point x="181" y="20" type="line"/>
      <point x="209" y="2"/>
      <point x="248" y="-10"/>
      <point x="292" y="-10" type="curve" smooth="yes"/>
      <point x="410" y="-10"/>
      <point x="477" y="77"/>
      <point x="477" y="215" type="curve" smooth="yes"/>
      <point x="477" y="322"/>
      <point x="437" y="387"/>
      <point x="341" y="401" type="curve"/>
      <point x="341" y="405" type="line"/>
      <point x="413" y="419"/>
      <point x="445" y="485"/>
      <point x="445" y="569" type="curve" smooth="yes"/>
      <point x="445" y="695"/>
      <point x="372" y="765"/>
      <point x="248" y="765" type="curve" smooth="yes"/>
      <point x="114" y="765"/>
      <point x="35" y="683"/>
      <point x="35" y="540" type="curve" smooth="yes"/>
    </contour>
    <contour>
      <point x="255" y="117" type="curve" smooth="yes"/>
      <point x="227" y="117"/>
      <point x="196" y="131"/>
      <point x="181" y="145" type="curve"/>
      <point x="181" y="528" type="line" smooth="yes"/>
      <point x="181" y="605"/>
      <point x="202" y="643"/>
      <point x="241" y="643" type="curve" smooth="yes"/>
      <point x="276" y="643"/>
      <point x="298" y="612"/>
      <point x="298" y="548" type="curve" smooth="yes"/>
      <point x="298" y="490"/>
      <point x="280" y="453"/>
      <point x="243" y="453" type="curve" smooth="yes"/>
      <point x="229" y="453" type="line"/>
      <point x="229" y="330" type="line"/>
      <point x="250" y="330" type="line" smooth="yes"/>
      <point x="300" y="330"/>
      <point x="329" y="294"/>
      <point x="329" y="224" type="curve" smooth="yes"/>
      <point x="329" y="153"/>
      <point x="299" y="117"/>
    </contour>
  </outline>
</glyph>
<glyph name="gamma" format="2">
  <advance width="500"/>
  <unicode hex="03B3"/>
  <anchor x="252" y="-240" name="bottom"/>
  <anchor x="254" y="553" name="top"/>
  <anchor x="480" y="553" name="topright"/>
  <outline>
    <contour>
      <point x="139" y="-240" type="curve"/>
      <point x="295" y="-240" type="line"/>
      <point x="295" y="-165"/>
      <point x="313" y="-62"/>
      <point x="335" y="12" type="curve" smooth="yes"/>
      <point x="495" y="553" type="line"/>
      <point x="346" y="553" type="line"/>
      <point x="292" y="367" type="line" smooth="yes"/>
      <point x="276" y="311"/>
      <point x="259" y="242"/>
      <point x="254" y="190" type="curve"/>
      <point x="251" y="190" type="line"/>
      <point x="245" y="253"/>
      <point x="228" y="320"/>
      <point x="212" y="374" type="curve" smooth="yes"/>
      <point x="159" y="553" type="line"/>
      <point x="5" y="553" type="line"/>
      <point x="174" y="3" type="line"/>
      <point x="158" y="-63"/>
      <point x="139" y="-182"/>
    </contour>
  </outline>
</glyph>
<glyph name="zeta" format="2">
  <advance width="500"/>
  <unicode hex="03B6"/>
  <anchor x="268" y="-182" name="bottom"/>
  <anchor x="270" y="760" name="top"/>
  <outline>
    <contour>
      <point x="244" y="-182" type="curve"/>
      <point x="392" y="-182" type="line"/>
      <point x="425" y="-129"/>
      <point x="444" y="-76"/>
      <point x="444" y="-24" type="curve" smooth="yes"/>
      <point x="444" y="74"/>
      <point x="378" y="96"/>
      <point x="333" y="118" type="curve" smooth="yes"/>
      <point x="257" y="155"/>
      <point x="232" y="189"/>
      <point x="232" y="268" type="curve" smooth="yes"/>
      <point x="232" y="397"/>
      <point x="300" y="523"/>
      <point x="438" y="663" type="curve"/>
      <point x="438" y="760" type="line"/>
      <point x="104" y="760" type="line"/>
      <point x="104" y="638" type="line"/>
      <point x="217" y="638" type="line" smooth="yes"/>
      <point x="244" y="638"/>
      <point x="267" y="639"/>
      <point x="288" y="645" type="curve"/>
      <point x="137" y="498"/>
      <point x="84" y="389"/>
      <point x="84" y="246" type="curve" smooth="yes"/>
      <point x="84" y="78"/>
      <point x="157" y="42"/>
      <point x="215" y="13" type="curve" smooth="yes"/>
      <point x="277" y="-18"/>
      <point x="301" y="-18"/>
      <point x="301" y="-48" type="curve" smooth="yes"/>
      <point x="301" y="-79"/>
      <point x="276" y="-136"/>
    </contour>
  </outline>
</glyph>
<glyph name="theta" format="2">
  <advance width="500"/>
  <unicode hex="03B8"/>
  <anchor x="249" y="0" name="bottom"/>
  <anchor x="251" y="771" name="top"/>
  <anchor x="480" y="771" name="topright"/>
  <outline>
    <contour>
      <point x="248" y="-10" type="curve" smooth="yes"/>
      <point x="397" y="-10"/>
      <point x="471" y="118"/>
      <point x="471" y="381" type="curve" smooth="yes"/>
      <point x="471" y="645"/>
      <point x="397" y="771"/>
      <point x="248" y="771" type="curve" smooth="yes"/>
      <point x="100" y="771"/>
      <point x="28" y="644"/>
      <point x="28" y="381" type="curve" smooth="yes"/>
      <point x="28" y="114"/>
      <point x="99" y="-10"/>
    </contour>
    <contour>
      <point x="248" y="107" type="curve" smooth="yes"/>
      <point x="200" y="107"/>
      <point x="178" y="179"/>
      <point x="176" y="323" type="curve"/>
      <point x="323" y="323" type="line"/>
      <point x="321" y="178"/>
      <point x="297" y="107"/>
    </contour>
    <contour>
      <point x="178" y="440" type="line"/>
      <point x="180" y="586"/>
      <point x="202" y="654"/>
      <point x="250" y="654" type="curve" smooth="yes"/>
      <point x="297" y="654"/>
      <point x="320" y="586"/>
      <point x="324" y="440" type="curve"/>
    </contour>
  </outline>
</glyph>
<glyph name="nu" format="2">
  <advance width="500"/>
  <unicode hex="03BD"/>
  <anchor x="262" y="0" name="bottom"/>
  <anchor x="258" y="553" name="top"/>
  <outline>
    <contour>
      <point x="159" y="0" type="line"/>
      <point x="296" y="0" type="line"/>
      <point x="423" y="168"/>
      <point x="475" y="337"/>
      <point x="475" y="553" type="curve"/>
      <point x="328" y="553" type="line"/>
      <point x="328" y="403"/>
      <point x="311" y="275"/>
      <point x="255" y="155" type="curve"/>
      <point x="252" y="155" type="line"/>
      <point x="250" y="180"/>
      <point x="245" y="206"/>
      <point x="239" y="234" type="curve" smooth="yes"/>
      <point x="176" y="553" type="line"/>
      <point x="24" y="553" type="line"/>
    </contour>
  </outline>
</glyph>
<glyph name="rho" format="2">
  <advance width="500"/>
  <unicode hex="03C1"/>
  <anchor x="250" y="-240" name="bottom"/>
  <anchor x="261" y="553" name="top"/>
  <outline>
    <contour>
      <point x="35" y="-240" type="line"/>
      <point x="181" y="-240" type="line"/>
      <point x="181" y="-105" type="line" smooth="yes"/>
      <point x="181" y="-69"/>
      <point x="180" y="-22"/>
      <point x="175" y="28" type="curve"/>
      <point x="182" y="28" type="line"/>
      <point x="216" y="2"/>
      <point x="251" y="-10"/>
      <point x="293" y="-10" type="curve" smooth="yes"/>
      <point x="428" y="-10"/>
      <point x="480" y="117"/>
      <point x="480" y="273" type="curve" smooth="yes"/>
      <point x="480" y="463"/>
      <point x="403" y="560"/>
      <point x="257" y="560" type="curve" smooth="yes"/>
      <point x="95" y="560"/>
      <point x="35" y="442"/>
      <point x="35" y="274" type="curve" smooth="yes"/>
    </contour>
    <contour>
      <point x="253" y="112" type="curve" smooth="yes"/>
      <point x="228" y="112"/>
      <point x="198" y="122"/>
      <point x="181" y="139" type="curve"/>
      <point x="181" y="307" type="line" smooth="yes"/>
      <point x="181" y="399"/>
      <point x="206" y="438"/>
      <point x="256" y="438" type="curve" smooth="yes"/>
      <point x="307" y="438"/>
      <point x="332" y="398"/>
      <point x="332" y="278" type="curve" smooth="yes"/>
      <point x="332" y="153"/>
      <point x="305" y="112"/>
    </contour>
  </outline>
</glyph>
<glyph name="phi" format="2">
  <advance width="500"/>
  <unicode hex="03C6"/>
  <anchor x="246" y="-240" name="bottom"/>
  <anchor x="246" y="553" name="top"/>
  <outline>
    <contour>
      <point x="189" y="-240" type="line"/>
      <point x="302" y="-240" type="line"/>
      <point x="302" y="-5" type="line"/>
      <point x="418" y="12"/>
      <point x="480" y="122"/>
      <point x="480" y="301" type="curve" smooth="yes"/>
      <point x="480" y="455"/>
      <point x="434" y="557"/>
      <point x="323" y="557" type="curve" smooth="yes"/>
      <point x="229" y="557"/>
      <point x="189" y="485"/>
      <point x="189" y="343" type="curve" smooth="yes"/>
      <point x="189" y="117" type="line"/>
      <point x="154" y="132"/>
      <point x="138" y="186"/>
      <point x="138" y="262" type="curve" smooth="yes"/>
      <point x="138" y="354"/>
      <point x="161" y="443"/>
      <point x="196" y="505" type="curve"/>
      <point x="101" y="553" type="line"/>
      <point x="39" y="452"/>
      <point x="20" y="376"/>
      <point x="20" y="275" type="curve" smooth="yes"/>
      <point x="20" y="95"/>
      <point x="81" y="10"/>
      <point x="189" y="-5" type="curve"/>
    </contour>
    <contour>
      <point x="302" y="117" type="curve"/>
      <point x="302" y="351" type="line" smooth="yes"/>
      <point x="302" y="404"/>
      <point x="307" y="435"/>
      <point x="329" y="435" type="curve" smooth="yes"/>
      <point x="357" y="435"/>
      <point x="362" y="380"/>
      <point x="362" y="313" type="curve" smooth="yes"/>
      <point x="362" y="163"/>
      <point x="337" y="127"/>
    </contour>
  </outline>
</glyph>
<glyph name="omega" format="2">
  <advance width="500"/>
  <unicode hex="03C9"/>
  <anchor x="250" y="0" name="bottom"/>
  <anchor x="250" y="553" name="top"/>
  <outline>
    <contour>
      <point x="154" y="-10" type="curve" smooth="yes"/>
      <point x="211" y="-10"/>
      <point x="235" y="28"/>
      <point x="248" y="92" type="curve"/>
      <point x="252" y="92" type="line"/>
      <point x="265" y="24"/>
      <point x="292" y="-10"/>
      <point x="345" y="-10" type="curve" smooth="yes"/>
      <point x="435" y="-10"/>
      <point x="480" y="86"/>
      <point x="480" y="271" type="curve" smooth="yes"/>
      <point x="480" y="363"/>
      <point x="469" y="452"/>
      <point x="436" y="553" type="curve"/>
      <point x="308" y="553" type="line"/>
      <point x="346" y="449"/>
      <point x="355" y="358"/>
      <point x="355" y="247" type="curve" smooth="yes"/>
      <point x="355" y="167"/>
      <point x="350" y="129"/>
      <point x="329" y="129" type="curve" smooth="yes"/>
      <point x="309" y="129"/>
      <point x="304" y="173"/>
      <point x="304" y="249" type="curve" smooth="yes"/>
      <point x="304" y="382" type="line"/>
      <point x="196" y="382" type="line"/>
      <point x="196" y="249" type="line" smooth="yes"/>
      <point x="196" y="170"/>
      <point x="189" y="129"/>
      <point x="169" y="129" type="curve" smooth="yes"/>
      <point x="148" y="129"/>
      <point x="145" y="167"/>
      <point x="145" y="238" type="curve" smooth="yes"/>
      <point x="145" y="381"/>
      <point x="156" y="453"/>
      <point x="191" y="553" type="curve"/>
      <point x="64" y="553" type="line"/>
      <point x="33" y="454"/>
      <point x="20" y="368"/>
      <point x="20" y="268" type="curve" smooth="yes"/>
      <point x="20" y="86"/>
      <point x="63" y="-10"/>
    </contour>
  </outline>
</glyph>
<glyph name="uni03DD" format="2">
  <advance width="500"/>
  <unicode hex="03DD"/>
  <anchor x="269" y="-240" name="bottom"/>
  <anchor x="256" y="553" name="top"/>
  <outline>
    <contour>
      <point x="50" y="-240" type="line"/>
      <point x="212" y="-240" type="line"/>
      <point x="212" y="134" type="line"/>
      <point x="304" y="134" type="line"/>
      <point x="304" y="36" type="line"/>
      <point x="437" y="36" type="line"/>
      <point x="437" y="269" type="line"/>
      <point x="212" y="269" type="line"/>
      <point x="212" y="418" type="line"/>
      <point x="452" y="418" type="line"/>
      <point x="452" y="553" type="line"/>
      <point x="50" y="553" type="line"/>
    </contour>
  </outline>
</glyph>
<glyph name="uni03DF" format="2">
  <advance width="500"/>
  <unicode hex="03DF"/>
  <anchor x="263" y="-240" name="bottom"/>
  <anchor x="263" y="760" name="top"/>
  <outline>
    <contour>
      <point x="314" y="-240" type="curve" smooth="yes"/>
      <point x="359" y="-240"/>
      <point x="399" y="-231"/>
      <point x="412" y="-226" type="curve"/>
      <point x="412" y="-119" type="line"/>
      <point x="402" y="-123"/>
      <point x="390" y="-129"/>
      <point x="374" y="-129" type="curve" smooth="yes"/>
      <point x="349" y="-129"/>
      <point x="338" y="-105"/>
      <point x="338" y="-77" type="curve" smooth="yes"/>
      <point x="338" y="-55"/>
      <point x="344" y="-29"/>
      <point x="354" y="5" type="curve" smooth="yes"/>
      <point x="436" y="299" type="line"/>
      <point x="436" y="402" type="line"/>
      <point x="221" y="339" type="line"/>
      <point x="270" y="508" type="line" smooth="yes"/>
      <point x="283" y="552"/>
      <point x="294" y="592"/>
      <point x="294" y="634" type="curve" smooth="yes"/>
      <point x="294" y="717"/>
      <point x="255" y="766"/>
      <point x="171" y="766" type="curve" smooth="yes"/>
      <point x="141" y="766"/>
      <point x="101" y="759"/>
      <point x="79" y="749" type="curve"/>
      <point x="98" y="643" type="line"/>
      <point x="105" y="650"/>
      <point x="119" y="656"/>
      <point x="130" y="656" type="curve" smooth="yes"/>
      <point x="144" y="656"/>
      <point x="155" y="644"/>
      <point x="155" y="623" type="curve" smooth="yes"/>
      <point x="155" y="597"/>
      <point x="150" y="574"/>
      <point x="141" y="543" type="curve" smooth="yes"/>
      <point x="64" y="280" type="line"/>
      <point x="64" y="176" type="line"/>
      <point x="271" y="232" type="line"/>
      <point x="209" y="-3" type="line" smooth="yes"/>
      <point x="200" y="-39"/>
      <point x="192" y="-75"/>
      <point x="192" y="-109" type="curve" smooth="yes"/>
      <point x="192" y="-194"/>
      <point x="241" y="-240"/>
    </contour>
  </outline>
</glyph>
<glyph name="uni03E1" format="2">
  <advance width="500"/>
  <unicode hex="03E1"/>
  <anchor x="270" y="-240" name="bottom"/>
  <anchor x="270" y="714" name="top"/>
  <outline>
    <contour>
      <point x="248" y="-240" type="curve"/>
      <point x="398" y="-240" type="line"/>
      <point x="437" y="-144"/>
      <point x="460" y="-15"/>
      <point x="460" y="118" type="curve" smooth="yes"/>
      <point x="460" y="468"/>
      <point x="315" y="693"/>
      <point x="39" y="765" type="curve"/>
      <point x="88" y="608" type="line"/>
      <point x="153" y="573"/>
      <point x="197" y="525"/>
      <point x="227" y="469" type="curve"/>
      <point x="120" y="417" type="line"/>
      <point x="144" y="332" type="line"/>
      <point x="266" y="389" type="line"/>
      <point x="281" y="358"/>
      <point x="292" y="323"/>
      <point x="297" y="285" type="curve"/>
      <point x="168" y="224" type="line"/>
      <point x="193" y="140" type="line"/>
      <point x="310" y="197" type="line"/>
      <point x="311" y="173"/>
      <point x="312" y="138"/>
      <point x="312" y="113" type="curve" smooth="yes"/>
      <point x="312" y="-23"/>
      <point x="287" y="-137"/>
    </contour>
  </outline>
</glyph>
<glyph name="uni03FC" format="2">
  <advance width="500"/>
  <unicode hex="03FC"/>
  <anchor x="250" y="-240" name="bottom"/>
  <anchor x="250" y="553" name="top"/>
  <outline>
    <contour>
      <point x="0" y="-193" type="line"/>
      <point x="312" y="-193" type="line"/>
      <point x="312" y="-77" type="line"/>
      <point x="0" y="-77" type="line"/>
    </contour>
    <component base="rho"/>
  </outline>
</glyph>
<glyph name="afii10026" format="2">
  <advance width="500"/>
  <unicode hex="0418"/>
  <anchor x="280" y="0" name="bottom"/>
  <anchor x="480" y="0" name="bottomright"/>
  <anchor x="250" y="714" name="top"/>
  <outline>
    <contour>
      <point x="25" y="0" type="line"/>
      <point x="209" y="0" type="line"/>
      <point x="330" y="447" type="line"/>
      <point x="334" y="447" type="line"/>
      <point x="328" y="373"/>
      <point x="326" y="315"/>
      <point x="326" y="274" type="curve" smooth="yes"/>
      <point x="326" y="0" type="line"/>
      <point x="475" y="0" type="line"/>
      <point x="475" y="714" type="line"/>
      <point x="290" y="714" type="line"/>
      <point x="170" y="275" type="line"/>
      <point x="166" y="275" type="line"/>
      <point x="171" y="347"/>
      <point x="173" y="401"/>
      <point x="173" y="444" type="curve" smooth="yes"/>
      <point x="173" y="714" type="line"/>
      <point x="25" y="714" type="line"/>
    </contour>
  </outline>
</glyph>
<glyph name="afii10037" format="2">
  <advance width="500"/>
  <unicode hex="0423"/>
  <anchor x="200" y="0" name="bottom"/>
  <anchor x="253" y="714" name="top"/>
  <outline>
    <contour>
      <point x="115" y="-10" type="curve" smooth="yes"/>
      <point x="247" y="-10"/>
      <point x="301" y="68"/>
      <point x="344" y="211" type="curve" smooth="yes"/>
      <point x="495" y="714" type="line"/>
      <point x="333" y="714" type="line"/>
      <point x="285" y="492" type="line" smooth="yes"/>
      <point x="275" y="446"/>
      <point x="265" y="415"/>
      <point x="257" y="366" type="curve"/>
      <point x="251" y="366" type="line"/>
      <point x="244" y="410"/>
      <point x="227" y="469"/>
      <point x="219" y="503" type="curve" smooth="yes"/>
      <point x="168" y="714" type="line"/>
      <point x="5" y="714" type="line"/>
      <point x="171" y="204" type="line"/>
      <point x="154" y="143"/>
      <point x="138" y="120"/>
      <point x="93" y="120" type="curve" smooth="yes"/>
      <point x="70" y="120"/>
      <point x="47" y="126"/>
      <point x="25" y="137" type="curve"/>
      <point x="25" y="4" type="line"/>
      <point x="52" y="-5"/>
      <point x="81" y="-10"/>
    </contour>
  </outline>
</glyph>
<glyph name="afii10038" format="2">
  <advance width="500"/>
  <unicode hex="0424"/>
  <anchor x="250" y="0" name="bottom"/>
  <anchor x="250" y="714" name="top"/>
  <outline>
    <contour>
      <point x="186" y="-10" type="line"/>
      <point x="314" y="-10" type="line"/>
      <point x="314" y="100" type="line"/>
      <point x="434" y="100"/>
      <point x="495" y="209"/>
      <point x="495" y="367" type="curve" smooth="yes"/>
      <point x="495" y="525"/>
      <point x="434" y="636"/>
      <point x="314" y="636" type="curve"/>
      <point x="314" y="724" type="line"/>
      <point x="186" y="724" type="line"/>
      <point x="186" y="636" type="line"/>
      <point x="55" y="636"/>
      <point x="5" y="517"/>
      <point x="5" y="368" type="curve" smooth="yes"/>
      <point x="5" y="207"/>
      <point x="63" y="100"/>
      <point x="186" y="100" type="curve"/>
    </contour>
    <contour>
      <point x="186" y="227" type="line"/>
      <point x="151" y="227"/>
      <point x="134" y="268"/>
      <point x="134" y="369" type="curve" smooth="yes"/>
      <point x="134" y="466"/>
      <point x="150" y="509"/>
      <point x="186" y="509" type="curve"/>
    </contour>
    <contour>
      <point x="314" y="227" type="curve"/>
      <point x="314" y="509" type="line"/>
      <point x="349" y="509"/>
      <point x="366" y="462"/>
      <point x="366" y="369" type="curve" smooth="yes"/>
      <point x="366" y="275"/>
      <point x="349" y="227"/>
    </contour>
  </outline>
</glyph>
<glyph name="afii10043" format="2">
  <advance width="500"/>
  <unicode hex="0429"/>
  <anchor x="250" y="-216" name="bottom"/>
  <anchor x="250" y="714" name="top"/>
  <outline>
    <contour>
      <point x="342" y="-216" type="line"/>
      <point x="490" y="-216" type="line"/>
      <point x="490" y="129" type="line"/>
      <point x="270" y="129" type="line"/>
      <point x="270" y="0" type="line"/>
      <point x="342" y="0" type="line"/>
    </contour>
    <component base="afii10042"/>
  </outline>
</glyph>
<glyph name="afii10044" format="2">
  <advance width="500"/>
  <unicode hex="042A"/>
  <anchor x="250" y="0" name="bottom"/>
  <anchor x="250" y="714" name="top"/>
  <outline>
    <contour>
      <point x="0" y="581" type="line"/>
      <point x="132" y="581" type="line"/>
      <point x="132" y="714" type="line"/>
      <point x="0" y="714" type="line"/>
    </contour>
    <component base="afii10046" xOffset="20"/>
  </outline>
</glyph>
<glyph name="afii10048" format="2">
  <advance width="500"/>
  <unicode hex="042E"/>
  <anchor x="250" y="0" name="bottom"/>
  <anchor x="250" y="714" name="top"/>
  <outline>
    <contour>
      <point x="331" y="-10" type="curve" smooth="yes"/>
      <point x="461" y="-10"/>
      <point x="485" y="99"/>
      <point x="485" y="350" type="curve" smooth="yes"/>
      <point x="485" y="625"/>
      <point x="456" y="725"/>
      <point x="330" y="725" type="curve" smooth="yes"/>
      <point x="200" y="725"/>
      <point x="173" y="625"/>
      <point x="173" y="358" type="curve" smooth="yes"/>
      <point x="173" y="99"/>
      <point x="200" y="-10"/>
    </contour>
    <contour>
      <point x="10" y="0" type="line"/>
      <point x="133" y="0" type="line"/>
      <point x="133" y="295" type="line"/>
      <point x="217" y="295" type="line"/>
      <point x="217" y="426" type="line"/>
      <point x="133" y="426" type="line"/>
      <point x="133" y="714" type="line"/>
      <point x="10" y="714" type="line"/>
    </contour>
    <contour>
      <point x="330" y="125" type="curve" smooth="yes"/>
      <point x="308" y="125"/>
      <point x="308" y="178"/>
      <point x="308" y="361" type="curve" smooth="yes"/>
      <point x="308" y="530"/>
      <point x="308" y="593"/>
      <point x="329" y="593" type="curve" smooth="yes"/>
      <point x="348" y="593"/>
      <point x="349" y="553"/>
      <point x="349" y="361" type="curve" smooth="yes"/>
      <point x="349" y="188"/>
      <point x="349" y="125"/>
    </contour>
  </outline>
</glyph>
<glyph name="afii10069" format="2">
  <advance width="500"/>
  <unicode hex="0434"/>
  <anchor x="250" y="-200" name="bottom"/>
  <anchor x="270" y="553" name="top"/>
  <outline>
    <contour>
      <point x="28" y="-200" type="line"/>
      <point x="160" y="-200" type="line"/>
      <point x="160" y="0" type="line"/>
      <point x="340" y="0" type="line"/>
      <point x="340" y="-200" type="line"/>
      <point x="472" y="-200" type="line"/>
      <point x="472" y="122" type="line"/>
      <point x="420" y="122" type="line"/>
      <point x="420" y="553" type="line"/>
      <point x="129" y="553" type="line"/>
      <point x="123" y="392"/>
      <point x="99" y="232"/>
      <point x="65" y="122" type="curve"/>
      <point x="28" y="122" type="line"/>
    </contour>
    <contour>
      <point x="207" y="122" type="line"/>
      <point x="229" y="241"/>
      <point x="238" y="325"/>
      <point x="243" y="431" type="curve"/>
      <point x="285" y="431" type="line"/>
      <point x="285" y="122" type="line"/>
    </contour>
  </outline>
</glyph>
<glyph name="afii10072" format="2">
  <advance width="500"/>
  <unicode hex="0436"/>
  <anchor x="250" y="0" name="bottom"/>
  <anchor x="480" y="0" name="bottomright"/>
  <anchor x="250" y="553" name="top"/>
  <outline>
    <contour>
      <point x="1" y="0" type="line"/>
      <point x="140" y="0" type="line"/>
      <point x="187" y="280" type="line"/>
      <point x="183" y="0" type="line"/>
      <point x="316" y="0" type="line"/>
      <point x="312" y="280" type="line"/>
      <point x="360" y="0" type="line"/>
      <point x="498" y="0" type="line"/>
      <point x="439" y="287" type="line"/>
      <point x="496" y="553" type="line"/>
      <point x="359" y="553" type="line"/>
      <point x="312" y="284" type="line"/>
      <point x="316" y="553" type="line"/>
      <point x="183" y="553" type="line"/>
      <point x="187" y="284" type="line"/>
      <point x="142" y="553" type="line"/>
      <point x="3" y="553" type="line"/>
      <point x="60" y="287" type="line"/>
    </contour>
  </outline>
</glyph>
<glyph name="afii10078" format="2">
  <advance width="500"/>
  <unicode hex="043C"/>
  <anchor x="250" y="0" name="bottom"/>
  <anchor x="250" y="553" name="top"/>
  <outline>
    <contour>
      <point x="15" y="0" type="line"/>
      <point x="137" y="0" type="line"/>
      <point x="137" y="239" type="line" smooth="yes"/>
      <point x="137" y="287"/>
      <point x="134" y="336"/>
      <point x="130" y="386" type="curve"/>
      <point x="134" y="386" type="line"/>
      <point x="202" y="0" type="line"/>
      <point x="301" y="0" type="line"/>
      <point x="364" y="386" type="line"/>
      <point x="368" y="386" type="line"/>
      <point x="363" y="337"/>
      <point x="360" y="284"/>
      <point x="360" y="240" type="curve" smooth="yes"/>
      <point x="360" y="0" type="line"/>
      <point x="485" y="0" type="line"/>
      <point x="485" y="553" type="line"/>
      <point x="284" y="553" type="line"/>
      <point x="249" y="234" type="line"/>
      <point x="217" y="553" type="line"/>
      <point x="15" y="553" type="line"/>
    </contour>
  </outline>
</glyph>
<glyph name="afii10079" format="2">
  <advance width="500"/>
  <unicode hex="043D"/>
  <anchor x="251" y="0" name="bottom"/>
  <anchor x="480" y="0" name="bottomright"/>
  <anchor x="251" y="553" name="top"/>
  <outline>
    <contour>
      <point x="35" y="0" type="line"/>
      <point x="181" y="0" type="line"/>
      <point x="181" y="221" type="line"/>
      <point x="319" y="221" type="line"/>
      <point x="319" y="0" type="line"/>
      <point x="465" y="0" type="line"/>
      <point x="465" y="553" type="line"/>
      <point x="319" y="553" type="line"/>
      <point x="319" y="344" type="line"/>
      <point x="181" y="344" type="line"/>
      <point x="181" y="553" type="line"/>
      <point x="35" y="553" type="line"/>
    </contour>
  </outline>
</glyph>
<glyph name="afii10091" format="2">
  <advance width="500"/>
  <unicode hex="0449"/>
  <anchor x="250" y="-157" name="bottom"/>
  <anchor x="250" y="553" name="top"/>
  <outline>
    <contour>
      <point x="368" y="-200" type="line"/>
      <point x="500" y="-200" type="line"/>
      <point x="500" y="122" type="line"/>
      <point x="332" y="122" type="line"/>
      <point x="332" y="0" type="line"/>
      <point x="368" y="0" type="line"/>
    </contour>
    <component base="afii10090"/>
  </outline>
</glyph>
<glyph name="afii10092" format="2">
  <advance width="500"/>
  <unicode hex="044A"/>
  <anchor x="250" y="0" name="bottom"/>
  <anchor x="250" y="553" name="top"/>
  <outline>
    <contour>
      <point x="0" y="425" type="line"/>
      <point x="115" y="425" type="line"/>
      <point x="115" y="553" type="line"/>
      <point x="0" y="553" type="line"/>
    </contour>
    <component base="afii10094" xOffset="43"/>
  </outline>
</glyph>
<glyph name="afii10106" format="2">
  <advance width="500"/>
  <unicode hex="0459"/>
  <anchor x="250" y="0" name="bottom"/>
  <anchor x="195" y="553" name="top"/>
  <outline>
    <contour>
      <point x="76" y="10" type="curve" smooth="yes"/>
      <point x="164" y="44"/>
      <point x="180" y="162"/>
      <point x="180" y="445" type="curve"/>
      <point x="270" y="445" type="line"/>
      <point x="270" y="553" type="line"/>
      <point x="65" y="553" type="line"/>
      <point x="65" y="337"/>
      <point x="65" y="176"/>
      <point x="29" y="121" type="curve" smooth="yes"/>
      <point x="21" y="109"/>
      <point x="12" y="103"/>
      <point x="0" y="101" type="curve"/>
      <point x="0" y="-2" type="line"/>
      <point x="30" y="-2"/>
      <point x="55" y="2"/>
    </contour>
    <contour>
      <point x="325" y="109" type="line"/>
      <point x="325" y="237" type="line"/>
      <point x="347" y="237" type="line" smooth="yes"/>
      <point x="376" y="237"/>
      <point x="390" y="212"/>
      <point x="390" y="176" type="curve" smooth="yes"/>
      <point x="390" y="130"/>
      <point x="375" y="109"/>
      <point x="346" y="109" type="curve" smooth="yes"/>
    </contour>
    <contour>
      <point x="215" y="0" type="line"/>
      <point x="331" y="0" type="line" smooth="yes"/>
      <point x="441" y="0"/>
      <point x="496" y="58"/>
      <point x="496" y="176" type="curve" smooth="yes"/>
      <point x="496" y="291"/>
      <point x="438" y="345"/>
      <point x="347" y="345" type="curve" smooth="yes"/>
      <point x="325" y="345" type="line"/>
      <point x="325" y="553" type="line"/>
      <point x="215" y="553" type="line"/>
    </contour>
  </outline>
</glyph>
<glyph name="uni0462" format="2">
  <advance width="500"/>
  <unicode hex="0462"/>
  <anchor x="250" y="0" name="bottom"/>
  <anchor x="250" y="714" name="top"/>
  <outline>
    <contour>
      <point x="59" y="0" type="line"/>
      <point x="245" y="0" type="line" smooth="yes"/>
      <point x="391" y="0"/>
      <point x="479" y="76"/>
      <point x="479" y="222" type="curve" smooth="yes"/>
      <point x="479" y="361"/>
      <point x="404" y="430"/>
      <point x="249" y="430" type="curve" smooth="yes"/>
      <point x="212" y="430" type="line"/>
      <point x="212" y="528" type="line"/>
      <point x="361" y="528" type="line"/>
      <point x="361" y="653" type="line"/>
      <point x="212" y="653" type="line"/>
      <point x="212" y="714" type="line"/>
      <point x="59" y="714" type="line"/>
      <point x="59" y="653" type="line"/>
      <point x="0" y="653" type="line"/>
      <point x="0" y="528" type="line"/>
      <point x="59" y="528" type="line"/>
    </contour>
    <contour>
      <point x="212" y="135" type="line"/>
      <point x="212" y="297" type="line"/>
      <point x="250" y="297" type="line" smooth="yes"/>
      <point x="298" y="297"/>
      <point x="322" y="270"/>
      <point x="322" y="218" type="curve" smooth="yes"/>
      <point x="322" y="162"/>
      <point x="294" y="135"/>
      <point x="250" y="135" type="curve" smooth="yes"/>
    </contour>
  </outline>
</glyph>
<glyph name="uni0464" format="2">
  <advance width="500"/>
  <unicode hex="0464"/>
  <anchor x="250" y="0" name="bottom"/>
  <anchor x="250" y="714" name="top"/>
  <outline>
    <contour>
      <point x="392" y="-10" type="curve" smooth="yes"/>
      <point x="435" y="-10"/>
      <point x="467" y="-1"/>
      <point x="486" y="9" type="curve"/>
      <point x="486" y="133" type="line"/>
      <point x="469" y="123"/>
      <point x="447" y="115"/>
      <point x="418" y="115" type="curve" smooth="yes"/>
      <point x="369" y="115"/>
      <point x="333" y="156"/>
      <point x="330" y="295" type="curve"/>
      <point x="434" y="295" type="line"/>
      <point x="434" y="426" type="line"/>
      <point x="332" y="426" type="line"/>
      <point x="338" y="548"/>
      <point x="365" y="601"/>
      <point x="418" y="601" type="curve" smooth="yes"/>
      <point x="441" y="601"/>
      <point x="455" y="595"/>
      <point x="468" y="586" type="curve"/>
      <point x="500" y="706" type="line"/>
      <point x="478" y="717"/>
      <point x="453" y="724"/>
      <point x="409" y="724" type="curve" smooth="yes"/>
      <point x="279" y="724"/>
      <point x="206" y="628"/>
      <point x="196" y="426" type="curve"/>
      <point x="152" y="426" type="line"/>
      <point x="152" y="714" type="line"/>
      <point x="22" y="714" type="line"/>
      <point x="22" y="0" type="line"/>
      <point x="152" y="0" type="line"/>
      <point x="152" y="295" type="line"/>
      <point x="194" y="295" type="line"/>
      <point x="200" y="85"/>
      <point x="259" y="-10"/>
    </contour>
  </outline>
</glyph>
<glyph name="uni0465" format="2">
  <advance width="500"/>
  <unicode hex="0465"/>
  <anchor x="250" y="0" name="bottom"/>
  <anchor x="250" y="553" name="top"/>
  <outline>
    <contour>
      <point x="379" y="-10" type="curve" smooth="yes"/>
      <point x="427" y="-10"/>
      <point x="462" y="7"/>
      <point x="485" y="23" type="curve"/>
      <point x="485" y="129" type="line"/>
      <point x="464" y="114"/>
      <point x="442" y="103"/>
      <point x="407" y="103" type="curve" smooth="yes"/>
      <point x="357" y="103"/>
      <point x="340" y="142"/>
      <point x="337" y="220" type="curve"/>
      <point x="442" y="220" type="line"/>
      <point x="442" y="327" type="line"/>
      <point x="337" y="327" type="line"/>
      <point x="341" y="399"/>
      <point x="354" y="447"/>
      <point x="408" y="447" type="curve" smooth="yes"/>
      <point x="437" y="447"/>
      <point x="453" y="439"/>
      <point x="471" y="430" type="curve"/>
      <point x="494" y="539" type="line"/>
      <point x="473" y="552"/>
      <point x="442" y="563"/>
      <point x="391" y="563" type="curve" smooth="yes"/>
      <point x="274" y="563"/>
      <point x="214" y="485"/>
      <point x="204" y="327" type="curve"/>
      <point x="169" y="327" type="line"/>
      <point x="169" y="553" type="line"/>
      <point x="32" y="553" type="line"/>
      <point x="32" y="0" type="line"/>
      <point x="169" y="0" type="line"/>
      <point x="169" y="220" type="line"/>
      <point x="203" y="220" type="line"/>
      <point x="214" y="58"/>
      <point x="270" y="-10"/>
    </contour>
  </outline>
</glyph>
<glyph name="uni0473" format="2">
  <advance width="500"/>
  <unicode hex="0473"/>
  <anchor x="250" y="0" name="bottom"/>
  <anchor x="250" y="553" name="top"/>
  <anchor x="253" y="10" name="ogonek"/>
  <anchor x="499" y="553" name="topright"/>
  <anchor x="250" y="277" name="center"/>
  <outline>
    <contour>
      <point x="87" y="215" type="line"/>
      <point x="415" y="215" type="line"/>
      <point x="415" y="335" type="line"/>
      <point x="87" y="335" type="line"/>
    </contour>
    <component base="o"/>
  </outline>
</glyph>
<glyph name="uni0474" format="2">
  <advance width="500"/>
  <unicode hex="0474"/>
  <anchor x="240" y="0" name="bottom"/>
  <anchor x="250" y="714" name="top"/>
  <outline>
    <contour>
      <point x="138" y="0" type="line"/>
      <point x="329" y="0" type="line"/>
      <point x="444" y="534" type="line" smooth="yes"/>
      <point x="451" y="567"/>
      <point x="461" y="578"/>
      <point x="481" y="578" type="curve" smooth="yes"/>
      <point x="487" y="578"/>
      <point x="493" y="577"/>
      <point x="498" y="575" type="curve"/>
      <point x="498" y="709" type="line"/>
      <point x="485" y="713"/>
      <point x="467" y="718"/>
      <point x="440" y="718" type="curve" smooth="yes"/>
      <point x="355" y="718"/>
      <point x="316" y="673"/>
      <point x="296" y="555" type="curve" smooth="yes"/>
      <point x="260" y="347" type="line" smooth="yes"/>
      <point x="250" y="291"/>
      <point x="242" y="234"/>
      <point x="237" y="178" type="curve"/>
      <point x="232" y="234"/>
      <point x="228" y="288"/>
      <point x="219" y="347" type="curve" smooth="yes"/>
      <point x="161" y="714" type="line"/>
      <point x="0" y="714" type="line"/>
    </contour>
  </outline>
</glyph>
<glyph name="palatalizationcomb.cy" format="2">
  <unicode hex="0484"/>
  <anchor x="0" y="553" name="_top"/>
  <anchor x="0" y="772" name="top"/>
  <outline>
    <contour>
      <point x="62" y="601" type="curve"/>
      <point x="159" y="601" type="line"/>
      <point x="159" y="631" type="line" smooth="yes"/>
      <point x="159" y="736"/>
      <point x="117" y="772"/>
      <point x="48" y="772" type="curve" smooth="yes"/>
      <point x="-20" y="772"/>
      <point x="-70" y="712"/>
      <point x="-149" y="712" type="curve" smooth="yes"/>
      <point x="-159" y="712" type="line"/>
      <point x="-159" y="601" type="line"/>
      <point x="-153" y="601" type="line" smooth="yes"/>
      <point x="-74" y="601"/>
      <point x="-3" y="653"/>
      <point x="27" y="653" type="curve" smooth="yes"/>
      <point x="51" y="653"/>
      <point x="62" y="633"/>
    </contour>
  </outline>
</glyph>
<glyph name="psilipneumatacomb.cy" format="2">
  <unicode hex="0486"/>
  <anchor x="0" y="553" name="_top"/>
  <anchor x="0" y="803" name="top"/>
  <outline>
    <contour>
      <point x="-79" y="590" type="line"/>
      <point x="26" y="593"/>
      <point x="79" y="634"/>
      <point x="79" y="712" type="curve" smooth="yes"/>
      <point x="79" y="769"/>
      <point x="49" y="803"/>
      <point x="1" y="803" type="curve" smooth="yes"/>
      <point x="-42" y="803"/>
      <point x="-68" y="779"/>
      <point x="-68" y="744" type="curve" smooth="yes"/>
      <point x="-68" y="691"/>
      <point x="-8" y="716"/>
      <point x="-8" y="677" type="curve" smooth="yes"/>
      <point x="-8" y="660"/>
      <point x="-24" y="647"/>
      <point x="-79" y="644" type="curve"/>
    </contour>
  </outline>
</glyph>
<glyph name="uni048A" format="2">
  <advance width="500"/>
  <unicode hex="048A"/>
  <anchor x="250" y="-220" name="bottom"/>
  <anchor x="250" y="936" name="top"/>
  <anchor x="480" y="0" name="bottomright"/>
  <outline>
    <contour>
      <point x="295" y="-222" type="line"/>
      <point x="459" y="-222" type="line"/>
      <point x="510" y="135" type="line"/>
      <point x="355" y="135" type="line"/>
      <point x="355" y="0" type="line"/>
      <point x="372" y="0" type="line"/>
    </contour>
    <component base="afii10026"/>
    <component base="breve" yOffset="161"/>
  </outline>
</glyph>
<glyph name="uni048D" format="2">
  <advance width="500"/>
  <unicode hex="048D"/>
  <anchor x="250" y="0" name="bottom"/>
  <anchor x="160" y="760" name="top"/>
  <outline>
    <contour>
      <point x="83" y="0" type="line"/>
      <point x="271" y="0" type="line" smooth="yes"/>
      <point x="396" y="0"/>
      <point x="468" y="56"/>
      <point x="468" y="178" type="curve" smooth="yes"/>
      <point x="468" y="296"/>
      <point x="397" y="346"/>
      <point x="256" y="346" type="curve" smooth="yes"/>
      <point x="229" y="346" type="line"/>
      <point x="229" y="558" type="line"/>
      <point x="338" y="558" type="line"/>
      <point x="338" y="662" type="line"/>
      <point x="229" y="662" type="line"/>
      <point x="229" y="760" type="line"/>
      <point x="83" y="760" type="line"/>
      <point x="83" y="662" type="line"/>
      <point x="31" y="662" type="line"/>
      <point x="31" y="558" type="line"/>
      <point x="83" y="558" type="line"/>
    </contour>
    <contour>
      <point x="229" y="109" type="line"/>
      <point x="229" y="237" type="line"/>
      <point x="260" y="237" type="line" smooth="yes"/>
      <point x="304" y="237"/>
      <point x="322" y="214"/>
      <point x="322" y="171" type="curve" smooth="yes"/>
      <point x="322" y="131"/>
      <point x="299" y="109"/>
      <point x="261" y="109" type="curve" smooth="yes"/>
    </contour>
  </outline>
</glyph>
<glyph name="afii10050" format="2">
  <advance width="500"/>
  <unicode hex="0490"/>
  <anchor x="250" y="0" name="bottom"/>
  <anchor x="250" y="866" name="top"/>
  <outline>
    <contour>
      <point x="311" y="581" type="line"/>
      <point x="460" y="581" type="line"/>
      <point x="460" y="866" type="line"/>
      <point x="311" y="866" type="line"/>
    </contour>
    <component base="Gamma"/>
  </outline>
</glyph>
<glyph name="uni0494" format="2">
  <advance width="500"/>
  <unicode hex="0494"/>
  <anchor x="250" y="-240" name="bottom"/>
  <anchor x="250" y="714" name="top"/>
  <outline>
    <contour>
      <point x="257" y="-240" type="curve" smooth="yes"/>
      <point x="390" y="-240"/>
      <point x="486" y="-132"/>
      <point x="486" y="85" type="curve" smooth="yes"/>
      <point x="486" y="289"/>
      <point x="395" y="395"/>
      <point x="266" y="395" type="curve" smooth="yes"/>
      <point x="242" y="395"/>
      <point x="219" y="392"/>
      <point x="197" y="386" type="curve"/>
      <point x="197" y="577" type="line"/>
      <point x="382" y="577" type="line"/>
      <point x="382" y="714" type="line"/>
      <point x="39" y="714" type="line"/>
      <point x="39" y="0" type="line"/>
      <point x="197" y="0" type="line"/>
      <point x="197" y="251" type="line"/>
      <point x="208" y="254"/>
      <point x="219" y="255"/>
      <point x="233" y="255" type="curve" smooth="yes"/>
      <point x="299" y="255"/>
      <point x="330" y="199"/>
      <point x="330" y="83" type="curve" smooth="yes"/>
      <point x="330" y="-45"/>
      <point x="298" y="-102"/>
      <point x="232" y="-102" type="curve" smooth="yes"/>
      <point x="208" y="-102"/>
      <point x="184" y="-96"/>
      <point x="161" y="-85" type="curve"/>
      <point x="161" y="-223" type="line"/>
      <point x="183" y="-232"/>
      <point x="221" y="-240"/>
    </contour>
  </outline>
</glyph>
<glyph name="uni049B" format="2">
  <advance width="500"/>
  <unicode hex="049B"/>
  <anchor x="250" y="-201" name="bottom"/>
  <anchor x="250" y="553" name="top"/>
  <anchor x="480" y="0" name="bottomright"/>
  <outline>
    <contour>
      <point x="360" y="-203" type="line"/>
      <point x="497" y="-203" type="line"/>
      <point x="497" y="135" type="line"/>
      <point x="406" y="135" type="line"/>
      <point x="360" y="0" type="line"/>
    </contour>
    <component base="afii10076"/>
  </outline>
</glyph>
<glyph name="uni049E" format="2">
  <advance width="500"/>
  <unicode hex="049E"/>
  <anchor x="250" y="0" name="bottom"/>
  <anchor x="250" y="714" name="top"/>
  <anchor x="480" y="0" name="bottomright"/>
  <outline>
    <contour>
      <point x="-8" y="551" type="line"/>
      <point x="240" y="551" type="line"/>
      <point x="240" y="661" type="line"/>
      <point x="-8" y="661" type="line"/>
    </contour>
    <component base="afii10028"/>
  </outline>
</glyph>
<glyph name="uni049F" format="2">
  <advance width="500"/>
  <unicode hex="049F"/>
  <anchor x="250" y="0" name="bottom"/>
  <anchor x="250" y="760" name="top"/>
  <outline>
    <contour>
      <point x="38" y="0" type="line"/>
      <point x="184" y="0" type="line"/>
      <point x="184" y="281" type="line"/>
      <point x="339" y="0" type="line"/>
      <point x="497" y="0" type="line"/>
      <point x="334" y="288" type="line"/>
      <point x="485" y="553" type="line"/>
      <point x="332" y="553" type="line"/>
      <point x="184" y="285" type="line"/>
      <point x="184" y="583" type="line"/>
      <point x="297" y="583" type="line"/>
      <point x="297" y="696" type="line"/>
      <point x="184" y="696" type="line"/>
      <point x="184" y="760" type="line"/>
      <point x="38" y="760" type="line"/>
      <point x="38" y="696" type="line"/>
      <point x="8" y="696" type="line"/>
      <point x="8" y="583" type="line"/>
      <point x="38" y="583" type="line"/>
    </contour>
  </outline>
</glyph>
<glyph name="uni04A7" format="2">
  <advance width="500"/>
  <unicode hex="04A7"/>
  <anchor x="250" y="-240" name="bottom"/>
  <anchor x="176" y="553" name="top"/>
  <outline>
    <contour>
      <point x="348" y="-240" type="curve" smooth="yes"/>
      <point x="439" y="-240"/>
      <point x="481" y="-145"/>
      <point x="481" y="48" type="curve" smooth="yes"/>
      <point x="481" y="211"/>
      <point x="445" y="304"/>
      <point x="352" y="304" type="curve" smooth="yes"/>
      <point x="336" y="304"/>
      <point x="326" y="300"/>
      <point x="317" y="296" type="curve"/>
      <point x="317" y="553" type="line"/>
      <point x="35" y="553" type="line"/>
      <point x="35" y="0" type="line"/>
      <point x="158" y="0" type="line"/>
      <point x="158" y="443" type="line"/>
      <point x="194" y="443" type="line"/>
      <point x="194" y="0" type="line"/>
      <point x="317" y="0" type="line"/>
      <point x="317" y="181" type="line"/>
      <point x="322" y="183"/>
      <point x="325" y="185"/>
      <point x="332" y="185" type="curve" smooth="yes"/>
      <point x="349" y="185"/>
      <point x="358" y="150"/>
      <point x="358" y="37" type="curve" smooth="yes"/>
      <point x="358" y="-106"/>
      <point x="340" y="-132"/>
      <point x="318" y="-132" type="curve" smooth="yes"/>
      <point x="305" y="-132"/>
      <point x="299" y="-130"/>
      <point x="291" y="-127" type="curve"/>
      <point x="291" y="-230" type="line"/>
      <point x="301" y="-234"/>
      <point x="323" y="-240"/>
    </contour>
  </outline>
</glyph>
<glyph name="uni04A8" format="2">
  <advance width="500"/>
  <unicode hex="04A8"/>
  <anchor x="250" y="0" name="bottom"/>
  <anchor x="250" y="714" name="top"/>
  <outline>
    <contour>
      <point x="417" y="-41" type="curve" smooth="yes"/>
      <point x="449" y="-41"/>
      <point x="477" y="-35"/>
      <point x="490" y="-30" type="curve"/>
      <point x="490" y="88" type="line"/>
      <point x="479" y="84"/>
      <point x="462" y="81"/>
      <point x="449" y="81" type="curve" smooth="yes"/>
      <point x="430" y="81"/>
      <point x="414" y="85"/>
      <point x="402" y="89" type="curve"/>
      <point x="456" y="148"/>
      <point x="481" y="243"/>
      <point x="481" y="331" type="curve" smooth="yes"/>
      <point x="481" y="454"/>
      <point x="435" y="535"/>
      <point x="333" y="535" type="curve" smooth="yes"/>
      <point x="238" y="535"/>
      <point x="187" y="457"/>
      <point x="187" y="322" type="curve" smooth="yes"/>
      <point x="187" y="273"/>
      <point x="199" y="190"/>
      <point x="224" y="125" type="curve"/>
      <point x="220" y="124"/>
      <point x="216" y="123"/>
      <point x="207" y="123" type="curve" smooth="yes"/>
      <point x="174" y="123"/>
      <point x="159" y="209"/>
      <point x="159" y="353" type="curve" smooth="yes"/>
      <point x="159" y="518"/>
      <point x="192" y="597"/>
      <point x="259" y="597" type="curve" smooth="yes"/>
      <point x="275" y="597"/>
      <point x="284" y="593"/>
      <point x="293" y="588" type="curve"/>
      <point x="318" y="712" type="line"/>
      <point x="302" y="718"/>
      <point x="277" y="724"/>
      <point x="243" y="724" type="curve" smooth="yes"/>
      <point x="92" y="724"/>
      <point x="20" y="604"/>
      <point x="20" y="347" type="curve" smooth="yes"/>
      <point x="20" y="127"/>
      <point x="79" y="-10"/>
      <point x="216" y="-10" type="curve" smooth="yes"/>
      <point x="246" y="-10"/>
      <point x="266" y="-5"/>
      <point x="284" y="5" type="curve"/>
      <point x="316" y="-24"/>
      <point x="363" y="-41"/>
    </contour>
    <contour>
      <point x="331" y="179" type="curve"/>
      <point x="320" y="199"/>
      <point x="310" y="241"/>
      <point x="310" y="310" type="curve" smooth="yes"/>
      <point x="310" y="392"/>
      <point x="317" y="412"/>
      <point x="332" y="412" type="curve" smooth="yes"/>
      <point x="347" y="412"/>
      <point x="354" y="392"/>
      <point x="354" y="303" type="curve" smooth="yes"/>
      <point x="354" y="232"/>
      <point x="341" y="195"/>
    </contour>
  </outline>
</glyph>
<glyph name="uni04A9" format="2">
  <advance width="500"/>
  <unicode hex="04A9"/>
  <anchor x="250" y="0" name="bottom"/>
  <anchor x="250" y="553" name="top"/>
  <outline>
    <contour>
      <point x="414" y="-35" type="curve" smooth="yes"/>
      <point x="438" y="-35"/>
      <point x="462" y="-32"/>
      <point x="487" y="-20" type="curve"/>
      <point x="487" y="84" type="line"/>
      <point x="476" y="79"/>
      <point x="458" y="75"/>
      <point x="443" y="75" type="curve" smooth="yes"/>
      <point x="432" y="75"/>
      <point x="422" y="76"/>
      <point x="416" y="78" type="curve"/>
      <point x="452" y="113"/>
      <point x="475" y="178"/>
      <point x="475" y="247" type="curve" smooth="yes"/>
      <point x="475" y="345"/>
      <point x="431" y="415"/>
      <point x="336" y="415" type="curve" smooth="yes"/>
      <point x="258" y="415"/>
      <point x="205" y="361"/>
      <point x="205" y="251" type="curve" smooth="yes"/>
      <point x="205" y="197"/>
      <point x="215" y="150"/>
      <point x="228" y="118" type="curve"/>
      <point x="226" y="117"/>
      <point x="223" y="116"/>
      <point x="219" y="116" type="curve" smooth="yes"/>
      <point x="188" y="116"/>
      <point x="169" y="177"/>
      <point x="169" y="276" type="curve" smooth="yes"/>
      <point x="169" y="395"/>
      <point x="192" y="440"/>
      <point x="235" y="440" type="curve" smooth="yes"/>
      <point x="249" y="440"/>
      <point x="257" y="437"/>
      <point x="267" y="433" type="curve"/>
      <point x="292" y="549" type="line"/>
      <point x="279" y="555"/>
      <point x="255" y="562"/>
      <point x="218" y="562" type="curve" smooth="yes"/>
      <point x="97" y="562"/>
      <point x="29" y="477"/>
      <point x="29" y="277" type="curve" smooth="yes"/>
      <point x="29" y="80"/>
      <point x="94" y="-10"/>
      <point x="217" y="-10" type="curve" smooth="yes"/>
      <point x="251" y="-10"/>
      <point x="279" y="-3"/>
      <point x="298" y="5" type="curve"/>
      <point x="324" y="-18"/>
      <point x="369" y="-35"/>
    </contour>
    <contour>
      <point x="333" y="154" type="curve"/>
      <point x="321" y="173"/>
      <point x="316" y="209"/>
      <point x="316" y="241" type="curve" smooth="yes"/>
      <point x="316" y="286"/>
      <point x="321" y="306"/>
      <point x="337" y="306" type="curve" smooth="yes"/>
      <point x="352" y="306"/>
      <point x="357" y="288"/>
      <point x="357" y="244" type="curve" smooth="yes"/>
      <point x="357" y="203"/>
      <point x="345" y="165"/>
    </contour>
  </outline>
</glyph>
<glyph name="uni04AF" format="2">
  <advance width="500"/>
  <unicode hex="04AF"/>
  <anchor x="250" y="-240" name="bottom"/>
  <anchor x="250" y="553" name="top"/>
  <outline>
    <contour>
      <point x="164" y="-240" type="line"/>
      <point x="326" y="-240" type="line"/>
      <point x="326" y="0" type="line"/>
      <point x="497" y="553" type="line"/>
      <point x="329" y="553" type="line"/>
      <point x="261" y="228" type="line" smooth="yes"/>
      <point x="256" y="204"/>
      <point x="251" y="176"/>
      <point x="248" y="154" type="curve"/>
      <point x="246" y="154" type="line"/>
      <point x="244" y="175"/>
      <point x="239" y="206"/>
      <point x="235" y="228" type="curve" smooth="yes"/>
      <point x="172" y="553" type="line"/>
      <point x="4" y="553" type="line"/>
      <point x="164" y="0" type="line"/>
    </contour>
  </outline>
</glyph>
<glyph name="uni04B0" format="2">
  <advance width="500"/>
  <unicode hex="04B0"/>
  <anchor x="250" y="0" name="bottom"/>
  <anchor x="250" y="714" name="top"/>
  <anchor x="20" y="714" name="topleft"/>
  <anchor x="480" y="714" name="topright"/>
  <outline>
    <contour>
      <point x="43" y="141" type="line"/>
      <point x="457" y="141" type="line"/>
      <point x="457" y="264" type="line"/>
      <point x="43" y="264" type="line"/>
    </contour>
    <component base="Y"/>
  </outline>
</glyph>
<glyph name="uni04BD" format="2">
  <advance width="500"/>
  <unicode hex="04BD"/>
  <anchor x="331" y="0" name="bottom"/>
  <anchor x="318" y="553" name="top"/>
  <outline>
    <contour>
      <point x="341" y="-10" type="curve" smooth="yes"/>
      <point x="400" y="-10"/>
      <point x="438" y="6"/>
      <point x="467" y="21" type="curve"/>
      <point x="467" y="144" type="line"/>
      <point x="436" y="126"/>
      <point x="413" y="113"/>
      <point x="356" y="113" type="curve" smooth="yes"/>
      <point x="311" y="113"/>
      <point x="283" y="138"/>
      <point x="283" y="223" type="curve"/>
      <point x="490" y="223" type="line"/>
      <point x="490" y="310" type="line" smooth="yes"/>
      <point x="490" y="497"/>
      <point x="429" y="562"/>
      <point x="317" y="562" type="curve" smooth="yes"/>
      <point x="213" y="562"/>
      <point x="147" y="498"/>
      <point x="140" y="332" type="curve"/>
      <point x="130" y="332" type="line" smooth="yes"/>
      <point x="108" y="332"/>
      <point x="101" y="345"/>
      <point x="101" y="376" type="curve" smooth="yes"/>
      <point x="101" y="391"/>
      <point x="104" y="409"/>
      <point x="110" y="430" type="curve"/>
      <point x="17" y="430" type="line"/>
      <point x="10" y="410"/>
      <point x="3" y="379"/>
      <point x="3" y="349" type="curve" smooth="yes"/>
      <point x="3" y="266"/>
      <point x="54" y="223"/>
      <point x="139" y="223" type="curve"/>
      <point x="142" y="66"/>
      <point x="211" y="-10"/>
    </contour>
    <contour>
      <point x="283" y="332" type="line"/>
      <point x="283" y="420"/>
      <point x="298" y="441"/>
      <point x="318" y="441" type="curve" smooth="yes"/>
      <point x="340" y="441"/>
      <point x="350" y="418"/>
      <point x="350" y="332" type="curve"/>
    </contour>
  </outline>
</glyph>
<glyph name="uni04C3" format="2">
  <advance width="500"/>
  <unicode hex="04C3"/>
  <anchor x="251" y="-240" name="bottom"/>
  <anchor x="250" y="714" name="top"/>
  <outline>
    <contour>
      <point x="262" y="-240" type="curve" smooth="yes"/>
      <point x="387" y="-240"/>
      <point x="485" y="-131"/>
      <point x="485" y="81" type="curve" smooth="yes"/>
      <point x="485" y="287"/>
      <point x="409" y="355"/>
      <point x="333" y="373" type="curve" smooth="yes"/>
      <point x="329" y="374"/>
      <point x="325" y="375"/>
      <point x="321" y="375" type="curve"/>
      <point x="471" y="714" type="line"/>
      <point x="318" y="714" type="line"/>
      <point x="221" y="464" type="line" smooth="yes"/>
      <point x="211" y="439"/>
      <point x="201" y="412"/>
      <point x="191" y="384" type="curve"/>
      <point x="191" y="714" type="line"/>
      <point x="49" y="714" type="line"/>
      <point x="49" y="0" type="line"/>
      <point x="191" y="0" type="line"/>
      <point x="191" y="258" type="line"/>
      <point x="205" y="261"/>
      <point x="219" y="262"/>
      <point x="235" y="262" type="curve" smooth="yes"/>
      <point x="310" y="262"/>
      <point x="340" y="199"/>
      <point x="340" y="83" type="curve" smooth="yes"/>
      <point x="340" y="-57"/>
      <point x="304" y="-107"/>
      <point x="248" y="-107" type="curve" smooth="yes"/>
      <point x="226" y="-107"/>
      <point x="211" y="-103"/>
      <point x="199" y="-97" type="curve"/>
      <point x="199" y="-229" type="line"/>
      <point x="213" y="-235"/>
      <point x="234" y="-240"/>
    </contour>
  </outline>
</glyph>
<glyph name="uni04C4" format="2">
  <advance width="500"/>
  <unicode hex="04C4"/>
  <anchor x="280" y="-240" name="bottom"/>
  <anchor x="250" y="553" name="top"/>
  <outline>
    <contour>
      <point x="280" y="-240" type="curve" smooth="yes"/>
      <point x="421" y="-240"/>
      <point x="482" y="-137"/>
      <point x="482" y="42" type="curve" smooth="yes"/>
      <point x="482" y="171"/>
      <point x="431" y="270"/>
      <point x="338" y="297" type="curve"/>
      <point x="478" y="553" type="line"/>
      <point x="317" y="553" type="line"/>
      <point x="191" y="300" type="line"/>
      <point x="191" y="553" type="line"/>
      <point x="40" y="553" type="line"/>
      <point x="40" y="0" type="line"/>
      <point x="191" y="0" type="line"/>
      <point x="191" y="175" type="line"/>
      <point x="206" y="180"/>
      <point x="225" y="184"/>
      <point x="246" y="184" type="curve" smooth="yes"/>
      <point x="302" y="184"/>
      <point x="331" y="132"/>
      <point x="331" y="37" type="curve" smooth="yes"/>
      <point x="331" y="-81"/>
      <point x="296" y="-111"/>
      <point x="249" y="-111" type="curve" smooth="yes"/>
      <point x="231" y="-111"/>
      <point x="216" y="-107"/>
      <point x="203" y="-101" type="curve"/>
      <point x="203" y="-227" type="line"/>
      <point x="222" y="-234"/>
      <point x="247" y="-240"/>
    </contour>
  </outline>
</glyph>
<glyph name="uni04C9" format="2">
  <advance width="500"/>
  <unicode hex="04C9"/>
  <anchor x="250" y="-222" name="bottom"/>
  <anchor x="250" y="714" name="top"/>
  <anchor x="20" y="714" name="topleft"/>
  <anchor x="500" y="714" name="topright"/>
  <anchor x="250" y="369" name="center"/>
  <outline>
    <contour>
      <point x="299" y="-222" type="line"/>
      <point x="463" y="-222" type="line"/>
      <point x="514" y="135" type="line"/>
      <point x="342" y="135" type="line"/>
      <point x="337" y="0" type="line"/>
      <point x="363" y="0" type="line"/>
    </contour>
    <component base="H"/>
  </outline>
</glyph>
<glyph name="uni04CD" format="2">
  <advance width="500"/>
  <unicode hex="04CD"/>
  <anchor x="250" y="-222" name="bottom"/>
  <anchor x="250" y="714" name="top"/>
  <anchor x="500" y="714" name="topright"/>
  <outline>
    <contour>
      <point x="295" y="-222" type="line"/>
      <point x="459" y="-222" type="line"/>
      <point x="510" y="135" type="line"/>
      <point x="395" y="135" type="line"/>
      <point x="395" y="0" type="line"/>
      <point x="372" y="0" type="line"/>
    </contour>
    <component base="M"/>
  </outline>
</glyph>
<glyph name="uni04CE" format="2">
  <advance width="500"/>
  <unicode hex="04CE"/>
  <anchor x="250" y="-240" name="bottom"/>
  <anchor x="250" y="553" name="top"/>
  <outline>
    <contour>
      <point x="321" y="-203" type="line"/>
      <point x="459" y="-203" type="line"/>
      <point x="518" y="118" type="line"/>
      <point x="381" y="118" type="line"/>
      <point x="369" y="0" type="line"/>
      <point x="380" y="0" type="line"/>
    </contour>
    <component base="afii10078"/>
  </outline>
</glyph>
<glyph name="uni04E0" format="2">
  <advance width="500"/>
  <unicode hex="04E0"/>
  <anchor x="240" y="0" name="bottom"/>
  <anchor x="250" y="714" name="top"/>
  <outline>
    <contour>
      <point x="214" y="-10" type="curve" smooth="yes"/>
      <point x="391" y="-10"/>
      <point x="465" y="76"/>
      <point x="465" y="210" type="curve" smooth="yes"/>
      <point x="465" y="324"/>
      <point x="411" y="407"/>
      <point x="287" y="426" type="curve"/>
      <point x="436" y="606" type="line"/>
      <point x="436" y="714" type="line"/>
      <point x="54" y="714" type="line"/>
      <point x="54" y="583" type="line"/>
      <point x="254" y="583" type="line"/>
      <point x="124" y="419" type="line"/>
      <point x="124" y="318" type="line"/>
      <point x="184" y="318" type="line" smooth="yes"/>
      <point x="269" y="318"/>
      <point x="308" y="285"/>
      <point x="308" y="218" type="curve" smooth="yes"/>
      <point x="308" y="156"/>
      <point x="275" y="123"/>
      <point x="197" y="123" type="curve" smooth="yes"/>
      <point x="134" y="123"/>
      <point x="72" y="144"/>
      <point x="35" y="170" type="curve"/>
      <point x="35" y="27" type="line"/>
      <point x="82" y="3"/>
      <point x="145" y="-10"/>
    </contour>
  </outline>
</glyph>
<glyph name="uni04E1" format="2">
  <advance width="500"/>
  <unicode hex="04E1"/>
  <anchor x="252" y="-240" name="bottom"/>
  <anchor x="247" y="553" name="top"/>
  <outline>
    <contour>
      <point x="199" y="-240" type="curve" smooth="yes"/>
      <point x="358" y="-240"/>
      <point x="457" y="-141"/>
      <point x="457" y="24" type="curve" smooth="yes"/>
      <point x="457" y="168"/>
      <point x="380" y="229"/>
      <point x="280" y="242" type="curve"/>
      <point x="435" y="456" type="line"/>
      <point x="435" y="553" type="line"/>
      <point x="58" y="553" type="line"/>
      <point x="58" y="431" type="line"/>
      <point x="264" y="431" type="line"/>
      <point x="127" y="238" type="line"/>
      <point x="127" y="134" type="line"/>
      <point x="164" y="134" type="line" smooth="yes"/>
      <point x="259" y="134"/>
      <point x="309" y="102"/>
      <point x="309" y="16" type="curve" smooth="yes"/>
      <point x="309" y="-67"/>
      <point x="264" y="-109"/>
      <point x="184" y="-109" type="curve" smooth="yes"/>
      <point x="125" y="-109"/>
      <point x="78" y="-90"/>
      <point x="43" y="-72" type="curve"/>
      <point x="43" y="-206" type="line"/>
      <point x="71" y="-220"/>
      <point x="120" y="-240"/>
    </contour>
  </outline>
</glyph>
<glyph name="uni0502" format="2">
  <advance width="500"/>
  <unicode hex="0502"/>
  <anchor x="250" y="0" name="bottom"/>
  <anchor x="250" y="714" name="top"/>
  <outline>
    <contour>
      <point x="150" y="-10" type="curve" smooth="yes"/>
      <point x="196" y="-10"/>
      <point x="230" y="9"/>
      <point x="248" y="46" type="curve"/>
      <point x="266" y="5"/>
      <point x="295" y="-10"/>
      <point x="348" y="-10" type="curve" smooth="yes"/>
      <point x="438" y="-10"/>
      <point x="487" y="41"/>
      <point x="487" y="184" type="curve" smooth="yes"/>
      <point x="487" y="414" type="line"/>
      <point x="352" y="414" type="line"/>
      <point x="352" y="164" type="line" smooth="yes"/>
      <point x="352" y="131"/>
      <point x="348" y="117"/>
      <point x="336" y="117" type="curve" smooth="yes"/>
      <point x="323" y="117"/>
      <point x="318" y="129"/>
      <point x="318" y="166" type="curve" smooth="yes"/>
      <point x="318" y="714" type="line"/>
      <point x="184" y="714" type="line"/>
      <point x="184" y="460" type="line"/>
      <point x="175" y="460" type="line" smooth="yes"/>
      <point x="65" y="460"/>
      <point x="10" y="385"/>
      <point x="10" y="219" type="curve" smooth="yes"/>
      <point x="10" y="66"/>
      <point x="58" y="-10"/>
    </contour>
    <contour>
      <point x="166" y="117" type="curve" smooth="yes"/>
      <point x="156" y="117"/>
      <point x="145" y="127"/>
      <point x="145" y="215" type="curve" smooth="yes"/>
      <point x="145" y="313"/>
      <point x="152" y="336"/>
      <point x="174" y="336" type="curve" smooth="yes"/>
      <point x="184" y="336" type="line"/>
      <point x="184" y="168" type="line" smooth="yes"/>
      <point x="184" y="130"/>
      <point x="176" y="117"/>
    </contour>
  </outline>
</glyph>
<glyph name="uni0504" format="2">
  <advance width="500"/>
  <unicode hex="0504"/>
  <anchor x="262" y="0" name="bottom"/>
  <anchor x="262" y="714" name="top"/>
  <outline>
    <contour>
      <point x="308" y="-10" type="curve" smooth="yes"/>
      <point x="428" y="-10"/>
      <point x="475" y="57"/>
      <point x="475" y="194" type="curve" smooth="yes"/>
      <point x="475" y="414" type="line"/>
      <point x="338" y="414" type="line"/>
      <point x="338" y="206" type="line" smooth="yes"/>
      <point x="338" y="149"/>
      <point x="331" y="125"/>
      <point x="311" y="125" type="curve" smooth="yes"/>
      <point x="291" y="125"/>
      <point x="283" y="145"/>
      <point x="282" y="213" type="curve" smooth="yes"/>
      <point x="280" y="331"/>
      <point x="246" y="363"/>
      <point x="184" y="373" type="curve"/>
      <point x="184" y="377" type="line"/>
      <point x="244" y="396"/>
      <point x="277" y="458"/>
      <point x="277" y="552" type="curve" smooth="yes"/>
      <point x="277" y="658"/>
      <point x="215" y="724"/>
      <point x="118" y="724" type="curve" smooth="yes"/>
      <point x="64" y="724"/>
      <point x="24" y="707"/>
      <point x="-1" y="690" type="curve"/>
      <point x="30" y="572" type="line"/>
      <point x="44" y="583"/>
      <point x="66" y="592"/>
      <point x="79" y="592" type="curve" smooth="yes"/>
      <point x="110" y="592"/>
      <point x="130" y="568"/>
      <point x="130" y="521" type="curve" smooth="yes"/>
      <point x="130" y="471"/>
      <point x="108" y="437"/>
      <point x="70" y="437" type="curve" smooth="yes"/>
      <point x="54" y="437" type="line"/>
      <point x="54" y="310" type="line"/>
      <point x="77" y="310" type="line" smooth="yes"/>
      <point x="126" y="310"/>
      <point x="140" y="285"/>
      <point x="143" y="189" type="curve" smooth="yes"/>
      <point x="147" y="52"/>
      <point x="189" y="-10"/>
    </contour>
  </outline>
</glyph>
<glyph name="uni0506" format="2">
  <advance width="500"/>
  <unicode hex="0506"/>
  <anchor x="250" y="-220" name="bottom"/>
  <anchor x="200" y="714" name="top"/>
  <outline>
    <contour>
      <point x="338" y="-222" type="line"/>
      <point x="485" y="-222" type="line"/>
      <point x="485" y="142" type="line"/>
      <point x="402" y="142" type="line"/>
      <point x="402" y="204" type="line"/>
      <point x="402" y="302"/>
      <point x="358" y="362"/>
      <point x="271" y="373" type="curve"/>
      <point x="271" y="377" type="line"/>
      <point x="346" y="396"/>
      <point x="385" y="457"/>
      <point x="385" y="551" type="curve" smooth="yes"/>
      <point x="385" y="657"/>
      <point x="310" y="724"/>
      <point x="195" y="724" type="curve" smooth="yes"/>
      <point x="103" y="724"/>
      <point x="47" y="700"/>
      <point x="7" y="675" type="curve"/>
      <point x="58" y="552" type="line"/>
      <point x="87" y="574"/>
      <point x="122" y="581"/>
      <point x="165" y="581" type="curve" smooth="yes"/>
      <point x="210" y="581"/>
      <point x="233" y="560"/>
      <point x="233" y="516" type="curve" smooth="yes"/>
      <point x="233" y="463"/>
      <point x="201" y="441"/>
      <point x="127" y="441" type="curve" smooth="yes"/>
      <point x="76" y="441" type="line"/>
      <point x="76" y="303" type="line"/>
      <point x="149" y="303" type="line" smooth="yes"/>
      <point x="221" y="303"/>
      <point x="250" y="276"/>
      <point x="250" y="219" type="curve" smooth="yes"/>
      <point x="250" y="0" type="line"/>
      <point x="338" y="0" type="line"/>
    </contour>
  </outline>
</glyph>
<glyph name="uni0508" format="2">
  <advance width="500"/>
  <unicode hex="0508"/>
  <anchor x="257" y="0" name="bottom"/>
  <anchor x="201" y="714" name="top"/>
  <outline>
    <contour>
      <point x="345" y="-10" type="curve" smooth="yes"/>
      <point x="426" y="-10"/>
      <point x="482" y="44"/>
      <point x="482" y="132" type="curve" smooth="yes"/>
      <point x="482" y="414" type="line"/>
      <point x="358" y="414" type="line"/>
      <point x="358" y="141" type="line" smooth="yes"/>
      <point x="358" y="127"/>
      <point x="355" y="122"/>
      <point x="346" y="122" type="curve" smooth="yes"/>
      <point x="336" y="122"/>
      <point x="335" y="131"/>
      <point x="335" y="141" type="curve" smooth="yes"/>
      <point x="335" y="714" type="line"/>
      <point x="75" y="714" type="line"/>
      <point x="72" y="492"/>
      <point x="67" y="272"/>
      <point x="63" y="215" type="curve" smooth="yes"/>
      <point x="58" y="141"/>
      <point x="44" y="122"/>
      <point x="21" y="122" type="curve" smooth="yes"/>
      <point x="13" y="122"/>
      <point x="6" y="124"/>
      <point x="2" y="126" type="curve"/>
      <point x="2" y="0" type="line"/>
      <point x="11" y="-4"/>
      <point x="23" y="-8"/>
      <point x="43" y="-8" type="curve" smooth="yes"/>
      <point x="114" y="-8"/>
      <point x="171" y="32"/>
      <point x="180" y="141" type="curve" smooth="yes"/>
      <point x="187" y="225"/>
      <point x="191" y="410"/>
      <point x="193" y="588" type="curve"/>
      <point x="212" y="588" type="line"/>
      <point x="212" y="127" type="line" smooth="yes"/>
      <point x="212" y="46"/>
      <point x="265" y="-10"/>
    </contour>
  </outline>
</glyph>
<glyph name="uni050A" format="2">
  <advance width="500"/>
  <unicode hex="050A"/>
  <anchor x="257" y="0" name="bottom"/>
  <anchor x="180" y="714" name="top"/>
  <outline>
    <contour>
      <point x="339" y="-10" type="curve" smooth="yes"/>
      <point x="434" y="-10"/>
      <point x="474" y="54"/>
      <point x="474" y="130" type="curve" smooth="yes"/>
      <point x="474" y="414" type="line"/>
      <point x="358" y="414" type="line"/>
      <point x="358" y="132" type="line" smooth="yes"/>
      <point x="358" y="116"/>
      <point x="351" y="106"/>
      <point x="339" y="106" type="curve" smooth="yes"/>
      <point x="327" y="106"/>
      <point x="322" y="115"/>
      <point x="322" y="133" type="curve" smooth="yes"/>
      <point x="322" y="714" type="line"/>
      <point x="205" y="714" type="line"/>
      <point x="205" y="427" type="line"/>
      <point x="150" y="427" type="line"/>
      <point x="150" y="714" type="line"/>
      <point x="33" y="714" type="line"/>
      <point x="33" y="0" type="line"/>
      <point x="150" y="0" type="line"/>
      <point x="150" y="320" type="line"/>
      <point x="205" y="320" type="line"/>
      <point x="205" y="128" type="line" smooth="yes"/>
      <point x="205" y="46"/>
      <point x="245" y="-10"/>
    </contour>
  </outline>
</glyph>
<glyph name="uni050B" format="2">
  <advance width="500"/>
  <unicode hex="050B"/>
  <anchor x="257" y="0" name="bottom"/>
  <anchor x="176" y="553" name="top"/>
  <outline>
    <contour>
      <point x="333" y="-10" type="curve" smooth="yes"/>
      <point x="427" y="-10"/>
      <point x="473" y="52"/>
      <point x="473" y="148" type="curve" smooth="yes"/>
      <point x="473" y="342" type="line"/>
      <point x="350" y="342" type="line"/>
      <point x="350" y="133" type="line" smooth="yes"/>
      <point x="350" y="115"/>
      <point x="343" y="109"/>
      <point x="333" y="109" type="curve" smooth="yes"/>
      <point x="324" y="109"/>
      <point x="316" y="115"/>
      <point x="316" y="132" type="curve" smooth="yes"/>
      <point x="316" y="553" type="line"/>
      <point x="195" y="553" type="line"/>
      <point x="195" y="342" type="line"/>
      <point x="156" y="342" type="line"/>
      <point x="156" y="553" type="line"/>
      <point x="35" y="553" type="line"/>
      <point x="35" y="0" type="line"/>
      <point x="156" y="0" type="line"/>
      <point x="156" y="231" type="line"/>
      <point x="195" y="231" type="line"/>
      <point x="195" y="144" type="line" smooth="yes"/>
      <point x="195" y="39"/>
      <point x="242" y="-10"/>
    </contour>
  </outline>
</glyph>
<glyph name="uni050C" format="2">
  <advance width="500"/>
  <unicode hex="050C"/>
  <anchor x="257" y="0" name="bottom"/>
  <anchor x="274" y="714" name="top"/>
  <outline>
    <contour>
      <point x="258" y="-10" type="curve" smooth="yes"/>
      <point x="391" y="-10"/>
      <point x="464" y="82"/>
      <point x="464" y="334" type="curve" smooth="yes"/>
      <point x="464" y="418" type="line"/>
      <point x="254" y="418" type="line"/>
      <point x="254" y="276" type="line"/>
      <point x="327" y="276" type="line"/>
      <point x="327" y="173"/>
      <point x="307" y="125"/>
      <point x="258" y="125" type="curve" smooth="yes"/>
      <point x="209" y="125"/>
      <point x="180" y="181"/>
      <point x="180" y="354" type="curve" smooth="yes"/>
      <point x="180" y="524"/>
      <point x="221" y="586"/>
      <point x="294" y="586" type="curve" smooth="yes"/>
      <point x="331" y="586"/>
      <point x="363" y="576"/>
      <point x="388" y="564" type="curve"/>
      <point x="424" y="691" type="line"/>
      <point x="390" y="708"/>
      <point x="347" y="724"/>
      <point x="285" y="724" type="curve" smooth="yes"/>
      <point x="133" y="724"/>
      <point x="35" y="606"/>
      <point x="35" y="359" type="curve" smooth="yes"/>
      <point x="35" y="103"/>
      <point x="108" y="-10"/>
    </contour>
  </outline>
</glyph>
<glyph name="uni0512" format="2">
  <advance width="500"/>
  <unicode hex="0512"/>
  <anchor x="257" y="-240" name="bottom"/>
  <anchor x="262" y="714" name="top"/>
  <outline>
    <contour>
      <point x="334" y="-240" type="curve" smooth="yes"/>
      <point x="437" y="-240"/>
      <point x="496" y="-171"/>
      <point x="496" y="-35" type="curve" smooth="yes"/>
      <point x="496" y="143" type="line"/>
      <point x="447" y="143" type="line"/>
      <point x="447" y="714" type="line"/>
      <point x="91" y="714" type="line"/>
      <point x="83" y="520"/>
      <point x="68" y="291"/>
      <point x="61" y="224" type="curve" smooth="yes"/>
      <point x="53" y="145"/>
      <point x="43" y="130"/>
      <point x="20" y="130" type="curve" smooth="yes"/>
      <point x="12" y="130"/>
      <point x="7" y="132"/>
      <point x="2" y="134" type="curve"/>
      <point x="2" y="0" type="line"/>
      <point x="16" y="-5"/>
      <point x="34" y="-9"/>
      <point x="55" y="-9" type="curve" smooth="yes"/>
      <point x="148" y="-9"/>
      <point x="194" y="31"/>
      <point x="210" y="134" type="curve" smooth="yes"/>
      <point x="221" y="203"/>
      <point x="235" y="406"/>
      <point x="240" y="556" type="curve"/>
      <point x="277" y="556" type="line"/>
      <point x="277" y="0" type="line"/>
      <point x="331" y="0" type="line"/>
      <point x="331" y="-51" type="line" smooth="yes"/>
      <point x="331" y="-81"/>
      <point x="319" y="-101"/>
      <point x="295" y="-101" type="curve" smooth="yes"/>
      <point x="283" y="-101"/>
      <point x="274" y="-99"/>
      <point x="266" y="-96" type="curve"/>
      <point x="266" y="-231" type="line"/>
      <point x="282" y="-236"/>
      <point x="304" y="-240"/>
    </contour>
  </outline>
</glyph>
<glyph name="uni0515" format="2">
  <advance width="500"/>
  <unicode hex="0515"/>
  <anchor x="250" y="0" name="bottom"/>
  <anchor x="256" y="553" name="top"/>
  <outline>
    <contour>
      <point x="166" y="0" type="line"/>
      <point x="283" y="0" type="line"/>
      <point x="331" y="172" type="line"/>
      <point x="379" y="0" type="line"/>
      <point x="499" y="0" type="line"/>
      <point x="410" y="282" type="line"/>
      <point x="496" y="553" type="line"/>
      <point x="377" y="553" type="line"/>
      <point x="333" y="392" type="line"/>
      <point x="288" y="553" type="line"/>
      <point x="168" y="553" type="line"/>
      <point x="256" y="282" type="line"/>
    </contour>
    <contour>
      <point x="45" y="-8" type="curve" smooth="yes"/>
      <point x="138" y="-8"/>
      <point x="176" y="43"/>
      <point x="183" y="434" type="curve"/>
      <point x="256" y="434" type="line"/>
      <point x="256" y="553" type="line"/>
      <point x="71" y="553" type="line"/>
      <point x="65" y="146"/>
      <point x="49" y="108"/>
      <point x="19" y="108" type="curve" smooth="yes"/>
      <point x="10" y="108"/>
      <point x="4" y="110"/>
      <point x="0" y="112" type="curve"/>
      <point x="0" y="0" type="line"/>
      <point x="9" y="-4"/>
      <point x="26" y="-8"/>
    </contour>
  </outline>
</glyph>
<glyph name="uni0516" format="2">
  <advance width="500"/>
  <unicode hex="0516"/>
  <anchor x="258" y="0" name="bottom"/>
  <anchor x="258" y="714" name="top"/>
  <outline>
    <contour>
      <point x="10" y="0" type="line"/>
      <point x="146" y="0" type="line"/>
      <point x="146" y="245" type="line"/>
      <point x="156" y="245" type="line" smooth="yes"/>
      <point x="304" y="245"/>
      <point x="357" y="345"/>
      <point x="357" y="486" type="curve" smooth="yes"/>
      <point x="357" y="633"/>
      <point x="292" y="714"/>
      <point x="159" y="714" type="curve" smooth="yes"/>
      <point x="10" y="714" type="line"/>
    </contour>
    <contour>
      <point x="146" y="377" type="line"/>
      <point x="146" y="584" type="line"/>
      <point x="153" y="584" type="line" smooth="yes"/>
      <point x="212" y="584"/>
      <point x="229" y="552"/>
      <point x="229" y="478" type="curve" smooth="yes"/>
      <point x="229" y="411"/>
      <point x="207" y="377"/>
      <point x="156" y="377" type="curve" smooth="yes"/>
    </contour>
    <contour>
      <point x="345" y="0" type="line"/>
      <point x="500" y="0" type="line"/>
      <point x="346" y="374" type="line"/>
      <point x="500" y="714" type="line"/>
      <point x="350" y="714" type="line"/>
      <point x="208" y="347" type="line"/>
      <point x="208" y="340" type="line"/>
    </contour>
  </outline>
</glyph>
<glyph name="uni051E" format="2">
  <advance width="500"/>
  <unicode hex="051E"/>
  <anchor x="250" y="0" name="bottom"/>
  <anchor x="250" y="714" name="top"/>
  <anchor x="480" y="0" name="bottomright"/>
  <outline>
    <contour>
      <point x="431" y="463" type="line"/>
      <point x="499" y="562" type="line"/>
      <point x="271" y="714" type="line"/>
      <point x="205" y="615" type="line"/>
    </contour>
    <component base="afii10028"/>
  </outline>
</glyph>
<glyph name="uni051F" format="2">
  <advance width="500"/>
  <unicode hex="051F"/>
  <anchor x="250" y="0" name="bottom"/>
  <anchor x="250" y="553" name="top"/>
  <anchor x="480" y="0" name="bottomright"/>
  <outline>
    <contour>
      <point x="416" y="328" type="line"/>
      <point x="464" y="417" type="line"/>
      <point x="254" y="537" type="line"/>
      <point x="203" y="448" type="line"/>
    </contour>
    <component base="afii10076"/>
  </outline>
</glyph>
<glyph name="uni0520" format="2">
  <advance width="500"/>
  <unicode hex="0520"/>
  <anchor x="151" y="-240" name="bottom"/>
  <anchor x="156" y="714" name="top"/>
  <outline>
    <contour>
      <point x="455" y="-240" type="curve" smooth="yes"/>
      <point x="597" y="-240"/>
      <point x="707" y="-129"/>
      <point x="707" y="80" type="curve" smooth="yes"/>
      <point x="707" y="284"/>
      <point x="603" y="395"/>
      <point x="457" y="395" type="curve" smooth="yes"/>
      <point x="433" y="395"/>
      <point x="410" y="392"/>
      <point x="388" y="386" type="curve"/>
      <point x="388" y="714" type="line"/>
      <point x="235" y="714" type="line"/>
      <point x="235" y="0" type="line"/>
      <point x="388" y="0" type="line"/>
      <point x="388" y="251" type="line"/>
      <point x="399" y="254"/>
      <point x="411" y="255"/>
      <point x="422" y="255" type="curve" smooth="yes"/>
      <point x="505" y="255"/>
      <point x="546" y="200"/>
      <point x="546" y="83" type="curve" smooth="yes"/>
      <point x="546" y="-35"/>
      <point x="504" y="-102"/>
      <point x="423" y="-102" type="curve" smooth="yes"/>
      <point x="399" y="-102"/>
      <point x="375" y="-96"/>
      <point x="352" y="-85" type="curve"/>
      <point x="352" y="-223" type="line"/>
      <point x="374" y="-232"/>
      <point x="417" y="-240"/>
    </contour>
    <contour>
      <point x="-122" y="-9" type="curve" smooth="yes"/>
      <point x="-28" y="-9"/>
      <point x="35" y="27"/>
      <point x="58" y="142" type="curve" smooth="yes"/>
      <point x="73" y="216"/>
      <point x="89" y="422"/>
      <point x="97" y="572" type="curve"/>
      <point x="291" y="572" type="line"/>
      <point x="291" y="714" type="line"/>
      <point x="-37" y="714" type="line"/>
      <point x="-49" y="522"/>
      <point x="-66" y="300"/>
      <point x="-77" y="227" type="curve" smooth="yes"/>
      <point x="-89" y="150"/>
      <point x="-111" y="121"/>
      <point x="-155" y="121" type="curve" smooth="yes"/>
      <point x="-169" y="121"/>
      <point x="-187" y="124"/>
      <point x="-207" y="130" type="curve"/>
      <point x="-207" y="1" type="line"/>
      <point x="-186" y="-5"/>
      <point x="-154" y="-9"/>
    </contour>
  </outline>
</glyph>
<glyph name="uni0521" format="2">
  <advance width="500"/>
  <unicode hex="0521"/>
  <anchor x="108" y="-240" name="bottom"/>
  <anchor x="147" y="553" name="top"/>
  <outline>
    <contour>
      <point x="449" y="-240" type="curve" smooth="yes"/>
      <point x="621" y="-240"/>
      <point x="709" y="-131"/>
      <point x="709" y="39" type="curve" smooth="yes"/>
      <point x="709" y="215"/>
      <point x="614" y="304"/>
      <point x="442" y="304" type="curve" smooth="yes"/>
      <point x="414" y="304"/>
      <point x="389" y="302"/>
      <point x="360" y="299" type="curve"/>
      <point x="360" y="553" type="line"/>
      <point x="-48" y="553" type="line"/>
      <point x="-74" y="254"/>
      <point x="-85" y="130"/>
      <point x="-177" y="130" type="curve" smooth="yes"/>
      <point x="-190" y="130"/>
      <point x="-201" y="133"/>
      <point x="-209" y="139" type="curve"/>
      <point x="-209" y="5" type="line"/>
      <point x="-187" y="-5"/>
      <point x="-162" y="-10"/>
      <point x="-130" y="-10" type="curve" smooth="yes"/>
      <point x="10" y="-10"/>
      <point x="64" y="87"/>
      <point x="94" y="411" type="curve"/>
      <point x="204" y="411" type="line"/>
      <point x="204" y="0" type="line"/>
      <point x="360" y="0" type="line"/>
      <point x="360" y="166" type="line"/>
      <point x="375" y="168"/>
      <point x="398" y="169"/>
      <point x="415" y="169" type="curve" smooth="yes"/>
      <point x="511" y="169"/>
      <point x="553" y="128"/>
      <point x="553" y="34" type="curve" smooth="yes"/>
      <point x="553" y="-61"/>
      <point x="511" y="-105"/>
      <point x="419" y="-105" type="curve" smooth="yes"/>
      <point x="387" y="-105"/>
      <point x="348" y="-99"/>
      <point x="320" y="-84" type="curve"/>
      <point x="320" y="-217" type="line"/>
      <point x="359" y="-232"/>
      <point x="402" y="-240"/>
    </contour>
  </outline>
</glyph>
<glyph name="uni0526" format="2">
  <advance width="500"/>
  <unicode hex="0526"/>
  <anchor x="268" y="-216" name="bottom"/>
  <anchor x="250" y="714" name="top"/>
  <anchor x="20" y="714" name="bottomright"/>
  <outline>
    <contour>
      <point x="372" y="-216" type="line"/>
      <point x="520" y="-216" type="line"/>
      <point x="520" y="129" type="line"/>
      <point x="360" y="129" type="line"/>
      <point x="360" y="0" type="line"/>
      <point x="372" y="0" type="line"/>
    </contour>
    <component base="afii10041" xScale="-1" yScale="-1" xOffset="500" yOffset="714"/>
  </outline>
</glyph>
<glyph name="uni0527" format="2">
  <advance width="500"/>
  <unicode hex="0527"/>
  <anchor x="250" y="-200" name="bottom"/>
  <anchor x="112" y="760" name="top"/>
  <anchor x="480" y="760" name="topright"/>
  <anchor x="250" y="277" name="center"/>
  <outline>
    <contour>
      <point x="358" y="-200" type="line"/>
      <point x="500" y="-200" type="line"/>
      <point x="500" y="122" type="line"/>
      <point x="322" y="122" type="line"/>
      <point x="322" y="0" type="line"/>
      <point x="358" y="0" type="line"/>
    </contour>
    <component base="h"/>
  </outline>
</glyph>
<glyph name="uni0528" format="2">
  <advance width="500"/>
  <unicode hex="0528"/>
  <anchor x="253" y="-224" name="bottom"/>
  <anchor x="253" y="714" name="top"/>
  <outline>
    <contour>
      <point x="-3" y="-224" type="curve" smooth="yes"/>
      <point x="118" y="-224"/>
      <point x="178" y="-161"/>
      <point x="178" y="5" type="curve" smooth="yes"/>
      <point x="178" y="298" type="line"/>
      <point x="322" y="298" type="line"/>
      <point x="322" y="0" type="line"/>
      <point x="475" y="0" type="line"/>
      <point x="475" y="714" type="line"/>
      <point x="322" y="714" type="line"/>
      <point x="322" y="438" type="line"/>
      <point x="178" y="438" type="line"/>
      <point x="178" y="714" type="line"/>
      <point x="25" y="714" type="line"/>
      <point x="25" y="0" type="line" smooth="yes"/>
      <point x="25" y="-56"/>
      <point x="6" y="-80"/>
      <point x="-37" y="-80" type="curve" smooth="yes"/>
      <point x="-58" y="-80"/>
      <point x="-72" y="-75"/>
      <point x="-86" y="-70" type="curve"/>
      <point x="-86" y="-212" type="line"/>
      <point x="-63" y="-219"/>
      <point x="-34" y="-224"/>
    </contour>
  </outline>
</glyph>
<glyph name="uni052A" format="2">
  <advance width="500"/>
  <unicode hex="052A"/>
  <anchor x="245" y="-216" name="bottom"/>
  <anchor x="245" y="714" name="top"/>
  <anchor x="735" y="0" name="bottomright"/>
  <outline>
    <contour>
      <point x="94" y="305" type="line"/>
      <point x="365" y="305" type="line"/>
      <point x="365" y="436" type="line"/>
      <point x="94" y="436" type="line"/>
    </contour>
    <component base="afii10021" xOffset="-255"/>
    <component base="afii10028" xOffset="255"/>
  </outline>
</glyph>
<glyph name="uni052E" format="2">
  <advance width="500"/>
  <unicode hex="052E"/>
  <anchor x="258" y="-216" name="bottom"/>
  <anchor x="303" y="714" name="top"/>
  <outline>
    <contour>
      <point x="382" y="-216" type="line"/>
      <point x="524" y="-216" type="line"/>
      <point x="524" y="143" type="line"/>
      <point x="372" y="143" type="line"/>
      <point x="350" y="0" type="line"/>
      <point x="382" y="0" type="line"/>
    </contour>
    <component base="afii10029"/>
  </outline>
</glyph>
<glyph name="uni1AB1" format="2">
  <unicode hex="1AB1"/>
  <anchor x="0" y="553" name="_top"/>
  <anchor x="0" y="851" name="top"/>
  <outline>
    <contour>
      <point x="0" y="604" type="curve" smooth="yes"/>
      <point x="74" y="604"/>
      <point x="124" y="659"/>
      <point x="124" y="728" type="curve" smooth="yes"/>
      <point x="124" y="797"/>
      <point x="73" y="851"/>
      <point x="0" y="851" type="curve" smooth="yes"/>
      <point x="-75" y="851"/>
      <point x="-124" y="799"/>
      <point x="-124" y="727" type="curve" smooth="yes"/>
      <point x="-124" y="656"/>
      <point x="-75" y="604"/>
    </contour>
    <contour>
      <point x="-236" y="652" type="curve" smooth="yes"/>
      <point x="-183" y="652"/>
      <point x="-158" y="676"/>
      <point x="-158" y="725" type="curve" smooth="yes"/>
      <point x="-158" y="774"/>
      <point x="-181" y="800"/>
      <point x="-236" y="800" type="curve" smooth="yes"/>
      <point x="-291" y="800"/>
      <point x="-314" y="775"/>
      <point x="-314" y="725" type="curve" smooth="yes"/>
      <point x="-314" y="676"/>
      <point x="-288" y="652"/>
    </contour>
    <contour>
      <point x="0" y="687" type="curve" smooth="yes"/>
      <point x="-27" y="687"/>
      <point x="-41" y="704"/>
      <point x="-41" y="728" type="curve" smooth="yes"/>
      <point x="-41" y="752"/>
      <point x="-23" y="769"/>
      <point x="0" y="769" type="curve" smooth="yes"/>
      <point x="23" y="769"/>
      <point x="41" y="752"/>
      <point x="41" y="728" type="curve" smooth="yes"/>
      <point x="41" y="704"/>
      <point x="23" y="687"/>
    </contour>
    <contour>
      <point x="236" y="652" type="curve" smooth="yes"/>
      <point x="289" y="652"/>
      <point x="314" y="676"/>
      <point x="314" y="725" type="curve" smooth="yes"/>
      <point x="314" y="774"/>
      <point x="291" y="800"/>
      <point x="236" y="800" type="curve" smooth="yes"/>
      <point x="181" y="800"/>
      <point x="158" y="775"/>
      <point x="158" y="725" type="curve" smooth="yes"/>
      <point x="158" y="676"/>
      <point x="184" y="652"/>
    </contour>
  </outline>
</glyph>
<glyph name="uni1AB2" format="2">
  <unicode hex="1AB2"/>
  <anchor x="0" y="553" name="_top"/>
  <anchor x="0" y="858" name="top"/>
  <outline>
    <contour>
      <point x="108" y="584" type="curve" smooth="yes"/>
      <point x="179" y="584"/>
      <point x="228" y="648"/>
      <point x="228" y="721" type="curve"/>
      <point x="228" y="802"/>
      <point x="179" y="857"/>
      <point x="108" y="857" type="curve" smooth="yes"/>
      <point x="64" y="857"/>
      <point x="29" y="831"/>
      <point x="0" y="788" type="curve"/>
      <point x="-32" y="838"/>
      <point x="-69" y="858"/>
      <point x="-108" y="858" type="curve" smooth="yes"/>
      <point x="-181" y="858"/>
      <point x="-229" y="798"/>
      <point x="-229" y="723" type="curve" smooth="yes"/>
      <point x="-229" y="640"/>
      <point x="-179" y="588"/>
      <point x="-108" y="588" type="curve" smooth="yes"/>
      <point x="-70" y="588"/>
      <point x="-32" y="615"/>
      <point x="-2" y="655" type="curve"/>
      <point x="29" y="608"/>
      <point x="65" y="584"/>
    </contour>
    <contour>
      <point x="-102" y="668" type="curve"/>
      <point x="-131" y="668"/>
      <point x="-146" y="694"/>
      <point x="-146" y="722" type="curve" smooth="yes"/>
      <point x="-146" y="753"/>
      <point x="-129" y="777"/>
      <point x="-104" y="777" type="curve" smooth="yes"/>
      <point x="-81" y="777"/>
      <point x="-64" y="760"/>
      <point x="-47" y="723" type="curve"/>
      <point x="-64" y="686"/>
      <point x="-82" y="668"/>
    </contour>
    <contour>
      <point x="101" y="666" type="curve" smooth="yes"/>
      <point x="81" y="666"/>
      <point x="62" y="687"/>
      <point x="45" y="721" type="curve"/>
      <point x="63" y="757"/>
      <point x="82" y="775"/>
      <point x="100" y="775" type="curve"/>
      <point x="127" y="775"/>
      <point x="144" y="751"/>
      <point x="144" y="721" type="curve" smooth="yes"/>
      <point x="144" y="691"/>
      <point x="127" y="666"/>
    </contour>
  </outline>
</glyph>
